<?xml version="1.0" encoding="utf-8"?>
<!-- Generator: Adobe Illustrator 21.0.2, SVG Export Plug-In . SVG Version: 6.00 Build 0)  -->
<svg version="1.1" id="Capa_1" xmlns="http://www.w3.org/2000/svg" xmlns:xlink="http://www.w3.org/1999/xlink" x="0px" y="0px"
	 viewBox="0 0 841.4 426.5" style="enable-background:new 0 0 841.4 426.5;" xml:space="preserve">
<style type="text/css">
	.st0{clip-path:url(#SVGID_2_);fill-rule:evenodd;clip-rule:evenodd;fill:#72B072;}
	.st1{clip-path:url(#SVGID_2_);fill-rule:evenodd;clip-rule:evenodd;fill:#D8D9D9;}
	.st2{clip-path:url(#SVGID_2_);fill-rule:evenodd;clip-rule:evenodd;fill:#89BB86;}
	.st3{clip-path:url(#SVGID_2_);fill-rule:evenodd;clip-rule:evenodd;fill:#EDF4EC;}
	.st4{clip-path:url(#SVGID_2_);fill-rule:evenodd;clip-rule:evenodd;fill:#858585;}
</style>
<g>
	<defs>
		<rect id="SVGID_1_" width="841.4" height="426.5"/>
	</defs>
	<clipPath id="SVGID_2_">
		<use xlink:href="#SVGID_1_"  style="overflow:visible;"/>
	</clipPath>
	<path class="st0" d="M303.6,373.2c0,0,6.9,0,8.6,0.2c1.7,0.2,2.7,0.4,2.9,0c0.2-0.4,0.7-1.3-0.5-2.2c-1.2-0.8-2.8-1-5.3-1.2
		c-2.4-0.2-6.2,0.1-10.3,1.2c0,0-4,1.1-5.5,6.2c0,0-1.1,5-0.7,9.4c0.4,4.3,0.1,7.6,4.1,11.3c0,0,1.6,1.4,4.8,1.7
		c3.2,0.2,7.4,0.4,9.8-0.2c2.4-0.6,3-1,3.4-1.9c0.4-0.9,0.4-1.6,0-1.7c-0.4-0.1-1.4,0.2-2.2,0.5c-0.7,0.3-6.6,0.8-8.9,0.5
		c-2.2-0.3-4.2-0.3-6.5-3.6c0,0-1.2-3.2-1.2-6.2c0-3.1,0.2-7,1.2-9.6C297.4,377.5,298.4,373.8,303.6,373.2"/>
	<path class="st0" d="M352.1,370.6c0,0-1.9-0.6-2.4-0.5c-0.5,0.1-1.1,0.2-1.2,1.2c-0.1,1,0,27.8,0,27.8s0.3,0.8,1.4,0.7
		c1.1-0.1,2.3-0.2,2.4-1c0.1-0.7,0.2-12,0.2-12s-0.1-0.3,0.7-0.5c0.8-0.2,13.9-0.2,13.9-0.2s0.4,0.2,0.5,0.7c0.1,0.5,0,12,0,12
		s0,0.7,1,0.7c1,0.1,2.8,0,2.9-0.5c0.1-0.5,0-1.9,0-1.9V371c0,0,0.2-0.9-0.5-1c-0.7-0.1-3-0.3-3.1,0.7c-0.1,1-0.2,11.5-0.2,11.5
		s0.1,0.4-0.7,0.5c-0.8,0.1-14.4,0-14.4,0v-11.3C352.6,371.5,352.5,370.8,352.1,370.6"/>
	<path class="st0" d="M432,398.4c-0.5-1.2-1.7-4.7-3.6-11.5c-1.9-6.8-3.2-12.3-4.3-13.9c-1.1-1.6-2.5-3.1-6.2-3.1
		c0,0-4.2,0.3-5.3,2.9s-7.9,24.7-7.9,24.7s-0.8,1.8,0.2,2.2c0,0,2,0.1,2.6-0.5c0.7-0.6,1.2-3.1,1.2-3.1l2.4-6.7c0,0,0.3-0.3,1-0.5
		c0.6-0.2,12-0.2,12-0.2s0.6-0.1,1.2,1.2c0.6,1.3,2.7,8.6,3.1,9.1c0.4,0.6,0.7,0.7,1.9,0.7C431.5,399.6,432.5,399.6,432,398.4z
		 M423.4,385.9l-7.2-0.2c0,0-2,0.1-3.4,0c-1.4-0.1-0.5-1.7-0.5-1.7s2.3-7.7,3.1-9.4c0.8-1.7,2.9-1.4,2.9-1.4
		c1.7-0.1,2.1,0.7,2.9,1.7c0.8,1,2.6,8.3,2.9,9.8C424.4,386.3,423.4,385.9,423.4,385.9z"/>
	<path class="st0" d="M464.4,381.6v17c0,0-0.3,1.1,2.2,1.2c2.5,0.1,13.1,0.2,15.1-0.2c2-0.4,2.2-0.4,2.9-1.4c0.7-1,1.3-1.7,0-1.7
		c-1.3,0.1-8.7,0.1-12,0.2c-3.3,0.1-4.3,0.3-4.3-1c0-1.2-0.2-25-0.2-25s-0.6-0.4-1.4-0.5c-0.8-0.1-2.1-0.2-2.2,0.7
		C464.3,372,464.4,381.6,464.4,381.6"/>
	<path class="st0" d="M516.7,381.6v17c0,0-0.3,1.1,2.2,1.2c2.5,0.1,13.1,0.2,15.1-0.2c2-0.4,2.2-0.4,2.9-1.4c0.7-1,1.3-1.7,0-1.7
		c-1.3,0.1-8.7,0.1-12,0.2c-3.3,0.1-4.3,0.3-4.3-1c0-1.2-0.2-25-0.2-25s-0.6-0.4-1.4-0.5c-0.8-0.1-2.1-0.2-2.2,0.7
		C516.7,372,516.7,381.6,516.7,381.6"/>
	<path class="st0" d="M569.3,371.3v27.4c0,0,0.1,1,1.9,1.2c1.8,0.2,10.3,0.4,13.4,0c3.2-0.4,4.4-0.8,4.8-1.4c0.4-0.6,1-2-0.2-1.9
		c-1.3,0-7.5,0.2-11,0.2c-3.5,0.1-5,0.4-5-0.7c0-1.1-0.2-9.1-0.2-9.1s-0.1-0.5,1.4-0.5s9.6-0.1,10.8,0c1.2,0.1,2,0,2.4-0.7
		c0.4-0.8,0.7-1.8,0-2.2c-0.7-0.3-3.3-0.3-5.8-0.2c-2.5,0.1-8.4,0.2-8.4,0.2s-0.6-0.3-0.5-1.2c0.1-0.9,0.2-8.4,0.2-8.4
		s0.3-0.4,1-0.5c0.6,0,7.2-0.3,10.8-0.2c3.6,0.1,4.5,0.5,4.6-0.2c0-0.7,0.1-1.2-1-1.9c-1.1-0.7-2.8-0.9-4.6-1
		c-1.7-0.1-6.5-0.2-9.6,0C571.3,370.3,569.5,370.2,569.3,371.3"/>
	<path class="st0" d="M622.8,373.2v25.4c0,0-0.4,0.9,0.7,1c1.1,0.1,2.7,0.4,2.6-1c-0.1-1.3,0-25,0-25s1.4-2,2.4,0
		c1,2,9.4,22.2,10.3,23.5c0.9,1.3,2.6,3,4.8,2.9c0,0,3.7,0,4.1-2.4c0.3-2.4,0.2-26.6,0.2-26.6s-0.1-0.5-0.7-0.7
		c-0.6-0.2-2.5-0.3-2.6,1c-0.1,1.3,0,24,0,24s0.1,1.7-1,1.7c-1,0-1.5-0.6-2.4-2.4c-0.9-1.8-8.5-21-9.6-22.3s-2.1-2.2-4.8-2.2
		C626.9,370.1,623.1,369.8,622.8,373.2"/>
	<path class="st0" d="M702.5,391v3.8c0,0,0.1,1.7-2.4,1.9c-2.5,0.3-8.9,0.6-11-1.2c-2.1-1.8-3.3-3.5-3.4-10.8c0,0,0.1-5,1.9-8.4
		c0,0,1.7-2.7,4.1-2.9c2.4-0.2,5.3-0.2,7.7,0c2.4,0.2,3.6,0,4.6,0.2c1,0.2,1.7,0.1,1.7-0.2c0-0.3,0.6-0.7-0.5-1.7
		c-1-1-3.2-1.5-5.8-1.7c-2.6-0.2-6.7-0.1-8.9,0.5c-2.2,0.6-7.4,2.6-8.2,10.6c0,0-0.7,7.5,1,12.7c0,0,0.8,3,5,5.3
		c0,0,1.9,0.7,5.3,0.7c3.4,0,5.5,0.3,8.4-0.5c3-0.8,3.8-0.6,3.8-2.2c0.1-1.6,0.2-11,0.2-11s-0.3-1.7-1.2-1.9
		c-0.9-0.2-3.1-0.3-5.5-0.2c-2.5,0-4.2,0.3-4.6,2.2c0,0,0,1.4,1.4,1.2c1.5-0.2,4.1-0.3,4.6-0.2c0.5,0,1.7,0,1.7,0V391z"/>
	<path class="st0" d="M741.1,371.3v27.4c0,0,0.1,1,1.9,1.2c1.8,0.2,10.3,0.4,13.4,0c3.1-0.4,4.4-0.8,4.8-1.4c0.4-0.6,1-2-0.2-1.9
		c-1.3,0-7.5,0.2-11,0.2c-3.5,0.1-5,0.4-5-0.7c0-1.1-0.2-9.1-0.2-9.1s-0.1-0.5,1.4-0.5s9.6-0.1,10.8,0c1.2,0.1,2,0,2.4-0.7
		c0.3-0.8,0.7-1.8,0-2.2c-0.7-0.3-3.3-0.3-5.8-0.2c-2.5,0.1-8.4,0.2-8.4,0.2s-0.6-0.3-0.5-1.2c0.1-0.9,0.2-8.4,0.2-8.4
		s0.3-0.4,1-0.5c0.6,0,7.2-0.3,10.8-0.2c3.6,0.1,4.5,0.5,4.6-0.2c0-0.7,0.1-1.2-1-1.9c-1.1-0.7-2.8-0.9-4.6-1
		c-1.7-0.1-6.5-0.2-9.6,0C743.1,370.3,741.3,370.2,741.1,371.3"/>
	<path class="st0" d="M797.3,385.4c0,0,8.2,1.3,10.3,1.9c2.1,0.6,3.1,1,3.1,4.8c0,0,0,2.6-2.4,4.3c0,0-1.7,0.5-5,0.5
		c-3.4,0-5.9,0.1-6.7-0.2c-0.8-0.4-1.6-0.3-2.2-0.5c-0.5-0.2-0.8-0.4-1,0.2c-0.1,0.6-0.5,1.8,1.7,2.9c0,0,3,0.8,7.4,0.7
		c0,0,4.5,0,7.7-1c0,0,2.6-1,3.6-4.8c0,0,1-4.7-0.7-8.2c0,0-0.9-1.3-4.3-1.9c-3.4-0.6-9.8-1.7-10.8-2.2c-1-0.5-1.6-2.3-1.4-4.8
		c0,0,0.1-2.8,3.4-3.8c0,0,3.5-1,9.1-0.5c0,0,1,0,1.7,0.2c0.7,0.2,1.4,0.4,1.9,0.2c0.6-0.1,0.7-0.6,0.7-1c0-0.4-0.7-1.9-2.9-2.4
		c-2.2-0.5-9.5-0.9-13.9,1.2c0,0-3.2,1.9-3.4,7.4c0,0-0.1,3.8,1.2,5.5C794.4,384.2,795.9,385,797.3,385.4"/>
	<path class="st0" d="M387,355.1c-0.3-0.8-1.2-3.2-2.4-7.7c-1.3-4.6-2.2-8.2-2.9-9.3c-0.7-1.1-1.7-2.1-4.2-2.1c0,0-2.9,0.2-3.6,1.9
		c-0.7,1.7-5.3,16.5-5.3,16.5s-0.6,1.2,0.2,1.4c0,0,1.3,0.1,1.8-0.3c0.5-0.4,0.8-2.1,0.8-2.1l1.6-4.5c0,0,0.2-0.2,0.6-0.3
		c0.4-0.1,8.1-0.2,8.1-0.2s0.4-0.1,0.8,0.8c0.4,0.9,1.8,5.7,2.1,6.1c0.3,0.4,0.5,0.5,1.3,0.5C386.7,355.9,387.4,355.9,387,355.1z
		 M381.2,346.8l-4.8-0.2c0,0-1.3,0-2.3,0c-0.9,0-0.3-1.1-0.3-1.1s1.6-5.1,2.1-6.3s1.9-1,1.9-1c1.1-0.1,1.4,0.5,1.9,1.1
		c0.5,0.6,1.7,5.5,1.9,6.6C381.9,347,381.2,346.8,381.2,346.8z"/>
	<path class="st0" d="M635,355.1c-0.3-0.8-1.2-3.2-2.4-7.7c-1.3-4.6-2.2-8.2-2.9-9.3c-0.7-1.1-1.7-2.1-4.2-2.1c0,0-2.9,0.2-3.6,1.9
		c-0.7,1.7-5.3,16.5-5.3,16.5s-0.6,1.2,0.2,1.4c0,0,1.3,0.1,1.8-0.3c0.5-0.4,0.8-2.1,0.8-2.1l1.6-4.5c0,0,0.2-0.2,0.6-0.3
		c0.4-0.1,8.1-0.2,8.1-0.2s0.4-0.1,0.8,0.8c0.4,0.9,1.9,5.7,2.1,6.1c0.3,0.4,0.5,0.5,1.3,0.5C634.6,355.9,635.3,355.9,635,355.1z
		 M629.1,346.8l-4.9-0.2c0,0-1.3,0-2.3,0c-0.9,0-0.3-1.1-0.3-1.1s1.6-5.1,2.1-6.3c0.5-1.1,1.9-1,1.9-1c1.1-0.1,1.4,0.5,1.9,1.1
		c0.5,0.6,1.7,5.5,1.9,6.6C629.8,347,629.1,346.8,629.1,346.8z"/>
	<path class="st0" d="M701.4,355.1c-0.3-0.8-1.2-3.2-2.4-7.7c-1.3-4.6-2.2-8.2-2.9-9.3c-0.7-1.1-1.7-2.1-4.2-2.1
		c0,0-2.9,0.2-3.6,1.9c-0.7,1.7-5.3,16.5-5.3,16.5s-0.6,1.2,0.2,1.4c0,0,1.3,0.1,1.8-0.3c0.5-0.4,0.8-2.1,0.8-2.1l1.6-4.5
		c0,0,0.2-0.2,0.6-0.3c0.4-0.1,8.1-0.2,8.1-0.2s0.4-0.1,0.8,0.8c0.4,0.9,1.8,5.7,2.1,6.1c0.3,0.4,0.5,0.5,1.3,0.5
		C701.1,355.9,701.8,355.9,701.4,355.1z M695.6,346.8l-4.9-0.2c0,0-1.3,0-2.3,0c-0.9,0-0.3-1.1-0.3-1.1s1.6-5.1,2.1-6.3
		c0.5-1.1,1.9-1,1.9-1c1.1-0.1,1.4,0.5,1.9,1.1c0.5,0.6,1.7,5.5,1.9,6.6C696.3,347,695.6,346.8,695.6,346.8z"/>
	<path class="st0" d="M656.9,338.1v17.1c0,0-0.3,0.6,0.5,0.6c0.8,0.1,1.8,0.3,1.8-0.6c-0.1-0.9,0-16.8,0-16.8s0.9-1.4,1.6,0
		c0.7,1.4,6.4,14.9,7,15.8c0.6,0.9,1.7,2,3.2,1.9c0,0,2.5,0,2.8-1.6c0.2-1.6,0.2-17.9,0.2-17.9s-0.1-0.3-0.5-0.5
		c-0.4-0.1-1.7-0.2-1.8,0.6c-0.1,0.9,0,16.1,0,16.1s0,1.2-0.6,1.1c-0.7,0-1-0.4-1.6-1.6c-0.6-1.2-5.7-14.1-6.5-15
		c-0.7-0.9-1.4-1.5-3.2-1.5C659.7,336,657.2,335.8,656.9,338.1"/>
	<path class="st0" d="M294.2,336.9V355c0,0,0.1,0.7,1.3,0.8c1.2,0.1,6.8,0.3,8.9,0c2.1-0.3,2.9-0.5,3.2-1c0.3-0.4,0.7-1.3-0.2-1.3
		c-0.8,0-5,0.1-7.3,0.2c-2.3,0-3.3,0.2-3.3-0.5c0-0.7-0.2-6-0.2-6s-0.1-0.3,1-0.3c1,0,6.4,0,7.1,0c0.8,0,1.4,0,1.6-0.5
		c0.2-0.5,0.5-1.2,0-1.4c-0.5-0.2-2.2-0.2-3.8-0.2c-1.6,0.1-5.6,0.2-5.6,0.2s-0.4-0.2-0.3-0.8c0.1-0.6,0.2-5.6,0.2-5.6
		s0.2-0.3,0.6-0.3c0.4,0,4.8-0.2,7.1-0.2c2.4,0.1,3,0.3,3-0.2c0-0.5,0.1-0.8-0.6-1.3c-0.7-0.5-1.9-0.6-3-0.6c-1.1-0.1-4.3-0.1-6.3,0
		C295.5,336.2,294.4,336.2,294.2,336.9"/>
	<path class="st0" d="M395.5,343.6v11.4c0,0-0.2,0.7,1.5,0.8c1.7,0.1,8.9,0.1,10.2-0.2c1.4-0.3,1.5-0.3,1.9-1c0.5-0.7,0.9-1.2,0-1.1
		c-0.9,0-5.9,0.1-8.1,0.2c-2.3,0.1-2.9,0.2-2.9-0.6c0-0.8-0.2-16.8-0.2-16.8s-0.4-0.3-1-0.3c-0.6-0.1-1.4-0.1-1.5,0.5
		C395.5,337.1,395.5,343.6,395.5,343.6"/>
	<path class="st0" d="M747.1,343.6v11.4c0,0-0.2,0.7,1.5,0.8c1.7,0.1,8.9,0.1,10.2-0.2c1.4-0.3,1.5-0.3,1.9-1c0.5-0.7,0.9-1.2,0-1.1
		c-0.9,0-5.9,0.1-8.1,0.2c-2.3,0.1-2.9,0.2-2.9-0.6c0-0.8-0.2-16.8-0.2-16.8s-0.4-0.3-1-0.3c-0.6-0.1-1.4-0.1-1.5,0.5
		C747.1,337.1,747.1,343.6,747.1,343.6"/>
	<path class="st0" d="M576,346.3c0,0,5.4,0.9,6.7,1.3c1.4,0.4,2,0.7,2,3.1c0,0,0,1.7-1.6,2.8c0,0-1.1,0.3-3.3,0.3
		c-2.2,0-3.9,0.1-4.4-0.2c-0.5-0.2-1.1-0.2-1.4-0.3c-0.3-0.1-0.5-0.2-0.6,0.2c-0.1,0.4-0.3,1.2,1.1,1.9c0,0,2,0.5,4.9,0.5
		c0,0,2.9,0,5-0.6c0,0,1.7-0.7,2.4-3.1c0,0,0.7-3.1-0.5-5.3c0,0-0.6-0.9-2.8-1.3c-2.2-0.4-6.4-1.1-7.1-1.4c-0.7-0.3-1-1.5-0.9-3.1
		c0,0,0.1-1.8,2.2-2.5c0,0,2.3-0.6,6-0.3c0,0,0.7,0,1.1,0.2c0.4,0.2,0.9,0.2,1.3,0.2c0.4-0.1,0.5-0.4,0.5-0.6c0-0.3-0.5-1.3-1.9-1.6
		c-1.4-0.3-6.2-0.6-9.1,0.8c0,0-2.1,1.2-2.2,4.9c0,0-0.1,2.5,0.8,3.6C574.1,345.5,575.1,346,576,346.3"/>
	<path class="st0" d="M527.3,346.3c0,0,5.4,0.9,6.7,1.3c1.4,0.4,2,0.7,2,3.1c0,0,0,1.7-1.6,2.8c0,0-1.1,0.3-3.3,0.3
		c-2.2,0-3.9,0.1-4.4-0.2c-0.5-0.2-1.1-0.2-1.4-0.3c-0.3-0.1-0.5-0.2-0.6,0.2c-0.1,0.4-0.3,1.2,1.1,1.9c0,0,2,0.5,4.9,0.5
		c0,0,2.9,0,5-0.6c0,0,1.7-0.7,2.4-3.1c0,0,0.7-3.1-0.5-5.3c0,0-0.6-0.9-2.8-1.3c-2.2-0.4-6.4-1.1-7.1-1.4c-0.7-0.3-1-1.5-0.9-3.1
		c0,0,0.1-1.8,2.2-2.5c0,0,2.3-0.6,6-0.3c0,0,0.7,0,1.1,0.2c0.4,0.2,0.9,0.2,1.3,0.2c0.4-0.1,0.5-0.4,0.5-0.6c0-0.3-0.5-1.3-1.9-1.6
		c-1.4-0.3-6.2-0.6-9.1,0.8c0,0-2.1,1.2-2.2,4.9c0,0-0.1,2.5,0.8,3.6C525.4,345.5,526.4,346,527.3,346.3"/>
	<path class="st0" d="M329.3,355.7c0.4-0.1,2.5-1.4,3.4-3.4c0.8-2,1.2-6.2,1-8.9c-0.2-2.7-0.7-4.5-3.1-6.2c0,0-1.8-1.3-5.3-1.2
		c0,0-3.2-0.2-5.8,1.7c0,0-2.5,1.5-2.6,6.7c0,0-0.3,5.6,1.2,8.9c0,0,1,2.5,6.7,2.6c0,0,1.5,0.1,1.7,0.2c0.2,0.1,3.1,4.8,3.1,4.8
		s0.5,0.2,1.2,0.2c0.7,0,1.3,0.1,1-0.5c-0.3-0.6-2.6-4.6-2.6-4.6S328.9,355.8,329.3,355.7z M328.3,353.8c-2.8,0.9-5.8,0.2-5.8,0.2
		c-2.7-1-3.1-3.1-3.1-3.1c-1.1-3.8,0-9.1,0-9.1c1.1-4.2,6-3.6,6-3.6c4.5-0.1,5.2,1.8,5.8,3.1c0.5,1.3,0.5,6.2,0,8.9
		C330.7,352.9,328.3,353.8,328.3,353.8z"/>
	<path class="st0" d="M344.4,337v14.2c0,0-0.2,3,3.6,4.6c0,0,4.2,0.5,7.2,0c0,0,4.1-0.7,4.3-4.3c0.2-3.6,0.2-14.9,0.2-14.9
		s-0.2-0.5-1.2-0.5c0,0-1.1,0.1-1.2,1.7c-0.1,1.6,0,13.2,0,13.2s0.2,3.2-5.5,3.1c0,0-3,0.1-4.3-1.2c0,0-1-1.1-1-3.4
		c0.1-2.3,0.2-13,0.2-13s-0.3-0.5-1.2-0.5C344.7,336,344.4,336.1,344.4,337"/>
	<path class="st0" d="M420,336h-1.7c0,0-0.5,0-0.5,1c0,1,0,18.5,0,18.5s-0.2,0.4,0.7,0.5c0.9,0.1,1.7,0.4,1.7-0.7
		c0-1.1,0-18.7,0-18.7S420.3,336,420,336"/>
	<path class="st0" d="M429.4,336c0,0-1.1,0-1.2,0.7c-0.1,0.7-0.5,1.7,0,1.7c0.5-0.1,6.7,0,6.7,0h0.5l-0.2,17.5h2.4v-17.5h6.2
		c0,0,0.5-0.6,0.7-1.2c0.2-0.6,0.4-1.3-0.2-1.2C443.6,336.1,429.4,336,429.4,336"/>
	<path class="st0" d="M451.2,336.2c0,0-1-0.3-1.2-0.2c-0.2,0.1-0.8,0.4-0.7,0.7c0,0.3,0.9,1.6,1.2,1.9c0.2,0.3,5.8,9.1,5.8,9.1
		s0.5,1.2,0.5,1.9c0,0.7,0,6.2,0,6.2h2.4v-7.7c0,0,0.2-0.3,1.2-1.9c1-1.6,5.8-9.1,5.8-9.1s0.6-1.2,0-1.2c-0.6,0-1.5,0-1.9,0.5
		c-0.4,0.5-5.5,8.9-5.5,8.9s-0.1,0.3-0.7,0.5c0,0-0.4-0.3-1.2-1.4c-0.8-1.2-4.8-7.4-4.8-7.4S451.6,336.4,451.2,336.2"/>
	<path class="st0" d="M503.3,353.8c-0.5-0.5-2.6-3.4-2.6-3.4s-0.2-0.3,0.2-1.2c0.4-0.9,2.6-4.3,3.1-5.3c0.5-1,0.9-1.4,0.5-1.7
		c-0.4-0.2-1.6-0.2-2.2,0.5c-0.5,0.7-2.9,4.8-2.9,4.8s-0.7,1.5-0.7,1c-0.1-0.5-0.6-1.9-1.7-2.4c0,0,0-1,0-1.7c0-0.7,0.6-3.4,0-4.8
		c-0.6-1.4-1.7-3.7-6-3.6c0,0-2.9-0.3-4.6,1.7c0,0-1.1,1.1-1.2,3.8c0,0-0.2,1.7,0.2,2.6c0.5,1,0.9,1.1,0.2,2.2c-0.7,1-2,3.9-1,7.2
		c0,0,0.8,2.4,5,2.4c4.3,0,5.5-0.2,6.7-1.2c1.2-1,2.2-2.4,2.2-2.4s0.3-0.8,0.7-0.2c0.4,0.5,2.6,3.6,2.6,3.6s0.8,0.2,1.2,0.2
		c0.4,0,1.3,0,1.2-0.5C504.3,355,503.7,354.3,503.3,353.8z M487.2,341.3c0.3-3.5,3.8-3.6,3.8-3.6c1.8-0.1,2.8,0.7,3.6,1.7
		c0.8,0.9,0.7,3,0.5,4.1c-0.2,1.1-0.5,1.4-1,1.4c-0.5,0-3.3,0-4.8,0c-1.5,0-1.7-1-1.7-1C487,342.5,487.2,341.3,487.2,341.3z
		 M497.3,351.4c-0.4,0.9-1.6,1.7-2.4,2.2c-0.8,0.5-3.8,0.5-3.8,0.5c-2.9,0-3.6-1-3.6-1c-1.7-2.4-0.7-4.8-0.7-4.8
		c1.1-2.1,3.1-1.7,5.3-1.7c2.2,0,3.6,0.7,3.6,0.7c0.5,0.3,1.6,2,1.9,2.2C497.8,349.6,497.7,350.5,497.3,351.4z"/>
	<path class="st0" d="M548.2,337v14.2c0,0-0.2,3,3.6,4.6c0,0,4.2,0.5,7.2,0c0,0,4.1-0.7,4.3-4.3c0.2-3.6,0.2-14.9,0.2-14.9
		s-0.2-0.5-1.2-0.5c0,0-1.1,0.1-1.2,1.7c-0.1,1.6,0,13.2,0,13.2s0.2,3.2-5.5,3.1c0,0-3,0.1-4.3-1.2c0,0-1-1.1-1-3.4
		c0.1-2.3,0.2-13,0.2-13s-0.3-0.5-1.2-0.5C548.4,336,548.2,336.1,548.2,337"/>
	<path class="st0" d="M595.4,336c0,0-1.1,0-1.2,0.7c-0.1,0.7-0.5,1.7,0,1.7c0.5-0.1,6.7,0,6.7,0h0.5l-0.2,17.5h2.4v-17.5h6.2
		c0,0,0.5-0.6,0.7-1.2c0.2-0.6,0.4-1.3-0.2-1.2C609.7,336.1,595.4,336,595.4,336"/>
	<path class="st0" d="M645.8,336h-1.7c0,0-0.5,0-0.5,1c0,1,0,18.5,0,18.5s-0.2,0.4,0.7,0.5c0.9,0.1,1.7,0.4,1.7-0.7
		c0-1.1,0-18.7,0-18.7S646.1,336,645.8,336"/>
	<path class="st0" d="M736.6,336h-1.7c0,0-0.5,0-0.5,1c0,1,0,18.5,0,18.5s-0.2,0.4,0.7,0.5c0.9,0.1,1.7,0.4,1.7-0.7
		c0-1.1,0-18.7,0-18.7S736.9,336,736.6,336"/>
	<path class="st0" d="M771.6,336h-1.7c0,0-0.5,0-0.5,1c0,1,0,18.5,0,18.5s-0.2,0.4,0.7,0.5c0.9,0.1,1.7,0.4,1.7-0.7
		c0-1.1,0-18.7,0-18.7S771.9,336,771.6,336"/>
	<path class="st0" d="M780.5,336c0,0-1.1,0-1.2,0.7c-0.1,0.7-0.5,1.7,0,1.7c0.5-0.1,6.7,0,6.7,0h0.5l-0.2,17.5h2.4v-17.5h6.2
		c0,0,0.5-0.6,0.7-1.2c0.2-0.6,0.4-1.3-0.2-1.2C794.7,336.1,780.5,336,780.5,336"/>
	<path class="st0" d="M802.8,336.2c0,0-1-0.3-1.2-0.2c-0.2,0.1-0.8,0.4-0.7,0.7c0,0.3,0.9,1.6,1.2,1.9c0.2,0.3,5.8,9.1,5.8,9.1
		s0.5,1.2,0.5,1.9c0,0.7,0,6.2,0,6.2h2.4v-7.7c0,0,0.2-0.3,1.2-1.9c1-1.6,5.8-9.1,5.8-9.1s0.6-1.2,0-1.2c-0.6,0-1.5,0-1.9,0.5
		c-0.4,0.5-5.5,8.9-5.5,8.9s-0.1,0.3-0.7,0.5c0,0-0.4-0.3-1.2-1.4c-0.8-1.2-4.8-7.4-4.8-7.4S803.2,336.4,802.8,336.2"/>
	<path class="st0" d="M724.3,348c0,0-0.5-1.2-1.2-1.9c0,0-0.6-0.3-0.5-0.7c0.1-0.4,1.1-1.7,1.2-2.6c0.1-0.9,0.3-3.9-1.4-5.5
		c0,0-1.4-1.2-4.3-1.2c-2.9,0-6.8,0.3-7.2,0.2c-0.4,0-1,0.1-1,0.7c0,0.7,0,5.5,0,5.5v13c0,0-0.4,0.5,1,0.5c1.4,0,9.1,0.1,9.6,0
		c0.5-0.1,2.6-1,3.6-2.9C724.1,353,724.9,350.6,724.3,348z M712.3,339.6v-1.2c0,0,4.5,0,6.2,0c1.7,0,2.4,0.7,2.4,0.7
		c1,1.2,0.7,3.2,0.5,4.3c-0.3,1.1-1.7,1.4-1.7,1.4h-7.4V339.6z M720.2,354c0,0-2.8,0.3-4.6,0.2c-1.7,0-3.4,0-3.4,0v-7.7h7.9
		c0,0,1.6,0.5,1.9,2.6C722.2,349.2,722.9,353.1,720.2,354z"/>
	<path class="st1" d="M331.4,263c0,0-9.3-0.2-14.2,1.9c0,0-2.6,1.7-3.8,5.5c0,0-0.6,1.3,1,1.2s3.5-0.5,7.2-1c3.7-0.4,12-1,15.6-0.2
		c3.6,0.8,6.2,0.8,6.5,8.6c0,0,0.3,5.3-3.4,7.9c-3.7,2.6-10,6.4-16.1,10.1c-6,3.7-11.7,6.8-12.2,10.3c-0.5,3.5-0.5,7.9-0.2,8.6
		c0.3,0.7,0.4,1.8,3.1,1.9c2.7,0.1,18.5,0.2,25,0c6.4-0.2,8.4,0.6,10.6-1.7c2.2-2.3,2.9-3.4,2.9-4.3c0-0.9,0.4-2.1-1-1.9
		c-1.3,0.1-6.3,0.6-12.5,0.7c-6.2,0.1-19.2,0.2-19.2,0.2s-1.8-0.6-1.2-2.2c0.6-1.6,0.9-2.1,6.2-5c5.3-3,16-8.1,19.7-11.5
		c3.7-3.4,6.1-6.2,6.2-11.3c0.1-5.1,0.7-8.2-1-11c-1.6-2.8-3.4-4.7-6.2-5.5c-2.9-0.8-3.8-1.1-7.4-1.2
		C333.3,263.1,331.4,263,331.4,263"/>
	<path class="st1" d="M443,263c0,0-9.3-0.2-14.2,1.9c0,0-2.6,1.7-3.8,5.5c0,0-0.6,1.3,1,1.2s3.5-0.5,7.2-1c3.7-0.4,12-1,15.6-0.2
		c3.6,0.8,6.2,0.8,6.5,8.6c0,0,0.3,5.3-3.4,7.9c-3.7,2.6-10,6.4-16.1,10.1c-6,3.7-11.7,6.8-12.2,10.3c-0.5,3.5-0.5,7.9-0.2,8.6
		c0.3,0.7,0.4,1.8,3.1,1.9c2.7,0.1,18.5,0.2,25,0c6.4-0.2,8.4,0.6,10.6-1.7c2.2-2.3,2.9-3.4,2.9-4.3c0-0.9,0.4-2.1-1-1.9
		c-1.3,0.1-6.3,0.6-12.5,0.7c-6.2,0.1-19.2,0.2-19.2,0.2s-1.8-0.6-1.2-2.2c0.6-1.6,0.9-2.1,6.2-5c5.3-3,16-8.1,19.7-11.5
		c3.7-3.4,6.1-6.2,6.2-11.3c0.1-5.1,0.7-8.2-1-11c-1.6-2.8-3.4-4.7-6.2-5.5c-2.9-0.8-3.8-1.1-7.4-1.2C444.9,263.1,443,263,443,263"
		/>
	<path class="st1" d="M409.2,276.2c-1.9-5.6-3.7-13.4-20.9-13c0,0-10-0.4-15.6,4.8c0,0-6.4,6.9-6.7,20.2c0,0-0.9,12.8,3.4,22.1
		c0,0,2.6,5.9,11,7.7c0,0,4,0.9,7.7,0.7c3.7-0.2,9.8,0,15.4-4.3c0,0,6-5.1,6.7-13.2S411.1,281.8,409.2,276.2z M401.8,302.9
		c-0.9,4.8-4.1,7-4.1,7c-4.2,2.4-10.3,2.2-10.3,2.2c-6.9,0.1-9.6-3.4-9.6-3.4c-3.3-3.6-3.9-10.3-4.1-18.5
		c-0.2-8.2,2.9-15.1,2.9-15.1c4.3-5.8,12-4.8,12-4.8c3.9-0.2,7.2,0.7,7.2,0.7c5.5,2.1,6,6.5,7,11.8C403.7,288,402.7,298,401.8,302.9
		z"/>
	<path class="st1" d="M517.7,263.5l-32.2,0.2c0,0-2.2,0.1-2.6,3.1s-1.4,13.8-1.7,18.5c-0.2,4.7-0.9,6.3,3.6,6.7
		c4.5,0.4,14.8,1.3,19,1.7s8.2,1.4,8.2,5.3s-0.3,9.5-3.1,11c0,0-2.2,1.4-7,1.7c-4.7,0.2-13.7-0.6-17-1c-3.3-0.4-4.7-0.8-4.8,0
		c-0.1,0.8,0.1,5.1,5.5,7.2c0,0,6.3,0.8,12,0.7c5.7-0.1,11-0.3,15.4-2.2c0,0,2.9-1.3,4.3-3.8c1.5-2.6,2.9-5.9,2.9-11.3
		c0-5.4-0.2-9.2-2.9-11.8c0,0-1.2-1.4-6.2-2.2c-5.1-0.7-10.6-0.7-15.6-1.2c-5-0.5-6.8-0.7-6.7-3.1c0.1-2.4,0.7-10.4,1.2-11.5
		c0.5-1.1,1.4-1.3,3.1-1.4c1.7-0.1,20.1,0,21.4,0c1.3,0,1.9,0.3,3.4-1.7C519.1,266.5,520.8,263.5,517.7,263.5"/>
	<path class="st1" d="M568.6,279.6v36.5c0,0-0.6,1.4,3.1,1.7c3.7,0.3,26.5,0.6,29,0.2c2.6-0.3,3.8,0,5.5-2.9
		c1.8-2.9,2.8-4.7,0.7-4.6c-2.1,0.2-18.7,0.8-23.8,0.7c-5-0.1-6.9,0.2-7-2.9c0-3,0-43,0-43s0.4-1.6-1.4-1.7c-1.9-0.1-5.3,0-5.3,0
		s-0.9-0.1-1,1.2C568.6,266.3,568.6,279.6,568.6,279.6"/>
	<path class="st1" d="M620.5,285.4c0,0-0.1,18.2,0.2,19.9c0.3,1.7,0.5,7.7,7.7,11c0,0,6.9,2.4,12.7,2.4c5.8,0,14.5-1.1,17.5-3.6
		c3-2.5,5.6-4.3,5.8-11.3c0.2-6.9,0.2-38.9,0.2-38.9s0.3-1.2-1.2-1.2c-1.5,0-6.1-0.2-6.5,2.2c-0.3,2.3-0.2,31.4-0.2,31.4
		s0.3,7.8-2.2,10.3c-2.5,2.5-5.9,3.8-12.5,3.8c-6.6,0-12.3-2-13-6.2c-0.7-4.3-0.5-25.7-0.5-25.7v-13.9c0,0,0.3-1.3-1.4-1.7
		c-1.7-0.3-5.5-0.2-5.5-0.2s-1.2,0.2-1.2,1.7C620.5,266.9,620.5,285.4,620.5,285.4"/>
	<path class="st1" d="M684.1,287v29.8c0,0-0.2,1.1,1.2,1.2c1.4,0.1,4,0.1,4.8-0.7c0.8-0.9,1.1-1.1,1.2-4.3
		c0.1-3.2,0.2-41.8,0.2-41.8s0.3-1.2,2.2-1.2c0,0,1.8-0.6,3.1,2.4c1.3,3,14.9,36,14.9,36s2.4,6.5,5.3,8.6c0,0,2.6,1.4,6.7,1.2
		c4.1-0.2,9.1-0.2,9.1-7c0-6.7,0-46.3,0-46.3s0.3-1.1-1.7-1.2c-2-0.1-5.7-0.1-5.8,2.9c0,3,0,42.2,0,42.2s0.1,2.8-1.7,2.9
		c-1.8,0.1-2.3-0.4-3.6-2.6c-1.3-2.3-18-42.5-18-42.5s-1.8-3-4.8-3.1c-3-0.2-6.5-0.6-10.3,1c0,0-2.7,1-2.9,6.5
		C683.9,276.4,684.1,287,684.1,287"/>
	<path class="st1" d="M796.4,274.3c-2.1-4.2-4-6.9-7.4-8.2c-3.5-1.3-6.8-2-9.6-2.2c-2.8-0.2-24.7,0-24.7,0s-2.7,0.1-2.6,1.7
		c0,1.6,0,17.5,0,17.5v32.9c0,0-0.3,1.7,2.4,1.9c2.7,0.2,21.5,0.3,26.4-0.5c4.9-0.8,10-1.3,14.4-9.4c0,0,3.3-7.4,3.4-13.4
		C798.6,288.7,798.5,278.5,796.4,274.3z M788.2,303.6c-1.7,4.9-5,6.4-9.4,7.2c-4.4,0.8-15.1,0.3-17.3,0.2c-2.2-0.1-1.4-2.2-1.4-2.2
		v-22.3c0,0-0.1-13.5,0-14.9c0.1-1.4,3.4-1,3.4-1s12.1-0.2,15.6,0.2c3.5,0.4,6,2.2,6,2.2c3.5,2.5,4.6,7,5.3,12
		C791.1,290.1,789.9,298.7,788.2,303.6z"/>
	<path class="st2" d="M77.8,73.9L62.1,37.4c0,0,0.2-8.9-1.6-10.1c0,0-0.5-1,0.2-2.2c0.6-1.2,1.8-2.5,1.8-4.5c0,0-0.8-4.1-4-4
		c0,0-4,0.2-3.8,5.1c0,0,0.1,2.9,2.7,4c0,0,0.6,0.7,0.3,1.4c-0.3,0.8-2.5,1.6-2.1,8.2l-31.7,69c0,0-0.6,2-2.6,2.4
		c-1.9,0.4-4.4,0.3-4.5,3.5c0,0,0.3,2.2,3.5,2.7l0.3,129.9c0,0-3.5,0.9-3.4,3.4c0,0-0.4,3.3,3.2,3.7l-0.2,17.3c0,0-3.1-0.4-3,1.9
		c0,0,0.2,2.2,3,2.2l0.2,135.8h257.1l0.2-163c0,0,3-0.5,3-2.7c0,0-0.1-2.4-3.2-2.4l0.2-90.6l-0.2-36.8c0,0,2-0.4,2.1-2.7
		c0,0-0.2-2-2.1-1.9c0,0-2.7-0.2-4.3-2.1c-1.7-1.8-4.5-6.7-4.5-6.7l-28.5-61.9v-8.8c0,0-0.3-1.4-1.9-1.6c0,0,2.5-1.9,2.4-4.6
		c0,0,0.2-4.5-3.5-4.6c0,0-4.1,0-4,5c0,0-0.3,3.2,2.7,4.2c0,0-0.3,0.6-0.8,1.3c-0.5,0.7-0.8,4.2-0.8,9.3l-11,24.8l-32.3,131
		c0,0-9.4,3.1-13.1,1c-3.7-2.1-16-16.2-16-16.2L136,175l-11.5,11.4l-10.2,17.6l-12.8-37.6L77.8,73.9z"/>
	<path class="st3" d="M59.9,41.2c-2.4,2.3-4.9,4.6-7.3,6.9c0,0.3,0,0.5,0.1,0.8l2.5,0.5c2.4-1.8,5.1-3,7.3-4.7c0-0.5,0-1-0.1-1.4
		c-0.7-0.6-1.5-1.2-2.2-1.9c-0.3,0-0.6,0.1-0.9,0.1h0.3C59.7,41.4,59.8,41.3,59.9,41.2"/>
	<path class="st3" d="M58.3,72.4c-1,0.7-7.2,3.5-7.2,4.4c-0.1,0.5-0.1,0.9-0.2,1.4c1,0.6,2,1.2,3,1.8c2.6,0,5.7-2,7.6-3.4
		c0.1-0.8,0.2-1.6,0.4-2.4c-0.5-1.3-2.6-1.5-3.8-1.5c-0.2,0.2-0.3,0.3-0.5,0.5"/>
	<path class="st3" d="M43.1,90.8c-0.9,1.1-0.3,1.9-0.8,3c-1.5,1.3-3,2.7-4.5,4v0.2l1,0.2c2.1-0.2,4.1-0.3,6.2-0.5
		c1.8,0.2,3.6,0.4,5.4,0.6c0.9-0.8,1.8-1.6,2.6-2.4v-0.6c-1.7-0.1-3.5-0.2-5.2-0.3c-0.8-1.3-3.5-4.2-5.2-4.2
		c-0.1,0.1-0.3,0.2-0.4,0.3l0.5,0.3C42.8,91.2,43,91,43.1,90.8"/>
	<path class="st3" d="M59.4,85.6c-3.3-0.4-6,3.5-6,6.4c0.5,0.2,1,0.3,1.6,0.5c1.7-0.4,2.1-2.8,4.1-2.8c0,0.5,0.1,1,0.1,1.4
		c-1.1,1.6-3.1,2.1-3.1,4.6c0.7,0.7,1.4,1.4,2,2.1c1.9,0,3.4,0.1,5.3-0.8c0.3-0.4,0.6-0.7,0.8-1.1c0.6-3,0.3-6.2-1.4-8.8
		C61.6,86.6,60.4,86,59,86C59.1,85.9,59.2,85.7,59.4,85.6"/>
	<path class="st3" d="M25.8,126c0.6-0.5,1.3-1.1,1.9-1.6c0-0.3,0-0.6,0.1-0.8c-0.1-0.2-0.2-0.4-0.3-0.6c-0.9-0.2-1.8-0.4-2.6-0.6
		c-0.5,0.3-1,0.6-1.4,0.9c-0.1,2.3-0.2,4.7-0.3,7c-1.2,4.6,0.8,9.7,0,14.4c-0.3,2.6-0.6,5.2-0.9,7.8c0.3,0.2,0.6,0.5,0.8,0.7
		c1.8,0,3.7-0.1,5.5-0.1c0-1.5-0.7-2.6-1-4.1c-0.4-4.9-0.7-9.9-1.1-14.8c0,0,0.1-0.1,0.1-0.1c0.2-0.2,0.4-0.5,0.6-0.7
		c0.2-0.1,0.3-0.2,0.5-0.2c1.1,0,6.4-5.3,3.6-5.3c-1.6,1.3-3.1,3.3-5.2,3.3c0.3-0.8,0.6-1.7,0.8-2.5l-1.4-1c0-0.4,0-0.7-0.1-1.1
		c0.3-0.1,0.6-0.2,0.9-0.4C26.1,126.1,26,126,25.8,126"/>
	<path class="st3" d="M39.6,120.2c-1.5,0.4-4.6,2.3-5.5,3.7c0,1.2,3.1,0.7,3.7,0.7c1.9,0,10.6-0.2,11.6-1.6c0-0.7,0.1-1.4,0.1-2.1
		c-0.6-0.5-10.2-0.8-11.3,0"/>
	<path class="st3" d="M54.8,122.2c-0.9,0.6-1.8,1.1-2.7,1.7c0,0.5,5.2,6.5,5.9,6.5c1.7-1.5,3.5-3,5.2-4.4c3.5-2.7,9.1-1.8,10.8-7.3
		c-0.1-0.3-0.1-0.7-0.2-1c-4.5-0.9-11.3,7.6-16.4,6.3c-1-0.8-2-2.1-3.4-1.6"/>
	<path class="st3" d="M47.7,128.9c-1.7,0-3,0.4-4.6,1c0,1.3-0.4,3.5,0.9,4.5c2.4,0.9,3.6-1.5,5.8-1.1c1.5,0.4,3,0.7,4.5,1.1
		c0.9-0.7,1-1,1-2.1c-2.1-1.6-5.4-3.5-7.8-3.5c-0.2,0.1-0.4,0.2-0.5,0.2"/>
	<path class="st3" d="M70.7,129c-1.8,0.6-6.1,2.8-6.1,5c1.8,1.4,7.5-2.6,8.9-3.7v-0.9c-0.8-1.3-2.9,0.1-3.7,0.7"/>
	<path class="st3" d="M52.8,167.7l2.1-1.7l0.1-0.9c-1.8,0-4.2,0.1-5.6-0.9c0-1.6,1.1-2.6,1.1-4.2c-2.2,0.1-4.3,0.2-6.5,0.2
		c-1.2,1.7-2.3,3.4-3.5,5.1c1.8,1.4,6.4,0.5,8.6,0.5C50.3,166.4,51.5,167,52.8,167.7L52.8,167.7z"/>
	<path class="st3" d="M74.3,163.4c1.1-1.4,3.2-3,3.2-4.9c-1.3,0.2-2.5,0.4-3.8,0.6c-0.8,0.6-6.9,6.9-6.9,7.5
		c0.2,0.1,13.1,0,13.6-0.4c0.3-0.5,0.7-0.9,1-1.4v-0.9c-2.3-0.2-4.7-0.5-7-0.7C74.4,163.3,74.4,163.3,74.3,163.4"/>
	<path class="st3" d="M44.9,174.5c-0.3-0.1-0.6-0.2-0.8-0.3c0-1.6-0.9-1.8-2.2-1.8c-1.1,0.6-2.3,0.7-3.3,1.4c0,0.1,0,0.2,0.1,0.4
		c1.1,0.9,2.3,1.8,3.4,2.8c1.2,0.5,3.3-0.5,4-1.5c-0.1-0.3-0.1-0.7-0.2-1c-0.4,0-0.8-0.1-1.1-0.1C44.8,174.3,44.8,174.4,44.9,174.5"
		/>
	<path class="st3" d="M53.5,173.7c-1.4,0.1-4,0.7-4,2.6v0.2c0.8,1.2,4.1,1.8,5.5,1.8c1.4-1.1-0.2-3.1-0.2-4.1
		c-0.6-0.1-1.1-0.2-1.7-0.3C53.2,173.9,53.4,173.8,53.5,173.7"/>
	<path class="st3" d="M71.8,173.3c-3-1.3-7,2-9.2,3.7v0.4c4.4-0.3,8.8-0.6,13.1-0.9c2.6,0.3,5.1,2.1,7.8,2.1
		c0.1-0.1,0.2-0.3,0.4-0.4c0.3-0.8,0.5-1.1,0.5-2c-4.2-1.1-8.5-3.1-12.7-3.1v0.4C71.7,173.4,71.7,173.3,71.8,173.3"/>
	<path class="st3" d="M38.7,203h-2.2c-1.6,2.5-6.8,4.5-6.8,8c0.4,0,0.8,0,1.2,0c1.5-1.5,3.1-3,4.6-4.4c1.9-1.1,3.8-2.1,5.7-3.2V203
		c-1.1-0.1-2.2-0.2-3.3-0.2"/>
	<path class="st3" d="M47,211.1c-1.3,0-8.9,1.6-8.9,3.2c0,0.2,0,0.5,0.1,0.7c3.3,0.4,6.6,0.9,9.9,1.4c1.2-1.4,4.9-2.3,4.9-4.6
		c-0.6-0.4-1.2-0.8-1.7-1.2c-1.9-0.5-3.7,0.6-5.2,0.6"/>
	<path class="st3" d="M65.9,202.9c-0.8,0-1.6-0.1-2.4-0.1c-1.2,0.5-5.3,4.5-5.3,6l0.5,0.3c0.2,0,0.4,0,0.7,0c0.1,0,13.9-5.1,14-5.3
		c0-0.2,0-0.3-0.1-0.5c-0.1,0-0.1-0.1-0.2-0.1c-2.1-1.1-5.3,1.1-7.5-0.6h-0.1c0,0-0.1,0-0.1,0c0,0,0,0-0.1,0
		c-0.1,0.1-0.2,0.3-0.4,0.4"/>
	<path class="st3" d="M88.4,202.1c-2.6,0.2-9.5-0.1-11.5,1.1c-0.1,0.1-0.2,0.2-0.3,0.3c0,0.6,0,1.2,0.1,1.8c2.2,0.9,5.4,6.1,7,6.1
		c0.1-1.1,0.3-2.3,0.4-3.4c1.1-1.5,5.5-3.3,5.5-5.2c-0.5-0.3-1-0.6-1.5-0.9c-0.2,0.1-0.4,0.2-0.7,0.3"/>
	<path class="st3" d="M75,210.8c-2,0-5.6,1.5-7.2,2.7l-0.2,1.1c2.1,1.6,11.3,0.2,14,0.2c0-0.6,0-1.2,0.1-1.8
		c-0.8-0.9-1.5-1.8-2.3-2.7c-1.9,0-6,0.8-6,0.8"/>
	<path class="st3" d="M90.9,207.4c-1.9,0.7-6,2.6-6,5.1c0.4,0.1,0.8,0.2,1.3,0.3c2.3-0.7,4.9-1.9,6.9-3.4c0.2-0.6,0.4-1.2,0.6-1.8
		c-0.7-1.1-2.2,0.2-2.9,0.2C90.8,207.8,90.9,207.6,90.9,207.4"/>
	<path class="st3" d="M93.6,213.8c-0.9,0.1-1.8,0.2-2.7,0.3c-1.4,0.6-0.9,4.1-1,5.2c-0.4,5.7-0.7,11.5-1.1,17.2
		c1.1,0.9,8.3,0.5,7.6-1.6c-2.1-1.6-3.9-4.8-3.9-7.5c2.6-2,6.2-6.9,5.3-10.4c-0.7-1.1-2.2-3-3.5-3.4c-0.2-0.1-0.4-0.2-0.6-0.3
		C93.7,213.5,93.6,213.7,93.6,213.8"/>
	<path class="st3" d="M106.1,230.4c-1.8,0.2-3.2,1.9-4.5,3.2c-0.1,0.8-0.2,1.6-0.4,2.4c0.2,0.3,3.1,4,3.1,4h0.5
		c0.9-1.2,3.4-8.6,2.4-9.8c-0.6-0.3-1.8-0.3-2.3,0.2"/>
	<path class="st3" d="M111.1,233c0.7,2,1.3,4.2,0.3,6.1c-0.3,0.4-0.7,0.9-1,1.3c2.9,0,8.1-1.9,8.1-5.1c-0.8-1.9-4-2.7-5.9-2.7
		c-0.2,0.2-0.3,0.3-0.5,0.5c0,0.1-0.1,0.2-0.1,0.3"/>
	<path class="st3" d="M150.9,201.3c-2.5-0.1-4.9-0.2-7.4-0.3v1.3c0,0,11.2,6,12.1,6.3c0.8,0.2,1.7,0.5,2.5,0.7
		c0-3.7-3.8-5.6-5.5-8.2h-2.7"/>
	<path class="st3" d="M238.7,38.9c-0.5-0.1-0.9-0.3-1.4-0.4c-2.5,0.9-0.2,12.9,1.4,14.2c1.9,0,3.8,0.1,5.7,0.1
		c-1.2-3.6-2.5-7.2-3.7-10.8c-0.7-0.5-2.4-3.6-2.4-2.8C238.5,39.1,238.6,39,238.7,38.9"/>
	<path class="st3" d="M247.8,81.9c-3.7,0-9.5,3.9-9.5,7.8c-1.4,1-2.8,2.1-4.2,3.1c-1,0.9-3.7,3.7-2.7,5.3
		c5.1,1.9,15.6-8.6,18.3-12.2c0.8-1,0.5-2.3,0.5-3.5c-0.8-0.6-2.2-0.4-3.2-0.4L247.8,81.9"/>
	<path class="st3" d="M256.2,81.9c-3.7,1-5.5,5.3-5.5,8.7c0.7,0.7,1.3,1.3,2,2c1,0,1.4-0.3,2.2-0.9c0-3.7,4.7-4.3,4.7-7.8
		c-0.1-0.4-0.2-0.7-0.4-1c-0.5-0.4-4.2-0.5-4.2-0.5"/>
	<path class="st3" d="M247,94c-1.6,1-3.4,1.8-4.4,3.4v0.8c2.8,0,5.6-0.8,8.2-0.8c0.1-0.5,0.1-1,0.2-1.5c-0.9-0.7-1.8-1.4-2.7-2.1
		c-0.8,0-1.5,0.1-2.3,0.1"/>
	<path class="st3" d="M243.3,100.4c-3.3,0-5.6,1-8.6,2.2v0.5c1.6,1.8,11.5,0.8,14.6,0.8c0.4-0.7,0.8-1.4,1.3-2
		c-2.2-0.4-4.5-0.7-6.7-1c-0.3,0-0.6,0-0.9,0.1C243.1,100.6,243.2,100.5,243.3,100.4"/>
	<path class="st3" d="M261.5,91.9c-2.1,0.6-4.5,1.1-4.5,3.5c0.7,2.3,4.1,3.4,6.2,3.4c0.2-0.2,0.5-0.5,0.7-0.7v-3
		c-0.3-0.4-3-3.2-3-3.2H261.5z"/>
	<path class="st3" d="M266.8,101.4c-3.6,0.1-7.2,0.2-10.8,0.4c-0.7,0.5-1.4,1.1-2.1,1.6v0.8c0.1,0.1,11.8,1,12.6,0.4
		c0.7-0.5,0.7-1.8,0.7-2.6c-0.2-0.3-0.5-0.7-0.7-1l-1.8,0.4"/>
	<path class="st3" d="M271.5,114.1c-0.7,0.1-1.4,0.2-2.1,0.4c0,0.6,0.1,1.2,0.1,1.8c1.3,1.3,3.7,1.5,5.2,1.5
		c0.1-0.1,0.3-0.2,0.5-0.4c0.1-0.6,0.1-1.2,0.2-1.8C274.3,113.9,273.2,114.1,271.5,114.1l-0.1-0.8
		C271.4,113.6,271.4,113.9,271.5,114.1"/>
	<path class="st3" d="M242.6,121.9c-2-0.9-7.6-0.2-9.4,1.2c0,3,1.7,4.8,3.3,7.2c1.6,0,6.3-4.7,8.9-5.4c3.4-0.9,7-0.6,10.2,0.2
		c1,1.2,3.1,1.7,4.7,1.7c0-1.5,5.1-3.1,5.1-3.8c0-1.2-5.3-1.6-6-1.7c-3.5-0.6-8.5-1.4-12.1-0.6c-1.9,0.4-3.8,0.9-5.7,1.3"/>
	<path class="st3" d="M232.4,132.1c-0.1-0.6-0.2-1.3-0.3-1.9c-0.6-1-7.2-2.6-8.5-2.2c-0.2,0.3-0.4,0.5-0.5,0.8v1.7
		c0.2,0.3,0.4,0.6,0.6,0.8c1.4,1.2,3.2,0.9,4.8,1.7c1.7,0.8,3.1,2.5,4.7,3.3c0.1,0,0.1,0.1,0.2,0.1c0-0.9,0.1-1.7,0.1-2.6
		c-0.4-0.7-0.7-1.4-1.1-2c-0.2,0-0.4-0.1-0.6-0.1C232,131.7,232.2,131.9,232.4,132.1"/>
	<path class="st3" d="M251.6,128.8c-1.6,0.5-8.7,3.1-8.7,5c3.6,0,7-0.8,10.6-0.8c0.8,1.2,3.8,0.9,5.1,0.8c0.8-0.4,1.6-0.7,2.3-1
		c0-0.2,0.1-0.5,0.1-0.7c-1-0.8-7.4-0.3-7.4-1.3c0.6-0.4,1.3-0.9,1.9-1.3v-0.3c-0.4-0.6-3.5-0.9-4.2-0.4H251.6z"/>
	<path class="st3" d="M268.7,123.1c-1.3,1.1-2.6,2.1-3.9,3.2c0.1,0.1,0.2,0.2,0.4,0.3c1.3,1,2.5,0.7,3.5,2.2
		c0,6.9-3.2,12.8-2.2,19.9c0,2,0.1,4,0.1,6h5.3c0-6.9,2-14.6,1.1-21.6c-0.2-1.8-0.4-3.6-0.6-5.5c-0.5-1.5-1-2.9-1.5-4.4
		c-0.8-0.1-1.6-0.1-2.4-0.2c-0.1,0-0.1,0-0.2-0.1c0.2,0,0.3,0,0.5-0.1V123.1z"/>
	<path class="st3" d="M228.8,159.8c0.5,2.9-5.1,4.3-5.1,5.9c1.4,0.5,2.8,1.1,4.2,1.6c1.9-1.5,5.7-4.7,5.7-7.2h-2.3
		c-0.9,0-2.5,0-2.8,1"/>
	<path class="st3" d="M238.3,160.7c-1.5,0.3-4.9,3.3-4.9,5.1h4.2c0.7-0.7,1.4-1.4,2.1-2c0-0.6-0.6-3-0.9-3c-0.3,0-0.7,0.1-1,0.1
		C238,160.9,238.2,160.8,238.3,160.7"/>
	<path class="st3" d="M247.4,158.7c-2.4,0.5-3.5,2.1-5.2,3.4v1c1.2,0.2,2.6,0.5,3.8,0.1c1.4-1.1,2.1-2.3,2.1-4.1
		c-0.4-0.2-0.8-0.3-1.2-0.5l-1.2,0.6"/>
	<path class="st3" d="M270.3,159.3c-2.5-0.3-5.1,0-7.7,0c-1.1,1.7-6.5,6.8-6.5,7.4c0,0,7.1,5.2,8,5.9c1.1,0,3.4-1.2,3.4-2.4
		c-0.4-0.6-3.1-0.8-3.1-1.8c0-0.8,4.5-2.7,5.6-2.7c0,2.4-0.4,5.2-0.4,7.7c-1,0-1.3,2.5-1.4,3.1c-1,6.4-0.7,13.2-0.7,19.8h5.1
		c1.7-1.9,0-6.6,0.2-8.9c0.2-2.3,0.4-5.2,0.9-7.6v-8.1c0.3-1.5,1-2.9,0.7-4.6c-0.3-1.6-3.8-6.8-3.8-7.5c-0.4,0-1.1-0.3-0.6,0.1
		C270.2,159.6,270.2,159.5,270.3,159.3"/>
	<path class="st3" d="M224,172.5c-2.1-0.3-6.8-0.3-8.8,0.6l-3,2.7c-0.4,0.3-0.8,0.6-1.2,0.8c0,0.8,4.9,0.8,5.3,0.8
		c3.6,0.2,6.9-0.6,10.4-0.6c0.8-0.8,1.5-1.6,2.3-2.4v-1.4c-1.6,0-5.5,0.2-6.8-0.8"/>
	<path class="st3" d="M214.1,204c2.1-0.7-1.5-0.5-2.2,0c0,1.7-0.8,2.7-0.8,4.2c0.9,0,7.6-0.9,8.4-1.5c3.7,0,7.5,1,11,1
		c0.5,0.9,1.1,1.7,1.6,2.6c2,0,3.6-1.1,5.6-1.5c4.4-0.8,11.7,0.8,14.9-2.3l4.4-2.3c-3-0.3-6-0.7-9-1c-1.5-0.3-3-0.6-4.5-0.9
		c-6.9,0-13.8,0-20.7,0.1c-1.4,0-10.1-0.3-10.1,1.5"/>
	<path class="st3" d="M255.8,209.9c-3.2-0.2-11.3,1.2-13.2,4.2c0,0.3,0.1,0.5,0.1,0.8c0.5,0.4,1.1,0.9,1.6,1.3
		c5.5,0,10.6-0.3,13.7-5.2v-0.5c-1,0-1.9-0.7-3-0.7C255.3,209.8,255.5,209.8,255.8,209.9"/>
	<path class="st3" d="M274.4,203.6c-2.6-1.4-4.9,0.7-7.5,0.7c0,3.3,1.7,2.9,2.1,5.8c0.1,6.6,0.3,13.3,0.5,19.9
		c-0.2,1.1-0.5,2.2-0.7,3.3c2.1,0,3,2.6,4.5,3.8c0.3-0.1,0.7-0.1,1-0.2c0-8.5-0.5-16.9-0.5-25.3c-0.1-2.8-0.2-5.6-0.3-8.5l-0.8,0.9"
		/>
	<path class="st3" d="M206.6,213.9l1.2-1c-1,0.5-2,1-3.1,1.5l-2.5,1.1c0,4.2,0.2,8.8,0.2,13.3c1.4-0.5,2.8-0.9,4.2-1.4
		c0.1-0.1,0.2-0.2,0.3-0.3c0.9-1.1-0.3-6.9-0.1-8.9c0.2-1.7,1.3-3,1.3-4.7c-0.1-0.4-0.2-0.8-0.4-1.2h-1"/>
	<path class="st3" d="M181.5,233.2c-0.7,0-1.4-0.1-2.2-0.1c-0.4,2.9-0.8,5.7-1.2,8.6c0.7,0,6.5-1.5,6.5-1.9c1.2-1,0.5-4.9,0.5-6.4
		c-0.1-0.1-0.1-0.1-0.2-0.2c-1.3-0.1-2.7-0.2-4-0.4C181.2,233,181.3,233.1,181.5,233.2"/>
	<path class="st3" d="M29.4,252.9h-5.1c-0.3,0.3-0.6,0.6-0.9,0.8c0,4.1,0.4,8.4,1,12.4c0.2,1.7,0,10.1-0.8,11.3c0,4,0,7.7-0.6,11.4
		c-0.1,3.2-0.3,6.5-0.5,9.7l0.3,0.8c0.2,0,0.4,0.1,0.5,0.1c1-1.5,2-3,3-4.5c1.6-10,0.1-20.8,0.1-30.9c0-1.7,0.7-11.4,2.3-11.4
		c-0.2,0.3-0.3,0.6-0.5,0.8"/>
	<path class="st3" d="M40.3,261.3c-1.3-0.6-2.6-1.8-4.1-1.8c0.2,4,0.4,8,0.5,12c0.6,0.1,1.3,0.1,1.9,0.2c0.5-0.4,1.1-0.7,1.6-1
		c0.4-0.6,3-7.8,3-8.4c-1.2-0.3-2.3-0.6-3.5-0.9L40.3,261.3z"/>
	<path class="st3" d="M55.9,260.7c-1,0.3-4.9,2.3-5.9,1.5c-0.2-0.1-0.5-0.1-0.7-0.2v0.7c2.2,3.5,7.1,3.3,7.1,7.6
		c-0.1,0.1-0.1,0.2-0.2,0.4c-1.2,0-5.5,3.6-5.5,5c4,0,8.3-1,12.5-1l0.3-0.3c-0.8-1.3-5.4-5.2-5.4-6.4c1.3-1.1,4.9-2.2,4.9-4.2
		c-2.4,0-3.8-3.4-6.4-3.4c-0.3,0.3-0.7,0.6-1,0.9C55.7,261,55.8,260.9,55.9,260.7"/>
	<path class="st3" d="M92.5,253.4c-1.3-0.3-3.5-0.7-4.9-0.1c0,2.7,0.5,3.1,1.9,5.2c-0.4,1.5-0.8,2.9-1.3,4.4c2.1,0,5.9-3.3,7.6-4.5
		c-0.4-1.4-0.8-2.8-1.2-4.2c0,0-2.8-0.9-2.8-0.9C92.1,253.3,92.3,253.3,92.5,253.4"/>
	<path class="st3" d="M95.4,262.9c-1.2,0.2-4.5,2.2-4.8,2.2c0,2.5,0.1,5,0.1,7.5c-0.8,0.3-1.6,0.7-2.4,1c-0.4,1.9-0.7,3.8-1.1,5.7
		c1-0.9,2-1.9,3-2.8c1.1,2.5,0.9,6.2,0.9,9c1.2,0.1,2.4,0.2,3.6,0.3c0.1-5,0.2-10.1,0.3-15.1c0.3-2.6,0.7-5.1,1-7.7
		c-0.7,0-1.4,0-2.1,0.1"/>
	<path class="st3" d="M103.6,255.8c-0.7,0.1-1.4,0.2-2.2,0.4c-0.1,5.6-0.2,11.2-0.4,16.8c1,0,3.5-0.8,4-1.6
		c-0.3-5.1-0.7-10.3-1-15.4h-0.4c-0.3,0.1-0.6,0.3-0.9,0.4C103,256.2,103.3,256,103.6,255.8"/>
	<path class="st3" d="M61.6,280.8c0.2,1.8-2.5,3.8-3.9,4.9h6.1c2.2-1.4,4.4-2.8,6.6-4.3c-0.5-0.1-0.9-0.2-1.4-0.3
		c-2.9,0.1-5.7,0.2-8.6,0.3"/>
	<path class="st3" d="M47.6,287.2c-2.7,1.7-5.4,3.4-8,5.1c-0.1,3.3-0.2,6.6-0.3,9.9c2,0,3.1-4,4.2-5.2c1.7-1.7,9.8-9.1,11.7-9.1
		c-2.9-0.2-5.7-0.4-8.6-0.6C47,287.3,47.3,287.3,47.6,287.2"/>
	<path class="st3" d="M42.7,303c-1.7,0.2-2.7,1.2-3.5,2.4c0,7.3-0.3,14.6-0.3,21.8c0,0.6,0.9,6.7,1.4,7.1c1.6-0.7,3.1-1.3,4.7-2
		c-0.3-0.7-0.6-1.5-0.9-2.2v-5.7c0.1-1.3,0.2-2.7,0.4-4c0,2.2,2.2,3.7,3.6,4.8c0,3.1,0.1,5.7,1.3,8.5c1.2,0.5,1.9-0.8,2.9-0.8
		c0.1-4.7,0.2-9.3,0.3-14c-0.2,0-0.5-0.1-0.7-0.1c-0.7,0.8-3,2.6-3,3.8h-0.4c-0.2-0.5-0.4-1-0.5-1.5c-1.4-1.1-2.9-2.2-4.3-3.3
		c0-3.8,1.8-7.9,1-11.8c-0.1-0.7-1.9-4.5-2.7-3.3C42.1,302.8,42.4,302.9,42.7,303"/>
	<path class="st3" d="M67.2,307.1c-0.8,0.2-1.6,0.4-2.3,0.6c-0.1,1-0.2,2.1-0.4,3.1l1.2,3.1c0.2,3.3,0.4,6.6,0.6,9.9
		c-1,3.9-1.4,7.4-1.4,11.3c3.1,0,3.9-1.6,6.1-3.4h7.6c1.5-1.1,0.9-5.6,0.9-7.1c0-4.5,1.7-16.8-0.8-20.6c-1.6-0.6-3.4-0.1-5.1-0.1
		c0.6,2.8,1.1,5.5,1.7,8.3c0.4,4.9-0.9,9.7-0.9,14.4c-1.5,0.3-3.1,0.5-4.6,0.8c-2.1-4.9-1.5-9.5-1.5-14.6c-0.1-1.6-0.2-3.1-0.3-4.7
		c-0.4-0.4-0.8-0.8-1.3-1.2L67.2,307.1z"/>
	<path class="st3" d="M24.2,312.9c-1.4,2.5-1,12.5-0.4,15.9c0.2,1.3-1.3,3.8,0,4.8c0.1,0,0.2,0,0.3,0.1c2-0.3,3.9-0.6,5.9-0.8
		l1.1-5.7c-0.2,0-0.5,0.1-0.7,0.1c-1.3,0.8-3.4,3.2-5.1,1.9c0-5.5-0.1-11.1-0.1-16.6c-0.7,0.1-1.3,0.3-2,0.4
		c0.2,0.1,0.5,0.1,0.7,0.2C24.1,313.1,24.1,313,24.2,312.9"/>
	<path class="st3" d="M28.4,339.6c-1.8,0.1-3.6,0.2-5.3,0.4c-0.1,0.1-0.1,0.2-0.2,0.3c-0.1,3.2-0.1,6.4-0.2,9.6
		c1.1-0.4,2.3-0.8,3.4-1.2c0-4.5-0.9-5.8,4.2-5.8v-0.8c-0.2-0.4-0.6-1.8-1.2-1.8l-1.8-0.7"/>
	<path class="st3" d="M30.6,350.7c-1-0.1-1.2-0.1-1.9,0.4c0,1.3-0.5,8.2-1.1,9.1c0,2.2,0.5,4.6,0.5,6.6l3.3-0.4
		c0.2-4.3,0.4-8.6,0.6-12.9c-0.1-1.4-0.2-2.8-0.4-4.1v-0.1c-0.6,0.5-1.3,0.9-1.9,1.4l-0.1,0.4C30,351,30.3,350.9,30.6,350.7"/>
	<path class="st3" d="M38.6,348.2c0,4-0.1,7.9-0.1,11.9c1.1,0,2.2,0,3.3,0.1v-0.8v-0.8c0-3.4-0.2-6.9-0.2-10.2
		c0-0.4-0.1-0.9-0.1-1.3l-2.5,1.1v0.6C38.8,348.6,38.7,348.4,38.6,348.2"/>
	<path class="st3" d="M40,378.4c-0.8,0.7-1.5,1.5-2.3,2.2c0.2,4.9,0.5,9.8,0.7,14.7c1.1-0.1,2.2-0.1,3.3-0.2c0.2-4,0.4-8,0.5-12
		c-0.4-1.5-0.8-2.9-1.3-4.4h-0.7c-0.2,0.2-0.4,0.5-0.5,0.7"/>
	<path class="st3" d="M40,398.2h-1.4c0,1.5,0.1,3,0.1,4.5c4.2,0,8.7,2,13.2,1.5c2.3-0.3,5.1-1.7,7.2-1.7c0-0.4,0.1-0.8,0.1-1.3
		c-2.4-0.1-4.8-0.1-7.1-0.2c-4.5-0.9-9-3.1-13.4-3.1"/>
	<path class="st3" d="M23.2,390.9l-0.6,11.8c1.8-0.2,3.7-0.3,5.5-0.5c0-0.2,0.1-0.4,0.1-0.6c-3.4-2.7-3.8-8.6-3.8-12.7
		c-0.4,0.1-0.8,0.2-1.3,0.3c-0.2,0.3-0.8,2-0.4,2C22.9,391.1,23.1,391,23.2,390.9"/>
	<path class="st3" d="M50.4,365.5c0.1-0.5,0.2-0.9,0.3-1.4c0,4.5,0.8,9.5,0.8,14.3c1.4-0.1,2.9-0.3,4.3-0.4c1.3-2,7.1-2.8,7.1-4.3
		c-9.4,0-10.5-6.1-10.5-14.1c-2.5,0-1.6,4.5-1.6,6.2C50.7,365.7,50.6,365.6,50.4,365.5"/>
	<path class="st3" d="M86.7,340.3c-0.8,2-1.1,5.8-1.1,8.1c3.1-2.4,5.9-5.1,9-7.5c-2.4,0-5.4-0.4-8-0.4
		C86.6,340.4,86.6,340.4,86.7,340.3"/>
	<path class="st3" d="M77.4,356.3c-1,0.7-1.9,1.4-2.9,2.1v7.6c1.6-0.1,3.2-0.2,4.8-0.4c0-2.8-0.5-6.2-0.5-8.6
		c-0.5-0.1-1.1-0.1-1.6-0.2c0-0.4,0.7-0.4,0.4-0.1C77.5,356.6,77.5,356.4,77.4,356.3"/>
	<path class="st3" d="M78.2,368.1c-0.6,0.1-1.1,0.3-1.7,0.4c-0.2,0.2-0.4,0.4-0.6,0.6c-0.2,3.1-0.4,6.3-0.5,9.4c1.3,0,2.7-0.1,4-0.1
		l0.4-9.2c-0.4,0-1.4-0.8-1.4-1.3l-0.3,0.7C78,368.4,78.1,368.2,78.2,368.1"/>
	<path class="st3" d="M95,288.7c-1.8,0.5-3.4,1.5-4.8,2.6c-0.2,2.9-0.4,5.9-0.5,8.8c-0.4,0-1.8,1.4-1.8,2c1.8,0.7,4.4-0.1,6.4-0.1
		c0-4.4,1.4-9.5,1.4-13.4c-0.2,0-0.4-0.1-0.6-0.1V288.7z"/>
	<path class="st3" d="M104.2,289.5l-1.8,1.7c-1,1.6-1.3,12.3-1.3,15c1.3,0.1,2.5,0.3,3.8,0.4c0.6-0.7,1.8-16.8,0.7-17.5
		c-0.4,0-0.8,0-1.3,0.1c-0.1,0.2-0.2,0.3-0.4,0.5C104.1,289.6,104.1,289.6,104.2,289.5"/>
	<path class="st3" d="M119.9,281.8c-2.4,1.9-4.8,4-7.1,5.8c3.6,0,7.5-1.3,11.4-1.3c0.8-1.1,1.5-2.2,2.3-3.4l-6.3-1.7
		c-0.5,0.3-1,0.7-1.5,1"/>
	<path class="st3" d="M131.6,262c-1.8-0.4-2,0.7-3.2,1.5c-0.1,4.2-0.1,8.4-0.2,12.6c1.4,0,2.8-0.1,4.2-0.1c0-1.6,0-13-0.6-13.6
		c-0.2,0-0.3,0-0.5-0.1C131.5,262.2,131.6,262.1,131.6,262"/>
	<path class="st3" d="M131.3,281.2c-1.5,1.3-3,2.5-4.4,3.8c-0.4,0.7-0.8,1.4-1.2,2.1c0,1.9,2.1,2.4,3.6,2.4c0.8-0.6,6.8-6.3,6.8-7.1
		c-1.8-1.4-2.1-2.5-4.6-2.5c-0.2,0.1-0.4,0.2-0.5,0.3"/>
	<path class="st3" d="M95.7,361.2c-3,1.7-1.7,4.1-1.7,7c0.6,0,3.5-0.1,3.5-0.8c0.1-1.9,0.1-3.9,0.2-5.8c-0.6-0.1-1.3-0.1-1.9-0.2
		c-0.1,0.1-0.2,0.2-0.3,0.4C95.6,361.6,95.6,361.4,95.7,361.2"/>
	<path class="st3" d="M96.6,371.3c-0.8,0.1-2,1-2.4,1v6.4c0.8,0,2.1-0.1,3-0.1c0-2.3,0.2-4.9,0.2-7.2h-0.7c-0.1,0-0.1,0-0.2,0.1
		c-0.2,0.3-0.4,0.6-0.6,0.9"/>
	<path class="st3" d="M85.5,394.9c0.1,2.2,0.2,4.3,0.3,6.5c0.8,0,1.7,1.4,2.7,1.5c3.1-0.4,6.3-0.8,9.4-1.2c0-2.4-0.7-4.9-0.7-7.1
		c-0.8,0-4.8,8.6-7.8,3.9l-0.4-4.1c-1-0.1-2-0.2-3-0.3c-0.1,0.5-0.2,1.1-0.4,1.6"/>
	<path class="st3" d="M123.3,297.8c-0.7,0.2-2.9,1-3.5,1c0,6,1.3,12.2,0.5,18.2c-0.6,4.2-1.8,9.4-1.8,13.5c2.1,0.8,3.5,3.3,6.3,3.3
		c0-2.6,0.1-5.2,0.1-7.8c0-2.9-0.1-5.7-0.1-8.6c0.1-3.8,0.2-7.6,0.4-11.5c0-1.8,0.3-7.8-1.6-8.5c-0.3,0-0.7,0-1-0.1
		c-0.2,0.1-0.3,0.2-0.5,0.4"/>
	<path class="st3" d="M148.3,307c0.2-0.6,0.4-1.3,0.6-1.9c-1,0.2-2,0.4-3,0.6c0,6-0.7,12.3-0.7,18.2c1.6-0.3,3.2-0.6,4.8-0.9
		c0-4.5,0.8-8.8,0.8-13.2c0-0.5,0.4-3.9-0.4-3.9c0-0.6-2.8-0.9-3.3-0.7"/>
	<path class="st3" d="M160.9,252.1c-1.7,0.5-3.3,1.1-5,1.6c0,2.8,1,3.2,3.3,3.2c2.3-1.1,7.2-0.6,8.9-1.8c0.1-0.8,0.2-1.6,0.3-2.4
		c-2.8-0.3-5.5-0.6-8.3-0.8C160.3,251.9,160.6,252,160.9,252.1"/>
	<path class="st3" d="M149.4,266.7c-1.5-0.4-1.7,0.2-2.8,0.2c-0.2,0.5-0.4,1-0.6,1.5c-0.4,2.4-0.3,5.6-0.3,8.2
		c1.2-0.4,2.3-0.8,3.5-1.2c0-3,2.1-5.8,2.1-8.5c-1.1-0.1-2.1-0.2-3.2-0.3"/>
	<path class="st3" d="M165.9,261.3c-0.8,0.1-2,0.1-2,1.1c-0.4,1.7-0.4,11.5,0.7,12.4c1.3,0,2.5,0,3.5-0.8v-13.1l-3-0.1
		C165.4,260.9,165.6,261.1,165.9,261.3"/>
	<path class="st3" d="M145.5,281.2c-1-0.1-2.6-0.1-3.4,0.6c-0.8,0.6-0.6,1.9-0.4,2.7c1.6,0.9,3.9,0.6,5.7,0.6c0.8-0.7,1.6-1.3,2.4-2
		c0.1-0.3,0.1-0.7,0.2-1c-0.2-0.1-0.5-0.2-0.7-0.3H146c-0.4-0.3-0.7-0.6-1.1-0.9c-0.1,0.3-0.3,0.6-0.5,0.9"/>
	<path class="st3" d="M134.7,354.2c-1.9,1.1-7.9,4.2-7.9,6.7c0.2,0.2,2.3,2.1,2.3,2.1c0.9-0.9,1.7-1.8,2.6-2.7
		c3.4-1.2,6.8-2.4,10.2-3.6c0.5-0.4,4.4-1.8,3.7-2.9c-2.1-0.8-10.7-0.8-12.4,0.5"/>
	<path class="st3" d="M147.8,370c-3.2,1.7-6.2,2.7-8.9,4.8c0,0.3-0.1,0.6-0.1,0.8c3.7,2.8,6.2,0.9,10-1.5c1.1-0.7,2.4-0.7,3.2-1.9
		c0.1-0.4,0.2-0.7,0.3-1.1c0-0.6-4.1-1-5.4-1C147.2,370.1,147.5,370,147.8,370"/>
	<path class="st3" d="M154.7,373.3c-1,0.6-4.8,1.6-4.8,2.8c2.4,0,4.9,1.4,7.3,1.4c1.3-1-0.1-2.5-0.1-3.6c-0.4-0.2-0.7-0.5-1.1-0.7
		c-0.7,0.1-1.4,0.2-2.1,0.3C154.2,373.5,154.4,373.4,154.7,373.3"/>
	<path class="st3" d="M143.7,384.3c-0.6,3.1-1.1,6.3-1.7,9.4c-0.3,2,0.8,3.5,0.8,5c0.2,0,0.5,0.1,0.7,0.1c1-0.8,2.3-1.1,3.3-1.9
		c0-2.5,0.1-4.9,0.1-7.4c1-1.2,2.8-2.7,2.8-4.3c-0.2-0.2-0.5-0.3-0.7-0.5c-1.8,0-3.7,0-5.5-0.1C143.5,384.6,143.6,384.4,143.7,384.3
		"/>
	<path class="st3" d="M177.5,351.9c1.7-1.9,4.2-3.9,4.2-6.6c-0.8,0.2-1.5,0.5-2.3,0.7c-2.2-0.4-4.3-1.5-6.7-1
		c-0.9,0.3-1.9,0.5-2.8,0.8c-1.7,1.3,1.2,7.8,1.2,10.1c0,1.4,0.1,6.5-1.1,7.4c0,8-0.6,16.9,2.5,24.1c0.7-0.3,1.4-0.6,2.2-0.8
		c0.9-2.1,0-5.2,0-7.6c0-4.9,1.5-9.7,1.5-14.5c0.2-0.3,3.5-7.5,3.5-7.6c0.5,0,4.7-4.2,4.7-4.8c0-1.1-1.4-1.4-2.3-1.4
		c-1.4,0.7-2.9,3.1-4.6,3.1c0.1-0.8,0.2-1.7,0.3-2.5c-0.5,0-0.9,0.1-1.4,0.1C176.9,351.7,177.2,351.8,177.5,351.9"/>
	<path class="st3" d="M164.8,280.4c-2.1,0-4.2-0.1-6.3-0.1c-1.1,1.6-5.7,4-5.7,6.2c1.2,1.1,2.3,2.2,3.5,3.4h0.4
		c0.7-1.3,1.4-2.6,2.1-3.9c2.5-3.2,6.1-2.9,9.9-2.9v-1c-0.2-0.6-0.4-1.2-0.5-1.7c-1.3-0.1-2.7-0.3-4-0.4
		C164.4,280,164.6,280.2,164.8,280.4"/>
	<path class="st3" d="M179,279.9c-1,0.2-7.6,4.1-7.6,4.3c-0.1,1.1-0.2,2.2-0.3,3.4c1.9-0.3,3.8-0.7,5.7-1c2.3,0,4.6,0,6.9,0.1
		c0.4-0.3,0.4-0.7,0.4-1.3c-0.9-1.8-3.5-5.7-5.4-5.7c-0.1,0-0.1,0.1-0.2,0.1C178.6,279.8,178.8,279.9,179,279.9"/>
	<path class="st3" d="M175.6,296.2c-2,0.5-4.2,2.3-5.9,3.6v1.1c0.9,0.6,1.9,1.2,2.8,1.7l-1.2,7.1c0.7,0.3,1.4,0.6,2.1,0.8
		c1.1,2.6-1,6.5-1.4,9v6.4c0,0.7,0,4.8,0.6,4.8c1,0.8,2.8-0.8,3.9-0.8c0.1-4.7,0.2-9.4,0.4-14.1c0.2-2.2,0.3-4.4,0.5-6.6
		c-0.8-4.4-1.6-8.8-2.3-13.2c-0.1,0-0.3,0.1-0.5,0.1"/>
	<path class="st3" d="M191.5,251.3c0.3-0.1,0.7-0.2,1-0.3c-1.8,1.2-3.6,2.4-5.3,3.6c0,2.5,4.3,6.4,4.8,9.3c0.7,3.9-2.3,7.7-2.3,11.6
		c0,7.6-0.2,15.1-0.2,22.7c-0.1,5.3-0.1,10.7-0.2,16c-0.5,4.6-0.2,9.3,0.3,13.7c0.1,0.6,0.3,4.4,0.7,4.4c0.7,0.1,1.4,0.3,2.2,0.4
		c0.5-8.4,0.9-16.7,1.4-25.1c0-11.7-1.1-23.7,1.4-35.1c0-1.2,0.1-2.4,0.1-3.6c0.6-2.8-0.5-18.2-3.2-18.2c-0.3,0.1-0.6,0.1-0.9,0.2
		C191.4,251.1,191.5,251.2,191.5,251.3"/>
	<path class="st3" d="M203.5,253.6c-0.6,0.2-1.2,0.4-1.8,0.6c0,5.1-0.7,10.1-1.2,15.2c-0.7,7.9,1,16.4-0.6,24.2
		c0.2,2.6,0.3,5.3,0.5,7.9c0.4,0.5,0.7,1.1,1.1,1.6c0.6-1.1,1.1-2.2,1.7-3.4c0.1-0.1,0.2-0.2,0.3-0.3c0.1-0.1,0.2-0.3,0.3-0.4
		c0.1-0.2,0.2-0.4,0.4-0.6c0,0,7.4-6.9,4.9-7.9c-0.1-0.2-0.1-0.3-0.2-0.5c-1.2,0.7-2.3,1.4-3.5,2.1c-0.1-1.8-0.1-3.6-0.2-5.4
		c0-4.7,0.1-9.4,0.1-14.1c0.4,0,0.9,2.5,3.1,2.5c0.2-0.2,0.4-0.4,0.6-0.6c0-3.5-0.1-7.1-0.1-10.6c-1.2,0-2.5,0-3.7,0.1
		c0-1-0.1-1.9-0.1-2.9c2,0,2.7-2.7,2.7-4.1c-0.6-1.8-1-2.4-2.4-3.5c-0.6,0-2.8-0.4-2.8,0.7"/>
	<path class="st3" d="M199.5,308.7c1.5,2.3,1.6,7,1.1,9.8v1c0.1,0.1,0.1,0.1,0.2,0.2c1-0.5,2-1,3.1-1.5c0-5.7,5.5-4.6,5.5-8
		c-1.1,0-1.4-1.2-2.3-1.3c-2.6-0.4-4.6-0.1-7.1-0.1c-0.4,0-0.9,0.2-0.9-0.3C199.1,308.6,199.3,308.7,199.5,308.7"/>
	<path class="st3" d="M199.4,321.6c-0.1,3.7-0.2,7.3-0.3,11c1.8,0.7,3.5-0.6,5-0.6c0-3.2-0.4-6.7-0.4-9.8c-0.8,0-4.5,0.5-4.5,0.2
		C199.3,322.2,199.3,321.9,199.4,321.6"/>
	<path class="st3" d="M198.2,340.4c-0.1,1.8-0.2,3.6-0.3,5.4c1.5,0,3-0.1,4.4-0.1c0.6,0.3,1.1,0.5,1.7,0.8c0,4.2-4,7.9-4,12
		c-1.3,1-2.4,4-2.4,5.6c1.5-1.4,3.1-2.7,4.6-4.1c0.6,0.1,1.3,0.3,1.9,0.4c-0.1,2.9-0.1,5.9-0.2,8.8c-0.2,0.8-0.4,1.6-0.6,2.4
		c1.2-0.3,1.9-1.7,3.3-1.7c0.2,0.2,0.3,0.3,0.5,0.5c0,3.6-4.9,4.8-4.9,8c0.8,0.1,1.6,0.3,2.3,0.4c0.8,0.8,1.7,1.5,2.5,2.3v0.7
		c-1.3,1.4-2.5,2.8-3.8,4.3c0,1.1,1.6,2.9,2.3,3.9c0,3.2-0.3,6.6-0.3,9.6c-0.6-0.2-1.1-0.3-1.7-0.5c-1.6,1-3.2,1.9-4.8,2.9v0.3
		c4,0,8,0.1,12,0.1c0-3.1-0.6-6.3-1.1-9.4c-0.1-12.3-0.2-24.6-0.3-36.8c0-4.6,1.5-13.6-2.3-16.5c-2.8,0-5.7-0.3-8.6-0.3
		c-0.3,0.3-0.7,2.4-0.3,1.5L198.2,340.4C198.3,340.4,198.3,340.4,198.2,340.4"/>
	<path class="st3" d="M181.2,365.3c0.5,7.6,0.8,15.1,0.8,22.7c0.5,0,2.8-1.4,2.8-0.9c0-7.9-0.6-15.6-0.6-23.4c-1,0-2.7,2.1-3.5,2.7"
		/>
	<path class="st3" d="M182.4,389.3c-0.2,2.2-1.5,8.9-0.6,10.6c0.1,0.1,0.2,0.3,0.4,0.4c0.3-0.8,1.8-1.4,2.6-1.4
		c0-2.7,0.1-5.4,0.1-8.1c-0.2-0.8-0.4-1.6-0.6-2.4c-0.3,0.4-1.6,0.9-1.6,0.9c-0.1,0.4-0.2,0.7-0.4,1.1"/>
	<path class="st3" d="M216.9,259.4c-0.3,0.2-0.7,0.4-1,0.6l0.5-0.5c-1.1,1-2.1,2-3.2,3c2.3,0,2.8,4.3,2.8,5.9h0.4
		c0.7-1.1,4.5-3.8,4.5-3.8v-0.1c-1.8-1.4-4.8-3.1-4.8-5.4C216.4,259.2,216.7,259.3,216.9,259.4"/>
	<path class="st3" d="M241.2,249.6c-0.6,0.2-11,0.6-11,1.7c-0.4,1-0.7,2-1.1,3c0.2,0.1,0.3,0.3,0.5,0.4c2.4,0.9,4.4-1.6,7-1.3
		c1.9,0.2,2.9,2.5,4.7,2.5c1-1.1,3.6-2.1,3.6-3.5c-0.8-0.6-1.9-2.3-2.8-2.6c-0.8,0-1.4-0.3-2.1,0.2"/>
	<path class="st3" d="M237.3,260.4c-2.1,0.7-4.3,1.5-6.4,2.2c-0.5-0.4-1.2-0.5-1.2-1.2c-0.7-0.6-2.2,0-2.4,0.7v0.7
		c1.7,1,3.4,2.1,5.1,3.1c1.8,1.4,3.2,4.9,5.5,4.9c2.1-1.9,4.3-3.9,6.4-5.8v-0.1c-2.6-3.9-4.6-4.3-8.8-4.3"/>
	<path class="st3" d="M225.1,272.4c-1,0.7-4.5,2.3-3.8,3.8c3.6,1.9,9-0.1,12.9-0.1C234.3,273.4,226.2,273.2,225.1,272.4l-1.1-0.1"/>
	<path class="st3" d="M220.2,305.8l-3,2.5c-1,1.1-1.3,9.1-1.3,11c0,1.4-0.2,5.1,1.3,5.7c1.4,0,3.4-0.1,4.4-0.9
		c0-5.3,0.8-10.4,0.8-15.7c-0.3-0.7-0.5-1.3-0.8-2c-0.8-0.1-1.6-0.2-2.4-0.3c-0.5,0.4-0.9,0.7-1.4,1.1"/>
	<path class="st3" d="M217.4,345.1c-0.3,3.5-1.4,7.2-1.4,10.6c1.2,0,3,0.5,4-0.3v-0.6c0-3.2,0.4-6.2,0.4-9.4
		c-0.5-0.4-3.2-0.6-3.5-0.1C217,345.3,217.2,345.2,217.4,345.1"/>
	<path class="st3" d="M217.8,360.5c-0.4,3.3-2.7,6.5-2.7,9.7c1.9,0,3-1.3,4.7-1.3c0.2-3.4,0.4-6.9,0.5-10.3c-0.2,0-0.3,0-0.5-0.1
		c-1,0.7-1.5,1.4-2.3,2C217.7,360.6,217.7,360.6,217.8,360.5"/>
	<path class="st3" d="M219.9,372.7c-1.3-0.4-1.3-0.6-2.2,0.1c-0.3,2.3-0.7,4.5-1,6.8c-0.1,3.6-0.1,7.1-0.2,10.7
		c0.1,1.7,0.1,3.4,0.2,5.2c0,1.3-0.3,5.4,0.7,6.2c0.5,0.3,1,0.5,1.5,0.8c1.4,0.2,3.9-0.3,4.9-1c-1.7,0-1.4-5.5-1.5-6.7
		c-0.8-7.4-1.4-14.7-1.4-22.2h-0.5c-0.5,0.2-1,0.5-1.4,0.7C219.3,373.1,219.6,372.9,219.9,372.7"/>
	<path class="st3" d="M227.2,399.8c0,0.2-0.9,3-0.3,3c6.3,0,12.3,1.5,18.7,0.8c2.5-0.2,4.9-0.3,7.4-0.5c-0.1-0.7-0.2-1.5-0.3-2.2
		c-3.5,0-7.4-0.4-10.8-1.1c-5.1-0.1-10.3-0.2-15.4-0.3C226.7,399.5,227,399.6,227.2,399.8"/>
	<path class="st3" d="M264.5,393.5c-0.6,2.3-1.7,7.5-1.7,10.1c0.1,0,0.1,0.1,0.2,0.1c1.4,0,11.5,1,12.1,0c0-0.8-0.3-1.8-0.3-2.8
		c-3,0-7-1.1-7-4.1c0.1-1.4,0.3-2.8,0.5-4.1c-0.5-0.4-4-0.6-4-0.1C264.4,392.9,264.4,393.2,264.5,393.5"/>
	<path class="st3" d="M240,371.3c-1.7,0.3-10,1-10.8,2.3c-0.3,1.3-0.5,2.7-0.8,4c1.3,0,1.9-0.7,3.1-1c3.1-0.7,8.4,0,11-2
		c0.4-0.6,0.4-1,0.4-1.7c-0.6-0.2-1-1.1-1-1.5c-0.6,0-1.7,0.3-2.4,0.3c0.2-0.1,0.3-0.3,0.5-0.4C239.9,371.2,239.9,371.3,240,371.3"
		/>
	<path class="st3" d="M253.5,348.1c-0.7,0.1-4.8,1.9-4.8,2.6c-1.7,0.1-3.4,0.2-5.1,0.4c-0.2,0.1-0.3,0.1-0.5,0.2
		c-0.5,0.3-1,0.6-1.5,0.8c0,0.2-0.1,0.3-0.1,0.5c0.2,0.6,0.4,1.2,0.5,1.7c-0.5,0.9-0.7,1.5-0.7,2.5c0.5,0.7,0.9,1.4,1.4,2.1
		c2.5,0,14.8-2.9,16.3-5.2c0.6-1.3-0.2-5.3-0.9-6.4c-0.8-0.6-6.2,0.4-6.2,0.4"/>
	<path class="st3" d="M255.7,361c-2.4-0.7-7.5,2.5-7.5,5.2c2.1,0.4,4.1,0.8,6.2,0.8c0.7,0,3.5-3.6,3.5-4.5c-1.1-0.8-0.7-0.6-0.7-1.8
		c0-0.8-4.2,0.3-2.9-0.7"/>
	<path class="st3" d="M264.7,357.7c1.3,4.8,0.4,9.7,0.4,14.3c0.9,0,2.2-0.1,2.9-0.6c-0.2-4.8-0.4-9.5-0.5-14.3
		c-0.5-0.1-0.9-0.2-1.4-0.3c-0.7,0.2-1.3,0.4-2,0.6C264.3,357.6,264.5,357.6,264.7,357.7"/>
	<path class="st3" d="M265,340c0.5,2.9,1,5.7,1.4,8.6c0.6-0.9,1.1-1.7,1.7-2.6c2-1.7,5.9-1.5,5.9-4.9c-0.9-0.7-2-0.7-3.1-0.7
		c-1.9-2.2-5.2-0.1-7-0.1"/>
	<path class="st3" d="M266.8,316.5c-1,0.2-1.1,0.1-1.7,0.7c-0.6,1.3-1.1,13.5-0.1,14.3c1.2,0,2.3-0.8,3.2-1.5c0-2.8,0.1-5.7,0.1-8.5
		c0.3-1.3,0.5-2.6,0.8-3.9c-0.5-0.4-0.9-0.7-1.4-1.1c-1.1,0-2,1-2.9,1"/>
	<path class="st3" d="M265.7,309.1c0.3-0.4,0.5-0.7,0.8-1.1c1.3,1,0.2,2.6,2.1,3.3c1.7,0,3.4-0.2,5-0.2c0.6-0.5,1.4-1.2,1.4-2
		c-1.7-1.3-4-2.2-6.2-2c-1.7,0.2-2.8,1.5-2.8,1.5C265.8,308.8,265.8,308.9,265.7,309.1"/>
	<path class="st3" d="M268,252.8c0.9-2.4-2.9,0.7-3.8,1.3c-0.6,0.9-0.6,2-0.6,3.1c1.7,0.3,6.1-0.4,7.4-1.5c0.7-1,0.7-2.4,0-3.4
		c-0.8-0.1-1.6-0.3-2.4-0.4C268.3,252.2,268.2,252.5,268,252.8"/>
	<path class="st3" d="M256.9,263.8c-1.2-0.1-2.4-0.1-3.6-0.2c0,1.9,0,6,2.3,6.9h0.9c1-0.8,2-1.7,3-2.5c0.1-0.8,0.1-1.7,0.2-2.5
		c-1.5-0.6-4.1-2.3-5.6-1.1"/>
	<path class="st3" d="M269.9,259.5c-1.5,1.1-3,2.3-4.4,3.4v0.3c0.6,1,2.6,0.2,3.4,0.2c-0.2,3.9-0.4,7.7-0.6,11.6
		c-1-0.1-1.9-0.2-2.9-0.3c0,6-1,12.2-1,18.3c2.5,1.9,6.2,5.2,6.2,8.6v-0.6c0.5-1.4,1-2.8,1.4-4.3c0.8-3.3,1.1-5.7,1.1-9.2
		c0-9.6-1.4-19.4-1.4-28.9c-0.8,0.1-1.6,0.1-2.3,0.2C269.6,259.2,269.7,259.4,269.9,259.5"/>
	<path class="st3" d="M239.7,280.3c-1.2,1-3.1,2.4-3.1,4c0.1,0.1,10.4-0.1,12.4-0.1c0.1-1.1,0.1-2.3,0.2-3.4
		c-2.7-2.1-7.6-0.6-10.8-0.6"/>
	<path class="st3" d="M225.1,282c-3.3-0.4-6.7-0.8-10-1.3c0,0-1.2,5.6-1.2,6c5.9,0,12.1-0.1,17.9-0.1c0.1-1.5,0.2-3,0.4-4.5
		c-2.7,0-5.4-1.1-7.9-1.1c-0.2,0.2-0.4,0.4-0.5,0.6"/>
	<path class="st3" d="M228.9,310.7c-0.9,5.6-1,11.6-1,17.3c1-0.5,2-1,3.1-1.5c0-5,0.5-10.2,0.5-15.1c-0.6,0-0.3-0.4-0.6-0.8
		c-0.9,0.1-1.9,0.1-2.8,0.2H228.9z"/>
	<path class="st3" d="M237.5,296.3c-2.5,2.1-4.6,2.6-1.3,4.6c0.7,0.7,1.3,1.4,2,2.2c1.1,0,2.2-0.1,3.3-0.1c0-0.7,3-5.4,4.1-5.4
		c-1.4-1.1-8.9-0.3-8.9-1.2C237,296.3,237.3,296.3,237.5,296.3"/>
	<path class="st3" d="M247.5,303.7c-1.2,1.7-1.7,5.4-3.3,6.6c1.1,0,7,0.1,7,0.8c0-1.7,0.7-6.1-0.3-7.4c-0.7-0.4-4.3-0.1-4.3,0.5
		L247.5,303.7z"/>
	<path class="st4" d="M113.1,177.5L86.6,68c0,0-2.5-6.9-10.2-8.5c0,0-12.2-1.5-22.5-1.4c0,0-7.5,0.2-7.1,3.2
		c0.4,2.8,12.8,55.8,12.8,55.8L73,173.1l9.4,41.1c0,0,4.1,13.3,11.9,20.7c0,0,5.7,2.9,13.2,4.5c7.5,1.6,15.4,3.2,15.4,3.2
		s3.7,0.1,4.2-2.4c0.5-2.4,7.3-22.4,10.6-29.3c3.5-7.4,3.8-9.7,7.4-10.8c0,0,2.9-1,5.3,0.7c0,0,2.3,4.8,5.7,11.3
		c3.5,6.8,8.6,25.4,8.6,25.4s0.6,3.9,6,3.2c5.4-0.7,21-2,30.8-13.8c0,0,4-4,9.1-22.9c5.2-19.3,18.7-71.9,18.7-71.9l14-54.2l3.7-14.4
		c0,0,0.9-3.4-3-3.6c-3.9-0.2-13.3-0.7-19.4-0.2c-6.1,0.4-15.1,2.3-17.8,12.1c-2.5,9.2-18.2,71.1-18.2,71.1l-9.2,37.7
		c0,0-0.3,1.1-1.5-2.2c-1.2-3.3-3.1-9.7-5.4-12.2c-2-2.1-7.5-5.6-13.9-7c-7.5-1.7-16.9-2.5-26.6,0.5c0,0-6.7,1.4-13,9.8
		c0,0-3.5,6.6-4.1,7.9C114.4,178.5,113.4,178.7,113.1,177.5"/>
	<path class="st4" d="M329.8,59c0,0-27.9,0.9-33.6,1.9c0,0-4.5,0.5-4.6,6.7c-0.1,6.2-0.2,164.4-0.2,164.4s-0.5,9,8.2,9.4
		c8.7,0.4,21.8,0.5,35,0.5c13.3,0,43.3,0.1,54.2-0.2c11-0.4,16.4-0.4,21.1-2.4c0,0,4.9-1.7,10.6-10.8c0,0,2.8-5,3.1-7.9
		c0.4-2.9,0.3-6.4-1.9-7.2c-2.2-0.8-4.4-0.7-7.7-0.7c-3.2,0-25.7,0.8-39.8,1c-14.1,0.2-44.4,0.5-48.5,0.5c0,0-2.5-0.8-2.6-2.9
		s0-46.1,0-46.1s-0.3-1.8,2.9-1.9c3.2-0.1,58.8,0.4,63.6,0c4.8-0.4,11.1-1.2,13.4-3.6c2.4-2.4,8.4-10.9,8.9-15.1
		c0.5-4.2,0.9-9-4.8-9.1c-5.7-0.2-82.8-0.2-82.8-0.2s-1.2-0.1-1.2-1.9c0-1.8,0-43.2,0-43.2s0.5-2.5,2.6-2.6s15.3-0.7,44.2-0.2
		c28.9,0.5,43.6,1.2,45.6,0.5c2-0.7,5.9-2.8,4.3-8.4c-1.5-5.6-4.9-16.8-12.7-19c0,0-6.2-1.2-20.4-1.4
		C372.5,58.6,336.1,58.7,329.8,59"/>
	<path class="st4" d="M498.7,121.7l-0.5-53.3c0,0,0.3-8.5-9.6-8.9c-9.9-0.4-14.1-0.4-15.8-0.2c-1.8,0.2-5.5,0.6-5.5,5.8
		c0,5.1,0,31.4,0,31.4v65.8v74.2c0,0,0.4,4.6,3.4,4.8c2.9,0.2,16.2,0.6,19.9-0.2c3.8-0.8,7.4-2.5,7.7-8.4c0.3-5.9,0.2-32.4,0.2-32.4
		l0.2-33.1c0,0,0-3.5,4.1-3.6c4.1-0.1,75.4-0.2,75.4-0.2s5.5-0.7,5.8,4.3c0.3,5,0.1,15.3,0.2,21.4c0.1,6-0.2,41.2,0.2,44.2
		c0.5,3,1.6,7.7,7,8.2c5.3,0.4,15.3,0.7,18,0.2c2.7-0.4,5.8-0.7,5.8-5.5c0-4.8,0-58.3,0-58.3v-42.7v-33.1V71c0,0,0.4-6.9-0.2-8.4
		c-0.6-1.5-1-2.8-3.8-3.1c-2.8-0.3-15.3-0.4-18.2,0c-2.9,0.4-8.7,1.3-8.6,11c0.1,9.7,0,59,0,59s0.2,5.5-4.8,5.5c-5,0-76.1,0-76.1,0
		s-4.8,0.3-4.8-3.8C498.5,127.2,498.7,121.7,498.7,121.7"/>
	<path class="st4" d="M731.5,87.8c0,0,18.8-3.8,42.5-1.7c23.7,2.1,32,3.1,34.6,2.4c0,0,4-2.9,2.6-7.9c-1.4-5-4.2-14.1-13.9-19
		c0,0-7.6-3-21.4-3.6c-13.7-0.6-34.3-2.1-61.7,4.1c0,0-20.9,4-32.4,21.8c0,0-10.5,14.5-13.9,33.4c-2.1,11.8-3.5,36.1-2.2,51.4
		c1.4,15.2,3.8,28.5,8.9,40.3c0,0,4.2,11.6,15.4,20.6c0,0,12.1,8.2,24.7,10.6c12.7,2.3,28,4.1,44.6,3.1c16.6-1,30.4-1.5,39.6-6.2
		c0,0,3.7-1.8,5.8-5c2.1-3.2,6-9.5,6.5-13.4c0.4-4-0.3-7.8-2.9-7.9c-2.5-0.1-8.5,0.3-14.9,1.2c-6.4,0.9-28.8,3.1-43.4,2.4
		c-14.6-0.7-32.4-2.7-40.1-10.6c0,0-7.6-5.8-9.8-21.4c-2.2-15.6-3.8-37.2-1.9-49.4c1.9-12.3,4.9-25.1,9.4-31
		c4.4-5.8,8.7-9.6,14.2-11.5C727.2,88.6,730.3,88.2,731.5,87.8"/>
</g>
</svg>
