<?xml version="1.0" encoding="UTF-8"?>
<!DOCTYPE svg PUBLIC "-//W3C//DTD SVG 1.1//EN" "http://www.w3.org/Graphics/SVG/1.1/DTD/svg11.dtd">
<svg xmlns="http://www.w3.org/2000/svg" version="1.1" width="2310px" height="1589px" style="shape-rendering:geometricPrecision; text-rendering:geometricPrecision; image-rendering:optimizeQuality; fill-rule:evenodd; clip-rule:evenodd" xmlns:xlink="http://www.w3.org/1999/xlink">
<g><path style="opacity:0.995" fill="#a1bf8c" d="M 192.5,325.5 C 179.502,327.125 166.168,328.292 152.5,329C 149.613,330.709 148.279,333.209 148.5,336.5C 149.357,343.232 150.523,349.898 152,356.5C 156.176,370.037 160.176,383.704 164,397.5C 168.677,417.638 173.677,437.638 179,457.5C 179.84,464.654 181.007,471.654 182.5,478.5C 177.665,481.752 172.665,484.752 167.5,487.5C 161.989,486.078 156.989,483.578 152.5,480C 148.262,479.581 145.762,481.415 145,485.5C 149.817,489.983 154.651,494.483 159.5,499C 161.289,499.52 162.956,499.187 164.5,498C 167.888,495.469 170.221,492.302 171.5,488.5C 176.07,487.87 180.404,486.537 184.5,484.5C 189.172,504.181 194.338,523.848 200,543.5C 200.499,547.152 200.665,550.818 200.5,554.5C 201.5,554.5 202.5,554.5 203.5,554.5C 206.782,570.848 210.282,587.181 214,603.5C 216.126,610.968 218.459,618.301 221,625.5C 224.767,645.367 229.267,665.034 234.5,684.5C 234.104,687.482 234.771,690.149 236.5,692.5C 235.875,695.612 235.541,698.779 235.5,702C 236.131,714.161 236.631,726.328 237,738.5C 237.739,739.574 238.739,740.241 240,740.5C 241.879,738.987 244.046,738.321 246.5,738.5C 246.851,736.131 247.018,733.797 247,731.5C 244.145,728.645 241.312,725.812 238.5,723C 239.554,717.832 241.388,712.999 244,708.5C 244.383,709.056 244.883,709.389 245.5,709.5C 250.774,718.663 258.108,725.829 267.5,731C 282.12,735.187 296.954,738.687 312,741.5C 316.972,739.671 322.139,739.005 327.5,739.5C 327.173,734.786 327.507,730.12 328.5,725.5C 329.086,725.291 329.586,724.957 330,724.5C 333.888,713.058 336.888,701.392 339,689.5C 342.406,682.22 344.74,674.554 346,666.5C 349.35,655.322 356.85,650.322 368.5,651.5C 377.27,650.398 384.104,653.398 389,660.5C 389.576,664.488 390.909,668.155 393,671.5C 393.495,673.473 393.662,675.473 393.5,677.5C 392.504,677.586 391.671,677.252 391,676.5C 388.901,671.581 385.734,667.414 381.5,664C 375.233,661.515 368.9,659.182 362.5,657C 355.619,656.025 353.619,658.525 356.5,664.5C 355.453,666.056 354.786,667.723 354.5,669.5C 356.594,668.758 358.761,668.091 361,667.5C 367.561,669.433 374.061,671.6 380.5,674C 383.908,676.68 386.908,679.847 389.5,683.5C 391.516,684.694 393.516,684.694 395.5,683.5C 399.584,696.904 402.917,710.57 405.5,724.5C 407.167,724.5 408.833,724.5 410.5,724.5C 410.5,729.833 410.5,735.167 410.5,740.5C 419.178,740.416 427.845,740.083 436.5,739.5C 435.586,742.728 435.253,746.061 435.5,749.5C 434.325,749.281 433.325,749.614 432.5,750.5C 438.442,752.112 444.108,751.445 449.5,748.5C 450.941,743.507 452.275,738.507 453.5,733.5C 465.918,728.596 476.918,721.429 486.5,712C 498.455,691.144 506.288,668.644 510,644.5C 513.487,630.269 517.82,616.269 523,602.5C 524.745,590.856 527.745,579.523 532,568.5C 532.573,564.152 533.24,559.819 534,555.5C 540.626,535.37 546.293,515.037 551,494.5C 554.492,486.352 556.992,477.852 558.5,469C 561.741,459.11 565.074,449.276 568.5,439.5C 575.188,439.61 581.855,439.276 588.5,438.5C 591.475,438.578 593.975,439.578 596,441.5C 598.03,439.975 600.197,438.642 602.5,437.5C 603.246,436.264 603.579,434.93 603.5,433.5C 592.174,432.388 580.841,432.388 569.5,433.5C 569.259,431.102 569.926,429.102 571.5,427.5C 573.604,427.799 575.604,427.466 577.5,426.5C 578.815,424.684 580.315,423.017 582,421.5C 582.562,419.134 582.396,416.801 581.5,414.5C 582.786,412.374 583.619,410.041 584,407.5C 587.262,403.233 590.929,399.233 595,395.5C 595.483,394.552 595.649,393.552 595.5,392.5C 590.068,393.046 585.068,394.713 580.5,397.5C 579.702,397.043 579.369,396.376 579.5,395.5C 583.896,378.478 588.396,361.478 593,344.5C 595.735,334.452 591.902,329.619 581.5,330C 567.412,329.688 553.412,329.522 539.5,329.5C 540.164,327.513 541.331,325.846 543,324.5C 543.955,318.207 546.455,312.207 550.5,306.5C 551.772,300.016 554.605,294.349 559,289.5C 559.333,284.167 559.667,278.833 560,273.5C 561.908,270.887 563.408,268.054 564.5,265C 561.754,261.841 560.088,258.174 559.5,254C 560.279,251.067 561.279,248.234 562.5,245.5C 569.214,243.23 575.047,244.564 580,249.5C 582.57,255.164 581.403,259.831 576.5,263.5C 577.328,264.415 578.328,265.081 579.5,265.5C 581.017,272.741 581.85,280.074 582,287.5C 585.846,293.708 588.513,300.375 590,307.5C 591,308.5 592,309.5 593,310.5C 595.797,316.675 598.797,322.675 602,328.5C 603.492,335.53 606.325,341.863 610.5,347.5C 612.098,353.185 614.431,358.518 617.5,363.5C 621.204,371.718 624.704,380.052 628,388.5C 633.122,394.921 636.455,402.254 638,410.5C 639,411.5 640,412.5 641,413.5C 643.841,421.679 647.174,429.679 651,437.5C 654.4,441.761 658.9,443.594 664.5,443C 667.967,444.692 669.3,447.525 668.5,451.5C 666.329,456.548 665.329,461.881 665.5,467.5C 664.167,511.995 663.5,556.828 663.5,602C 663.5,647.172 664.167,692.005 665.5,736.5C 665.756,738.792 665.423,740.959 664.5,743C 666.32,743.2 667.653,744.034 668.5,745.5C 668.647,750.214 668.314,754.881 667.5,759.5C 666.676,763.312 666.176,767.312 666,771.5C 665.83,812.404 665.33,853.238 664.5,894C 667.392,895.802 668.725,898.469 668.5,902C 666.302,922.122 665.969,942.289 667.5,962.5C 668.362,963.766 669.029,965.099 669.5,966.5C 669.752,971.519 670.252,976.519 671,981.5C 671.383,982.056 671.883,982.389 672.5,982.5C 672.488,1030.71 672.488,1078.71 672.5,1126.5C 672.167,1126.5 671.833,1126.5 671.5,1126.5C 470.833,1126.5 270.167,1126.5 69.5,1126.5C 69.6667,1076.83 69.5,1027.17 69,977.5C 68.6174,976.944 68.1174,976.611 67.5,976.5C 66.2222,974.201 64.8889,971.868 63.5,969.5C 64.0831,967.998 64.9164,966.665 66,965.5C 66.3333,942.5 66.6667,919.5 67,896.5C 69.5741,894.998 72.4074,893.998 75.5,893.5C 74.1667,870.167 74.1667,846.833 75.5,823.5C 73.9706,821.812 72.1373,820.479 70,819.5C 67.6327,816.916 67.2994,814.249 69,811.5C 70.8962,809.47 73.0629,807.803 75.5,806.5C 74.5796,795.431 74.2463,784.431 74.5,773.5C 74.5,767.167 74.5,760.833 74.5,754.5C 76.4779,753.683 77.4779,752.183 77.5,750C 76.7471,748.123 75.9138,746.289 75,744.5C 74.3333,717.5 74.3333,690.5 75,663.5C 75.2735,661.671 76.1068,660.171 77.5,659C 76.1509,658.228 75.3176,657.061 75,655.5C 74.8265,610.809 74.6599,566.143 74.5,521.5C 74.6667,509.167 74.8333,496.833 75,484.5C 75.1992,482.598 76.0325,481.098 77.5,480C 74.4356,475.207 73.7689,470.04 75.5,464.5C 72.2778,462.791 69.4445,460.458 67,457.5C 64.933,451.013 66.7663,446.18 72.5,443C 79.1551,443.708 82.9884,440.541 84,433.5C 88.8821,428.088 91.7154,422.088 92.5,415.5C 93.6996,412.41 95.5329,409.743 98,407.5C 98.539,404.471 99.2057,401.471 100,398.5C 104.577,393.346 107.577,387.346 109,380.5C 112.637,372.633 116.637,364.966 121,357.5C 122.469,354.342 123.469,351.009 124,347.5C 126.301,344.688 128.301,341.688 130,338.5C 133.86,329.753 137.526,320.753 141,311.5C 142,310.5 143,309.5 144,308.5C 146.001,300.688 149.001,293.355 153,286.5C 153.333,281.5 153.667,276.5 154,271.5C 155.261,268.789 157.094,266.622 159.5,265C 153.949,261.198 152.282,256.032 154.5,249.5C 156.131,247.703 158.131,246.536 160.5,246C 162.562,244.468 163.896,242.468 164.5,240C 166.893,238.171 169.227,238.337 171.5,240.5C 171.966,245.867 173.299,250.867 175.5,255.5C 175.333,256.833 175.167,258.167 175,259.5C 172.984,260.839 171.817,262.672 171.5,265C 172.507,267.517 173.674,270.017 175,272.5C 175.333,278.167 175.667,283.833 176,289.5C 176.611,291.75 177.944,293.417 180,294.5C 181.274,298.713 182.774,302.38 184.5,305.5C 184.291,306.086 183.957,306.586 183.5,307C 188.141,312.363 191.141,318.53 192.5,325.5 Z M 118.5,817.5 C 120.337,817.639 120.67,818.306 119.5,819.5C 118.702,819.043 118.369,818.376 118.5,817.5 Z M 556.5,872.5 C 559.898,872.18 563.232,872.513 566.5,873.5C 564.833,873.833 563.167,874.167 561.5,874.5C 559.36,874.444 557.694,873.777 556.5,872.5 Z M 551.5,884.5 C 552.5,884.5 553.5,884.5 554.5,884.5C 554.649,885.552 554.483,886.552 554,887.5C 553.333,886.167 552.667,886.167 552,887.5C 551.517,886.552 551.351,885.552 551.5,884.5 Z M 111.5,935.5 C 112.397,936.598 113.23,936.598 114,935.5C 114.483,936.448 114.649,937.448 114.5,938.5C 113.5,938.5 112.5,938.5 111.5,938.5C 111.5,937.5 111.5,936.5 111.5,935.5 Z"/></g>
<g><path style="opacity:1" fill="#c3d6b5" d="M 571.5,294.5 C 572.5,294.5 573.5,294.5 574.5,294.5C 575.72,297.691 576.553,301.025 577,304.5C 578.205,305.071 579.372,305.738 580.5,306.5C 582.957,310.962 584.957,315.628 586.5,320.5C 585.629,325.204 582.795,327.537 578,327.5C 575.648,327.695 573.648,327.028 572,325.5C 570.094,316.767 568.927,307.933 568.5,299C 570.1,297.877 571.1,296.377 571.5,294.5 Z"/></g>
<g><path style="opacity:0.999" fill="#7c818b" d="M 192.5,325.5 C 193.473,325.987 194.473,326.487 195.5,327C 205.131,326.896 214.298,328.729 223,332.5C 231.589,337.84 237.423,345.34 240.5,355C 260.573,436.678 280.406,518.512 300,600.5C 303.205,588.256 309.372,577.756 318.5,569C 334.26,561.082 351.093,557.915 369,559.5C 382.773,558.664 396.273,560.164 409.5,564C 417.413,566.577 423.58,571.411 428,578.5C 431.92,586.592 435.253,594.925 438,603.5C 438.419,602.328 439.085,601.328 440,600.5C 451.699,553.365 463.533,506.365 475.5,459.5C 477.61,458.547 478.777,456.881 479,454.5C 480.321,450.796 480.487,447.129 479.5,443.5C 483.521,430.454 487.021,417.121 490,403.5C 493.129,386.209 497.796,369.209 504,352.5C 511.441,338.188 523.274,330.522 539.5,329.5C 553.412,329.522 567.412,329.688 581.5,330C 591.902,329.619 595.735,334.452 593,344.5C 588.396,361.478 583.896,378.478 579.5,395.5C 577.648,403.246 575.148,410.913 572,418.5C 571.502,421.482 571.335,424.482 571.5,427.5C 569.926,429.102 569.259,431.102 569.5,433.5C 567.812,435.477 567.479,437.477 568.5,439.5C 565.074,449.276 561.741,459.11 558.5,469C 556.992,477.852 554.492,486.352 551,494.5C 546.293,515.037 540.626,535.37 534,555.5C 533.24,559.819 532.573,564.152 532,568.5C 527.745,579.523 524.745,590.856 523,602.5C 517.82,616.269 513.487,630.269 510,644.5C 506.288,668.644 498.455,691.144 486.5,712C 476.918,721.429 465.918,728.596 453.5,733.5C 448.626,735.235 443.626,736.568 438.5,737.5C 437.287,737.747 436.62,738.414 436.5,739.5C 427.845,740.083 419.178,740.416 410.5,740.5C 410.5,735.167 410.5,729.833 410.5,724.5C 408.833,724.5 407.167,724.5 405.5,724.5C 402.917,710.57 399.584,696.904 395.5,683.5C 395.125,681.302 394.458,679.302 393.5,677.5C 393.662,675.473 393.495,673.473 393,671.5C 390.909,668.155 389.576,664.488 389,660.5C 384.104,653.398 377.27,650.398 368.5,651.5C 356.85,650.322 349.35,655.322 346,666.5C 344.74,674.554 342.406,682.22 339,689.5C 336.888,701.392 333.888,713.058 330,724.5C 329.586,724.957 329.086,725.291 328.5,725.5C 327.507,730.12 327.173,734.786 327.5,739.5C 322.139,739.005 316.972,739.671 312,741.5C 296.954,738.687 282.12,735.187 267.5,731C 258.108,725.829 250.774,718.663 245.5,709.5C 241.381,701.347 237.715,693.013 234.5,684.5C 229.267,665.034 224.767,645.367 221,625.5C 218.459,618.301 216.126,610.968 214,603.5C 210.282,587.181 206.782,570.848 203.5,554.5C 202.5,554.5 201.5,554.5 200.5,554.5C 200.665,550.818 200.499,547.152 200,543.5C 194.338,523.848 189.172,504.181 184.5,484.5C 184.405,482.214 183.738,480.214 182.5,478.5C 181.007,471.654 179.84,464.654 179,457.5C 173.677,437.638 168.677,417.638 164,397.5C 160.176,383.704 156.176,370.037 152,356.5C 150.523,349.898 149.357,343.232 148.5,336.5C 148.279,333.209 149.613,330.709 152.5,329C 166.168,328.292 179.502,327.125 192.5,325.5 Z"/></g>
<g><path style="opacity:0.992" fill="#7b808a" d="M 1863.5,735.5 C 1860.5,737.833 1857.83,740.5 1855.5,743.5C 1845.24,749.033 1834.24,752.699 1822.5,754.5C 1782.98,759.302 1743.32,760.802 1703.5,759C 1684.59,757.47 1665.92,754.47 1647.5,750C 1630.09,744.366 1613.76,736.533 1598.5,726.5C 1593.5,720.833 1588.17,715.5 1582.5,710.5C 1579.19,703.88 1575.35,697.547 1571,691.5C 1556.27,659.768 1547.93,626.435 1546,591.5C 1543.13,551.296 1544.8,511.296 1551,471.5C 1557.33,444.338 1568,419.005 1583,395.5C 1589.45,387.573 1595.95,379.906 1602.5,372.5C 1615.41,362.875 1629.41,355.042 1644.5,349C 1662.74,344.087 1681.07,340.087 1699.5,337C 1717.49,336.027 1735.49,335.194 1753.5,334.5C 1782.04,334.25 1810.37,336.417 1838.5,341C 1862.97,349.987 1876.97,367.487 1880.5,393.5C 1880.97,401.299 1877.63,406.466 1870.5,409C 1842.81,406.498 1815.15,404.165 1787.5,402C 1757.58,400.434 1727.92,401.767 1698.5,406C 1686.35,407.999 1674.69,412.166 1663.5,418.5C 1648.96,428.901 1638.8,442.568 1633,459.5C 1625.72,480.097 1622.05,501.43 1622,523.5C 1621.63,524.416 1621.13,525.25 1620.5,526C 1621.83,541 1621.83,556 1620.5,571C 1621.13,571.75 1621.63,572.584 1622,573.5C 1622.14,592.532 1624.47,611.198 1629,629.5C 1632.51,644.677 1639.68,657.844 1650.5,669C 1666.92,680.04 1684.75,686.207 1704,687.5C 1709.35,689.073 1714.85,689.907 1720.5,690C 1743.83,690.667 1767.17,690.667 1790.5,690C 1798.26,689.87 1805.93,689.037 1813.5,687.5C 1815.1,687.551 1816.6,687.884 1818,688.5C 1818.5,688 1819,687.5 1819.5,687C 1831.68,686.322 1843.68,684.988 1855.5,683C 1876.62,678.452 1884.45,686.619 1879,707.5C 1875.11,717.615 1869.95,726.948 1863.5,735.5 Z"/></g>
<g><path style="opacity:0.994" fill="#7c818b" d="M 967.5,514.5 C 971.795,521.678 972.629,529.345 970,537.5C 967.845,543.401 965.178,549.068 962,554.5C 958.114,561.046 952.948,567.046 946.5,572.5C 944.158,572.504 942.158,573.337 940.5,575C 934.539,575.997 928.539,576.663 922.5,577C 871.168,577.5 819.834,577.667 768.5,577.5C 768.333,613.835 768.5,650.168 769,686.5C 772.482,690.312 776.315,693.812 780.5,697C 784.375,698.52 788.375,698.854 792.5,698C 803.467,695.141 814.467,692.807 825.5,691C 877.329,690.644 928.829,689.144 980,686.5C 987.657,685.502 993.657,688.169 998,694.5C 998.167,696.833 998.333,699.167 998.5,701.5C 997.75,706.801 996.417,711.968 994.5,717C 990.327,723.838 986.16,730.671 982,737.5C 973.954,747.712 963.454,753.379 950.5,754.5C 872.511,756.956 794.511,757.122 716.5,755C 709.88,754.36 703.88,752.027 698.5,748C 695.619,744.358 694.119,740.191 694,735.5C 693.011,607.137 693.344,478.804 695,350.5C 696.62,348.759 698.12,346.925 699.5,345C 703.263,343.813 706.93,342.48 710.5,341C 784.481,338.575 858.481,337.908 932.5,339C 955.992,335.8 972.658,344.8 982.5,366C 986.436,373.672 988.603,381.838 989,390.5C 989.5,391 990,391.5 990.5,392C 988.965,394.624 987.798,397.457 987,400.5C 982.235,404.862 976.569,406.862 970,406.5C 929.684,405.08 889.35,404.414 849,404.5C 823.14,404.372 797.307,404.872 771.5,406C 770.953,406.925 770.287,407.758 769.5,408.5C 768.5,442.827 768.167,477.16 768.5,511.5C 833.168,511.333 897.834,511.5 962.5,512C 963.91,513.372 965.577,514.205 967.5,514.5 Z"/></g>
<g><path style="opacity:0.995" fill="#7c818a" d="M 1102.5,339.5 C 1118.17,339.333 1133.84,339.5 1149.5,340C 1156.84,341.158 1162.17,344.991 1165.5,351.5C 1166.06,353.819 1166.56,356.153 1167,358.5C 1167.17,405.504 1167.67,452.504 1168.5,499.5C 1169.32,502.447 1169.82,505.447 1170,508.5C 1170.75,509.126 1171.58,509.626 1172.5,510C 1233.7,510.828 1294.86,510.661 1356,509.5C 1357.74,508.318 1358.74,506.651 1359,504.5C 1359.17,457.163 1359.67,409.83 1360.5,362.5C 1360.38,350.468 1366.05,342.968 1377.5,340C 1393.83,339.333 1410.17,339.333 1426.5,340C 1430.55,342.28 1432.89,345.78 1433.5,350.5C 1434.83,481.5 1434.83,612.5 1433.5,743.5C 1432.7,750.128 1429.04,753.962 1422.5,755C 1408.5,755.667 1394.5,755.667 1380.5,755C 1373.19,754.453 1367.52,751.119 1363.5,745C 1362.29,740.437 1361.13,735.937 1360,731.5C 1359.99,681.108 1359.32,630.775 1358,580.5C 1355.39,579.929 1352.89,579.096 1350.5,578C 1293.17,577.333 1235.83,577.333 1178.5,578C 1175.55,578.906 1172.71,580.073 1170,581.5C 1169.82,584.553 1169.32,587.553 1168.5,590.5C 1167.67,639.163 1167.17,687.83 1167,736.5C 1165.37,747.798 1158.87,753.964 1147.5,755C 1132.83,755.667 1118.17,755.667 1103.5,755C 1101.05,754.606 1099.05,753.44 1097.5,751.5C 1095.64,748.417 1094.47,745.084 1094,741.5C 1093.33,611.833 1093.33,482.167 1094,352.5C 1094.57,346.504 1097.41,342.171 1102.5,339.5 Z"/></g>
<g><path style="opacity:0.004" fill="#000000" d="M 1602.5,372.5 C 1601.83,371.167 1601.83,371.167 1602.5,372.5 Z"/></g>
<g><path style="opacity:1" fill="#bdd1b1" d="M 571.5,427.5 C 571.335,424.482 571.502,421.482 572,418.5C 575.148,410.913 577.648,403.246 579.5,395.5C 579.369,396.376 579.702,397.043 580.5,397.5C 585.068,394.713 590.068,393.046 595.5,392.5C 595.649,393.552 595.483,394.552 595,395.5C 590.929,399.233 587.262,403.233 584,407.5C 583.619,410.041 582.786,412.374 581.5,414.5C 582.396,416.801 582.562,419.134 582,421.5C 580.315,423.017 578.815,424.684 577.5,426.5C 575.604,427.466 573.604,427.799 571.5,427.5 Z"/></g>
<g><path style="opacity:1" fill="#c3d6b6" d="M 568.5,439.5 C 567.479,437.477 567.812,435.477 569.5,433.5C 580.841,432.388 592.174,432.388 603.5,433.5C 603.579,434.93 603.246,436.264 602.5,437.5C 600.197,438.642 598.03,439.975 596,441.5C 593.975,439.578 591.475,438.578 588.5,438.5C 581.855,439.276 575.188,439.61 568.5,439.5 Z"/></g>
<g><path style="opacity:1" fill="#c3d6b6" d="M 612.5,432.5 C 621.818,433.466 631.152,433.466 640.5,432.5C 640.884,434.929 641.551,437.263 642.5,439.5C 630.381,439.008 618.381,439.674 606.5,441.5C 606.884,437.445 608.884,434.445 612.5,432.5 Z"/></g>
<g><path style="opacity:0.73" fill="#98b386" d="M 479.5,443.5 C 480.487,447.129 480.321,450.796 479,454.5C 478.777,456.881 477.61,458.547 475.5,459.5C 474.828,458.733 473.995,458.066 473,457.5C 472.333,454.167 472.333,450.833 473,447.5C 474.638,445.266 476.805,443.933 479.5,443.5 Z"/></g>
<g><path style="opacity:0.071" fill="#72ba5d" d="M 665.5,467.5 C 665.5,557.167 665.5,646.833 665.5,736.5C 664.167,692.005 663.5,647.172 663.5,602C 663.5,556.828 664.167,511.995 665.5,467.5 Z"/></g>
<g><path style="opacity:1" fill="#bfd4b2" d="M 119.5,476.5 C 126.884,477.511 134.217,478.011 141.5,478C 143.211,479.133 143.711,480.633 143,482.5C 131.768,483.718 120.601,485.385 109.5,487.5C 109.343,486.127 109.51,484.793 110,483.5C 112.529,480.115 115.696,477.782 119.5,476.5 Z"/></g>
<g><path style="opacity:1" fill="#c2d5b4" d="M 182.5,478.5 C 183.738,480.214 184.405,482.214 184.5,484.5C 180.404,486.537 176.07,487.87 171.5,488.5C 170.221,492.302 167.888,495.469 164.5,498C 162.956,499.187 161.289,499.52 159.5,499C 154.651,494.483 149.817,489.983 145,485.5C 145.762,481.415 148.262,479.581 152.5,480C 156.989,483.578 161.989,486.078 167.5,487.5C 172.665,484.752 177.665,481.752 182.5,478.5 Z"/></g>
<g><path style="opacity:1" fill="#c2d5b5" d="M 608.5,476.5 C 617.657,478.276 626.823,479.943 636,481.5C 636.684,482.784 636.517,483.951 635.5,485C 631.972,488.264 627.972,490.764 623.5,492.5C 617.256,488.971 610.59,486.305 603.5,484.5C 596.794,485.504 590.127,486.671 583.5,488C 580.537,489.961 577.871,492.294 575.5,495C 572.982,496.199 570.482,497.365 568,498.5C 563.913,496.749 560.746,493.915 558.5,490C 559.868,488.127 561.534,486.46 563.5,485C 566.177,484.751 568.51,483.751 570.5,482C 583.645,481.863 596.312,480.03 608.5,476.5 Z"/></g>
<g><path style="opacity:0.999" fill="#cadabf" d="M 86.5,480.5 C 90.964,481.298 93.2973,483.964 93.5,488.5C 92.1779,488.33 91.0113,488.663 90,489.5C 89.4719,492.219 89.9719,494.719 91.5,497C 91.3552,498.226 91.0219,499.393 90.5,500.5C 93.6408,500.479 96.4741,499.146 99,496.5C 97.641,501.222 94.641,504.889 90,507.5C 89.3333,514.833 89.3333,522.167 90,529.5C 93.7294,536.751 95.0627,544.417 94,552.5C 87.8911,552.352 81.7244,552.685 75.5,553.5C 75.2637,550.171 76.097,547.171 78,544.5C 79,543.833 80,543.167 81,542.5C 81.1229,523.139 81.7896,503.806 83,484.5C 84.6268,483.468 85.7934,482.134 86.5,480.5 Z"/></g>
<g><path style="opacity:1" fill="#c8dabc" d="M 640.5,484.5 C 644.5,484.5 648.5,484.5 652.5,484.5C 652.5,507.833 652.5,531.167 652.5,554.5C 650.801,554.34 649.134,554.506 647.5,555C 646.692,556.706 645.359,557.539 643.5,557.5C 642.062,545.867 641.229,534.2 641,522.5C 643.797,518.377 645.63,513.877 646.5,509C 646.007,503.702 645.007,498.535 643.5,493.5C 640.518,493.037 637.518,492.704 634.5,492.5C 634.343,491.127 634.51,489.793 635,488.5C 637.131,487.385 638.965,486.052 640.5,484.5 Z"/></g>
<g><path style="opacity:1" fill="#c6d8bb" d="M 131.5,497.5 C 139.804,496.658 147.304,498.658 154,503.5C 154.494,505.134 154.66,506.801 154.5,508.5C 148.198,507.367 142.032,507.7 136,509.5C 133.914,508.582 131.747,507.915 129.5,507.5C 129.034,503.838 129.701,500.505 131.5,497.5 Z"/></g>
<g><path style="opacity:0.004" fill="#000000" d="M 967.5,513.5 C 968.833,514.167 968.833,514.167 967.5,513.5 Z"/></g>
<g><path style="opacity:1" fill="#c5d8b9" d="M 651.5,566.5 C 652.5,566.5 653.5,566.5 654.5,566.5C 654.904,572.192 655.571,577.858 656.5,583.5C 655.294,589.885 653.794,596.219 652,602.5C 651.5,618.497 651.333,634.497 651.5,650.5C 648.5,650.5 645.5,650.5 642.5,650.5C 642.864,626.799 642.864,603.132 642.5,579.5C 639.386,580.091 636.886,581.758 635,584.5C 634.311,587.329 635.478,588.996 638.5,589.5C 636.773,592.064 634.606,594.064 632,595.5C 629.291,595.128 627.457,593.628 626.5,591C 623.639,590.46 620.972,589.46 618.5,588C 616.078,585.997 615.245,583.497 616,580.5C 621.13,577.037 625.963,573.203 630.5,569C 637.68,568.427 644.68,567.594 651.5,566.5 Z"/></g>
<g><path style="opacity:1" fill="#b9d0aa" d="M 588.5,565.5 C 591.937,565.245 594.604,566.412 596.5,569C 595.098,572.239 593.098,575.072 590.5,577.5C 593.778,578.021 597.111,578.187 600.5,578C 599.833,578.667 599.167,579.333 598.5,580C 586.699,580.967 577.366,586.134 570.5,595.5C 569.675,596.386 568.675,596.719 567.5,596.5C 567.343,595.127 567.51,593.793 568,592.5C 574.378,586.54 580.378,581.54 586,577.5C 583.359,577.097 581.026,576.097 579,574.5C 576.37,577.294 573.537,579.961 570.5,582.5C 564.349,583.321 558.182,583.988 552,584.5C 548.442,583.304 544.942,581.971 541.5,580.5C 544.308,571.027 550.641,566.694 560.5,567.5C 557.221,571.422 554.388,575.755 552,580.5C 551.312,581.332 551.479,581.998 552.5,582.5C 557.319,578.182 561.985,573.682 566.5,569C 569.5,568.333 572.5,568.333 575.5,569C 576.05,570.845 577.05,572.345 578.5,573.5C 579.941,572.135 581.274,570.635 582.5,569C 585.152,568.647 587.152,567.48 588.5,565.5 Z"/></g>
<g><path style="opacity:0.004" fill="#000000" d="M 946.5,572.5 C 947.833,573.167 947.833,573.167 946.5,572.5 Z"/></g>
<g><path style="opacity:1" fill="#c4d7b7" d="M 393.5,677.5 C 394.458,679.302 395.125,681.302 395.5,683.5C 393.516,684.694 391.516,684.694 389.5,683.5C 386.908,679.847 383.908,676.68 380.5,674C 374.061,671.6 367.561,669.433 361,667.5C 358.761,668.091 356.594,668.758 354.5,669.5C 354.786,667.723 355.453,666.056 356.5,664.5C 353.619,658.525 355.619,656.025 362.5,657C 368.9,659.182 375.233,661.515 381.5,664C 385.734,667.414 388.901,671.581 391,676.5C 391.671,677.252 392.504,677.586 393.5,677.5 Z"/></g>
<g><path style="opacity:1" fill="#c4d7b7" d="M 583.5,663.5 C 592.447,664.706 601.447,665.706 610.5,666.5C 610.333,666.833 610.167,667.167 610,667.5C 602.198,667.656 594.365,668.656 586.5,670.5C 581.849,673.789 576.849,676.622 571.5,679C 568.833,679.667 566.167,679.667 563.5,679C 556.11,672.483 547.443,669.65 537.5,670.5C 533.5,670.667 529.5,670.833 525.5,671C 520.049,672.65 514.715,674.484 509.5,676.5C 509.5,674.5 509.5,672.5 509.5,670.5C 512.789,668.433 516.456,667.099 520.5,666.5C 541.689,666.027 562.689,665.027 583.5,663.5 Z"/></g>
<g><path style="opacity:1" fill="#c7d8bb" d="M 650.5,665.5 C 651.675,665.281 652.675,665.614 653.5,666.5C 652.312,690.125 651.812,713.791 652,737.5C 652.903,738.701 654.069,739.535 655.5,740C 654.128,740.402 652.795,740.902 651.5,741.5C 649.684,740.185 648.017,738.685 646.5,737C 645.207,736.51 643.873,736.343 642.5,736.5C 642.764,719.493 642.931,702.493 643,685.5C 642.667,682.5 642.333,679.5 642,676.5C 637.616,673.491 637.449,670.325 641.5,667C 644.695,666.819 647.695,666.319 650.5,665.5 Z"/></g>
<g><path style="opacity:1" fill="#c6d8ba" d="M 605.5,679.5 C 607.833,679.5 610.167,679.5 612.5,679.5C 612.66,681.199 612.494,682.866 612,684.5C 605.699,692.566 597.532,695.9 587.5,694.5C 586.479,690.59 587.813,687.59 591.5,685.5C 595.135,684.394 598.802,683.394 602.5,682.5C 603.77,681.712 604.77,680.712 605.5,679.5 Z"/></g>
<g><path style="opacity:1" fill="#c4d6b7" d="M 203.5,681.5 C 208.683,681.76 212.683,684.093 215.5,688.5C 215.471,690.029 214.804,691.196 213.5,692C 203.151,692.832 192.817,692.666 182.5,691.5C 184.5,690.167 186.167,688.5 187.5,686.5C 191.736,685.119 196.07,684.119 200.5,683.5C 202.03,683.36 203.03,682.693 203.5,681.5 Z"/></g>
<g><path style="opacity:1" fill="#c2d5b5" d="M 137.5,683.5 C 140.518,683.335 143.518,683.502 146.5,684C 148.211,685.133 148.711,686.633 148,688.5C 144.943,691.945 141.11,693.612 136.5,693.5C 130.899,692.604 125.399,692.27 120,692.5C 119.28,690.888 119.446,689.388 120.5,688C 126.204,686.167 131.871,684.667 137.5,683.5 Z"/></g>
<g><path style="opacity:1" fill="#bfd2b4" d="M 234.5,684.5 C 237.715,693.013 241.381,701.347 245.5,709.5C 244.883,709.389 244.383,709.056 244,708.5C 241.388,712.999 239.554,717.832 238.5,723C 241.312,725.812 244.145,728.645 247,731.5C 247.018,733.797 246.851,736.131 246.5,738.5C 244.046,738.321 241.879,738.987 240,740.5C 238.739,740.241 237.739,739.574 237,738.5C 236.631,726.328 236.131,714.161 235.5,702C 235.541,698.779 235.875,695.612 236.5,692.5C 234.771,690.149 234.104,687.482 234.5,684.5 Z"/></g>
<g><path style="opacity:0.004" fill="#000000" d="M 1582.5,710.5 C 1581.83,711.167 1581.83,711.167 1582.5,710.5 Z"/></g>
<g><path style="opacity:0.004" fill="#000000" d="M 1598.5,726.5 C 1597.83,727.167 1597.83,727.167 1598.5,726.5 Z"/></g>
<g><path style="opacity:1" fill="#bfd3b3" d="M 453.5,733.5 C 452.275,738.507 450.941,743.507 449.5,748.5C 444.108,751.445 438.442,752.112 432.5,750.5C 433.325,749.614 434.325,749.281 435.5,749.5C 435.253,746.061 435.586,742.728 436.5,739.5C 436.62,738.414 437.287,737.747 438.5,737.5C 443.626,736.568 448.626,735.235 453.5,733.5 Z"/></g>
<g><path style="opacity:0.004" fill="#000000" d="M 1863.5,735.5 C 1864.83,736.167 1864.83,736.167 1863.5,735.5 Z"/></g>
<g><path style="opacity:0.004" fill="#000000" d="M 1855.5,743.5 C 1856.83,744.167 1856.83,744.167 1855.5,743.5 Z"/></g>
<g><path style="opacity:0.564" fill="#394630" d="M 668.5,745.5 C 674.03,750.488 673.696,755.154 667.5,759.5C 668.314,754.881 668.647,750.214 668.5,745.5 Z"/></g>
<g><path style="opacity:0.384" fill="#3c462c" d="M 74.5,754.5 C 74.5,760.833 74.5,767.167 74.5,773.5C 70.5965,767.067 70.5965,760.734 74.5,754.5 Z"/></g>
<g><path style="opacity:1" fill="#c7dabb" d="M 574.5,770.5 C 580.792,768.984 583.958,771.317 584,777.5C 582.644,778.38 581.144,778.714 579.5,778.5C 579.5,779.833 579.5,781.167 579.5,782.5C 574.653,780.46 569.653,778.794 564.5,777.5C 561.553,777.93 559.219,779.43 557.5,782C 556.207,782.49 554.873,782.657 553.5,782.5C 553.5,780.5 553.5,778.5 553.5,776.5C 559.462,774.478 565.628,773.144 572,772.5C 573.376,772.316 574.209,771.649 574.5,770.5 Z"/></g>
<g><path style="opacity:1" fill="#c0d4b2" d="M 465.5,774.5 C 466.873,774.343 468.207,774.51 469.5,775C 471.123,777.08 472.623,779.246 474,781.5C 476.174,809.878 475.674,838.212 472.5,866.5C 472.646,874.176 472.979,881.842 473.5,889.5C 473.31,894.93 472.476,900.263 471,905.5C 470.5,923.83 470.333,942.164 470.5,960.5C 468.801,960.66 467.134,960.494 465.5,960C 464.978,959.439 464.645,958.772 464.5,958C 464.847,924.631 466.181,891.298 468.5,858C 467.833,840.505 467.333,823.005 467,805.5C 462.685,798.364 458.519,791.197 454.5,784C 454.759,782.739 455.426,781.739 456.5,781C 459.167,780 461.833,779 464.5,778C 465.337,776.989 465.67,775.822 465.5,774.5 Z"/></g>
<g><path style="opacity:0.998" fill="#c3d6b5" d="M 83.5,778.5 C 87.1211,779.373 90.7878,780.039 94.5,780.5C 92.9125,785.097 91.4125,789.764 90,794.5C 89.6667,823.833 89.3333,853.167 89,882.5C 86.9747,884.693 84.4747,885.693 81.5,885.5C 81.5668,883.599 81.2335,881.766 80.5,880C 82.2667,868.899 82.7667,857.732 82,846.5C 81.1856,841.233 79.6856,836.233 77.5,831.5C 77.9245,826.126 79.4245,821.126 82,816.5C 82.1859,803.758 82.6859,791.092 83.5,778.5 Z"/></g>
<g><path style="opacity:1" fill="#c4d7b8" d="M 490.5,780.5 C 493.85,780.335 497.183,780.502 500.5,781C 496.169,784.288 495.169,788.455 497.5,793.5C 498.675,793.281 499.675,793.614 500.5,794.5C 497.388,797.869 496.221,801.869 497,806.5C 497.414,806.957 497.914,807.291 498.5,807.5C 501.112,806.221 503.445,804.555 505.5,802.5C 506.665,810.813 506.832,819.147 506,827.5C 504.301,828.406 502.467,828.739 500.5,828.5C 500.318,826.409 500.652,824.409 501.5,822.5C 499.955,821.548 498.288,821.215 496.5,821.5C 496.167,837.847 496.501,854.18 497.5,870.5C 499.622,867.876 501.955,865.376 504.5,863C 505.448,862.517 506.448,862.351 507.5,862.5C 507.665,866.182 507.499,869.848 507,873.5C 503.399,875.409 500.066,877.742 497,880.5C 496.477,884.142 495.31,887.476 493.5,890.5C 492.167,890.5 490.833,890.5 489.5,890.5C 489.761,863.35 489.428,836.183 488.5,809C 488.667,800.167 488.833,791.333 489,782.5C 489.717,781.956 490.217,781.289 490.5,780.5 Z"/></g>
<g><path style="opacity:1" fill="#c5d7b8" d="M 230.5,780.5 C 235.5,780.5 240.5,780.5 245.5,780.5C 245.678,783.322 246.345,785.989 247.5,788.5C 247.423,790.299 246.923,791.966 246,793.5C 242.865,796.651 239.032,798.317 234.5,798.5C 233.579,800.756 231.912,801.756 229.5,801.5C 229.5,799.5 229.5,797.5 229.5,795.5C 231.5,795.5 233.5,795.5 235.5,795.5C 235.649,794.448 235.483,793.448 235,792.5C 233.309,789.641 230.809,788.308 227.5,788.5C 227.016,785.212 228.016,782.545 230.5,780.5 Z"/></g>
<g><path style="opacity:1" fill="#c0d4b2" d="M 568.5,794.5 C 570.199,794.34 571.866,794.506 573.5,795C 577.067,797.83 580.4,800.83 583.5,804C 583.122,805.635 582.456,807.135 581.5,808.5C 577.751,810.597 574.751,813.264 572.5,816.5C 569.815,814.491 566.815,812.991 563.5,812C 558.887,807.747 554.22,803.581 549.5,799.5C 549.667,799.167 549.833,798.833 550,798.5C 552.243,800.282 554.743,800.782 557.5,800C 561.007,797.676 564.673,795.842 568.5,794.5 Z"/></g>
<g><path style="opacity:1" fill="#c5d7b8" d="M 242.5,801.5 C 244.527,801.338 246.527,801.505 248.5,802C 248.957,802.414 249.291,802.914 249.5,803.5C 247.703,805.131 246.536,807.131 246,809.5C 245.114,825.49 244.614,841.49 244.5,857.5C 242.208,857.756 240.041,857.423 238,856.5C 237.832,847.482 237.332,838.482 236.5,829.5C 234.37,832.642 231.703,834.975 228.5,836.5C 229.625,832.521 229.625,828.521 228.5,824.5C 232.199,823.996 235.365,822.33 238,819.5C 238.333,815.167 238.667,810.833 239,806.5C 240.802,805.211 241.969,803.544 242.5,801.5 Z"/></g>
<g><path style="opacity:0.911" fill="#494949" d="M 739.5,893.5 C 732.01,895.831 725.51,899.831 720,905.5C 719.51,906.793 719.343,908.127 719.5,909.5C 743.23,910.085 766.896,909.418 790.5,907.5C 792.667,907.87 794.667,908.537 796.5,909.5C 796.119,916.222 793.452,921.889 788.5,926.5C 758.717,930.486 729.05,930.486 699.5,926.5C 698.502,919.862 698.335,913.195 699,906.5C 699.783,902.547 701.283,898.88 703.5,895.5C 716.069,886.059 729.069,877.392 742.5,869.5C 748.392,866.884 754.059,863.717 759.5,860C 771.42,852.117 774.92,841.284 770,827.5C 766.972,823.903 763.139,821.736 758.5,821C 740.814,819.672 723.314,820.839 706,824.5C 702.893,823.204 701.893,820.871 703,817.5C 704.925,813.977 707.091,810.644 709.5,807.5C 710.683,806.496 712.016,805.662 713.5,805C 735.403,798.881 757.236,799.048 779,805.5C 784.442,808.941 788.442,813.608 791,819.5C 793.092,831.37 792.926,843.203 790.5,855C 787.079,861.585 782.413,867.085 776.5,871.5C 764.316,878.992 752.149,885.658 740,891.5C 739.536,892.094 739.369,892.761 739.5,893.5 Z"/></g>
<g><path style="opacity:0.908" fill="#494949" d="M 991.5,800.5 C 1004.72,799.907 1017.72,801.24 1030.5,804.5C 1039.1,807.476 1044.43,813.809 1046.5,823.5C 1048.68,835.627 1047.52,847.294 1043,858.5C 1040.92,862.579 1038.09,866.079 1034.5,869C 1015.3,880.406 996.304,891.406 977.5,902C 974.959,903.848 973.959,906.348 974.5,909.5C 996.503,909.667 1018.5,909.5 1040.5,909C 1043.92,906.94 1047.26,907.106 1050.5,909.5C 1050.92,915.859 1048.59,921.193 1043.5,925.5C 1038.61,926.917 1033.61,927.917 1028.5,928.5C 1004.44,930.091 980.443,929.591 956.5,927C 955.572,926.612 954.905,925.945 954.5,925C 953.395,918.872 953.228,912.706 954,906.5C 954.269,902.411 955.602,898.744 958,895.5C 976.039,882.555 994.872,870.722 1014.5,860C 1018.31,857.527 1021.47,854.361 1024,850.5C 1026.12,842.105 1025.95,833.772 1023.5,825.5C 1021.95,824.316 1020.29,823.316 1018.5,822.5C 999.071,819.525 979.738,820.192 960.5,824.5C 959.558,824.392 958.725,824.059 958,823.5C 957.21,816.411 959.71,810.744 965.5,806.5C 969.743,804.579 974.076,803.079 978.5,802C 983.019,801.825 987.353,801.325 991.5,800.5 Z"/></g>
<g><path style="opacity:1" fill="#c8d9bb" d="M 611.5,801.5 C 620.018,801.189 623.184,805.189 621,813.5C 615.554,820.717 611.888,820.05 610,811.5C 608.846,810.257 607.512,809.257 606,808.5C 605.257,806.559 605.424,804.726 606.5,803C 608.382,802.802 610.048,802.302 611.5,801.5 Z"/></g>
<g><path style="opacity:1" fill="#c2d5b4" d="M 633.5,777.5 C 639.734,778.89 646.067,779.557 652.5,779.5C 652.256,782.263 650.923,784.429 648.5,786C 649.793,786.49 651.127,786.657 652.5,786.5C 652.838,821.204 652.838,855.871 652.5,890.5C 645.484,891.993 642.318,888.993 643,881.5C 640.672,878.175 638.339,874.842 636,871.5C 635.768,856.475 635.268,841.475 634.5,826.5C 636.5,826.5 638.5,826.5 640.5,826.5C 639.425,830.938 641.092,832.938 645.5,832.5C 644.255,823.849 644.255,815.182 645.5,806.5C 646.5,805 647.5,803.5 648.5,802C 644.818,797.494 640.485,796.66 635.5,799.5C 634.995,795.487 636.995,793.32 641.5,793C 643.061,792.059 644.395,790.892 645.5,789.5C 641.157,788.54 636.824,788.373 632.5,789C 629.681,784.899 630.014,781.065 633.5,777.5 Z"/></g>
<g><path style="opacity:0.921" fill="#494949" d="M 862.5,801.5 C 876.792,800.616 890.792,802.116 904.5,806C 912.52,810.541 918.353,817.041 922,825.5C 928.103,848.573 929.103,871.906 925,895.5C 922.548,904.275 918.381,912.108 912.5,919C 909.833,921 907.167,923 904.5,925C 884.788,932.12 864.955,932.287 845,925.5C 834.728,919.462 828.228,910.629 825.5,899C 822.497,884.991 821.331,870.825 822,856.5C 823.285,849.782 824.451,842.949 825.5,836C 828.523,825.449 834.19,816.616 842.5,809.5C 849.126,806.204 855.792,803.537 862.5,801.5 Z M 897.5,825.5 C 901.216,829.451 903.716,834.117 905,839.5C 906.982,856.503 906.982,873.503 905,890.5C 903.214,893.958 901.881,897.624 901,901.5C 900.34,903.324 899.173,904.657 897.5,905.5C 894.069,909.153 889.736,910.986 884.5,911C 875.011,912.104 865.677,911.438 856.5,909C 853.261,907.264 850.927,904.764 849.5,901.5C 848.781,899.909 847.781,898.409 846.5,897C 846.833,896.667 847.167,896.333 847.5,896C 845.954,894.56 845.121,892.727 845,890.5C 843.021,874.83 843.021,859.164 845,843.5C 848.131,826.414 858.464,818.414 876,819.5C 880.824,820.196 885.657,820.863 890.5,821.5C 892.93,822.847 895.264,824.18 897.5,825.5 Z"/></g>
<g><path style="opacity:0.004" fill="#000000" d="M 1375.5,803.5 C 1374.83,802.167 1374.83,802.167 1375.5,803.5 Z"/></g>
<g><path style="opacity:0.915" fill="#484848" d="M 1749.5,922.5 C 1743.75,928.173 1736.75,930.506 1728.5,929.5C 1721.06,930.25 1714.56,928.25 1709,923.5C 1694.74,892.628 1681.74,861.628 1670,830.5C 1668.67,827.869 1667.34,825.202 1666,822.5C 1663.24,820.297 1660.24,819.964 1657,821.5C 1656.81,856.529 1656.31,891.529 1655.5,926.5C 1651.47,926.937 1647.64,927.937 1644,929.5C 1642.19,929.507 1640.69,928.84 1639.5,927.5C 1638.33,889.504 1638.17,851.504 1639,813.5C 1639.32,810.027 1640.82,807.194 1643.5,805C 1655.54,799.952 1667.37,800.452 1679,806.5C 1682.48,811.3 1685.32,816.466 1687.5,822C 1698.83,850.003 1710.17,878.003 1721.5,906C 1723.09,909.262 1725.59,911.428 1729,912.5C 1730,911.5 1731,910.5 1732,909.5C 1732.19,874.471 1732.69,839.471 1733.5,804.5C 1739.12,803.646 1744.79,803.313 1750.5,803.5C 1751.79,821.721 1752.46,840.054 1752.5,858.5C 1752.33,875.833 1752.17,893.167 1752,910.5C 1750.68,914.333 1749.85,918.333 1749.5,922.5 Z"/></g>
<g><path style="opacity:0.925" fill="#494949" d="M 1092.5,803.5 C 1119.83,803.5 1147.17,803.5 1174.5,803.5C 1174.95,810.168 1172.61,815.668 1167.5,820C 1147.5,820.333 1127.5,820.667 1107.5,821C 1106.05,829.732 1105.05,838.566 1104.5,847.5C 1104.55,849.1 1104.88,850.6 1105.5,852C 1124.9,853.022 1144.06,855.189 1163,858.5C 1167.31,859.983 1170.64,862.65 1173,866.5C 1179.67,884.083 1178.34,901.083 1169,917.5C 1162.77,924.918 1154.77,928.918 1145,929.5C 1129.15,930.881 1113.32,930.715 1097.5,929C 1088.68,927.011 1083.35,921.511 1081.5,912.5C 1082.15,910.023 1083.65,908.356 1086,907.5C 1089.25,909.101 1092.75,909.934 1096.5,910C 1113.91,912.293 1131.25,911.96 1148.5,909C 1150.71,906.439 1152.54,903.606 1154,900.5C 1154.67,893.833 1154.67,887.167 1154,880.5C 1153.53,879.069 1152.7,877.903 1151.5,877C 1148.93,875.883 1146.26,875.05 1143.5,874.5C 1124.04,872.964 1104.7,870.964 1085.5,868.5C 1084.27,847.557 1085.77,826.891 1090,806.5C 1091.04,805.627 1091.88,804.627 1092.5,803.5 Z"/></g>
<g><path style="opacity:0.902" fill="#4a4a4a" d="M 1375.5,803.5 C 1381.51,803.334 1387.51,803.501 1393.5,804C 1394.13,804.75 1394.63,805.584 1395,806.5C 1395.17,840.838 1395.67,875.172 1396.5,909.5C 1420.13,910.617 1443.8,910.617 1467.5,909.5C 1467.66,912.187 1467.5,914.854 1467,917.5C 1465,920.167 1463,922.833 1461,925.5C 1457.62,926.82 1454.12,927.82 1450.5,928.5C 1427.83,929.833 1405.17,929.833 1382.5,928.5C 1380.54,927.708 1378.54,927.041 1376.5,926.5C 1375.75,925.624 1375.25,924.624 1375,923.5C 1374.18,883.459 1374.35,843.459 1375.5,803.5 Z"/></g>
<g><path style="opacity:0.93" fill="#484848" d="M 1512.5,804.5 C 1513.32,832.125 1513.82,859.791 1514,887.5C 1514.19,893.136 1515.53,898.47 1518,903.5C 1525.85,909.86 1534.85,912.193 1545,910.5C 1555.92,912.378 1564.92,909.711 1572,902.5C 1572.86,900.913 1573.53,899.246 1574,897.5C 1575.27,867.527 1575.93,837.527 1576,807.5C 1577.04,806.756 1577.54,805.756 1577.5,804.5C 1583.48,803.253 1589.48,803.253 1595.5,804.5C 1595.81,805.308 1596.31,805.975 1597,806.5C 1597.83,832.173 1597.67,857.84 1596.5,883.5C 1596.88,894.82 1594.55,905.487 1589.5,915.5C 1582.06,922.461 1573.39,926.961 1563.5,929C 1543.25,932.754 1523.92,930.254 1505.5,921.5C 1502.78,919.066 1500.28,916.399 1498,913.5C 1494.67,905.863 1493,897.863 1493,889.5C 1492.19,860.804 1492.36,832.137 1493.5,803.5C 1499.89,803.249 1506.23,803.582 1512.5,804.5 Z"/></g>
<g><path style="opacity:0.004" fill="#000000" d="M 1512.5,803.5 C 1513.83,804.167 1513.83,804.167 1512.5,803.5 Z"/></g>
<g><path style="opacity:0.004" fill="#000000" d="M 1577.5,804.5 C 1576.83,803.167 1576.83,803.167 1577.5,804.5 Z"/></g>
<g><path style="opacity:0.944" fill="#4a4a4a" d="M 1888.5,914.5 C 1884.21,918.945 1879.21,922.445 1873.5,925C 1866.74,926.336 1860.08,927.669 1853.5,929C 1834.82,929.833 1816.16,929.666 1797.5,928.5C 1796.23,927.638 1794.9,926.971 1793.5,926.5C 1793.5,885.833 1793.5,845.167 1793.5,804.5C 1818.83,803.051 1844.17,803.218 1869.5,805C 1885.71,808.876 1895.54,819.043 1899,835.5C 1903.36,858.565 1902.03,881.232 1895,903.5C 1892.91,907.353 1890.74,911.02 1888.5,914.5 Z M 1870.5,828.5 C 1874.58,833.187 1877.24,838.687 1878.5,845C 1879.95,858.858 1879.78,872.692 1878,886.5C 1876.3,894.213 1872.47,900.713 1866.5,906C 1856.1,909.879 1845.27,911.379 1834,910.5C 1827.4,910.628 1820.9,910.128 1814.5,909C 1813.17,880.196 1813.17,851.363 1814.5,822.5C 1831.27,819.722 1847.94,820.222 1864.5,824C 1867.11,824.792 1869.11,826.292 1870.5,828.5 Z"/></g>
<g><path style="opacity:0.004" fill="#000000" d="M 709.5,807.5 C 708.833,806.167 708.833,806.167 709.5,807.5 Z"/></g>
<g><path style="opacity:1" fill="#c0d4b2" d="M 160.5,796.5 C 166.134,796.612 170.467,799.112 173.5,804C 173.241,805.261 172.574,806.261 171.5,807C 165.278,808.058 161.612,811.558 160.5,817.5C 162.527,817.338 164.527,817.505 166.5,818C 169.69,821.066 173.357,823.399 177.5,825C 175.349,826.774 173.016,828.274 170.5,829.5C 162.848,830.401 155.181,831.068 147.5,831.5C 147.491,829.692 147.991,828.025 149,826.5C 152.188,823.312 155.355,820.145 158.5,817C 153.073,810.917 147.74,804.917 142.5,799C 142.833,798.5 143.167,798 143.5,797.5C 149.384,800.085 155.051,799.751 160.5,796.5 Z"/></g>
<g><path style="opacity:1" fill="#c2d6b5" d="M 434.5,840.5 C 439.54,841.011 444.54,841.844 449.5,843C 450.833,846.333 450.833,849.667 449.5,853C 438.514,853.899 427.514,854.566 416.5,855C 414.697,857.103 412.364,857.936 409.5,857.5C 410.091,854.386 411.758,851.886 414.5,850C 418.004,848.149 421.67,846.816 425.5,846C 428.367,843.734 431.367,841.901 434.5,840.5 Z"/></g>
<g><path style="opacity:0.004" fill="#000000" d="M 1019.5,852.5 C 1020.83,853.167 1020.83,853.167 1019.5,852.5 Z"/></g>
<g><path style="opacity:1" fill="#c1d5b4" d="M 138.5,855.5 C 144.421,857.044 150.421,858.377 156.5,859.5C 148.339,864.414 140.339,869.581 132.5,875C 129.959,878.707 127.626,882.541 125.5,886.5C 123.5,888.167 121.5,889.833 119.5,891.5C 118.3,884.071 118.8,876.738 121,869.5C 126.395,864.27 132.228,859.604 138.5,855.5 Z"/></g>
<g><path style="opacity:0.004" fill="#000000" d="M 1252.5,857.5 C 1251.83,856.167 1251.83,856.167 1252.5,857.5 Z"/></g>
<g><path style="opacity:0.945" fill="#494949" d="M 1252.5,857.5 C 1274.17,856.178 1295.84,856.178 1317.5,857.5C 1317.31,864.195 1314.64,869.695 1309.5,874C 1298.25,875.658 1286.92,876.492 1275.5,876.5C 1265.38,876.424 1255.38,875.757 1245.5,874.5C 1245.19,872.076 1245.53,869.743 1246.5,867.5C 1248.15,863.876 1250.15,860.542 1252.5,857.5 Z"/></g>
<g><path style="opacity:1" fill="#c2d5b4" d="M 241.5,863.5 C 243.167,863.5 244.833,863.5 246.5,863.5C 246.5,872.5 246.5,881.5 246.5,890.5C 241.473,890.503 236.473,890.836 231.5,891.5C 230.756,888.05 232.09,886.384 235.5,886.5C 236.188,880.866 236.688,875.199 237,869.5C 238.332,867.34 239.832,865.34 241.5,863.5 Z"/></g>
<g><path style="opacity:0.004" fill="#000000" d="M 742.5,869.5 C 741.833,868.167 741.833,868.167 742.5,869.5 Z"/></g>
<g><path style="opacity:1" fill="#c1d4b3" d="M 567.5,875.5 C 573.736,874.965 579.736,875.798 585.5,878C 586.517,879.049 586.684,880.216 586,881.5C 585.092,883.439 583.592,884.439 581.5,884.5C 581.5,886.167 581.5,887.833 581.5,889.5C 578.511,888.702 575.845,887.202 573.5,885C 570.207,884.174 566.874,883.674 563.5,883.5C 563.776,880.281 565.109,877.615 567.5,875.5 Z"/></g>
<g><path style="opacity:0.004" fill="#000000" d="M 1149.5,877.5 C 1150.83,878.167 1150.83,878.167 1149.5,877.5 Z"/></g>
<g><path style="opacity:1" fill="#c0d4b2" d="M 307.5,879.5 C 309.833,879.5 312.167,879.5 314.5,879.5C 313.96,896.356 312.96,913.19 311.5,930C 311.907,939.406 312.907,948.74 314.5,958C 311.097,962.075 307.097,962.575 302.5,959.5C 300.959,957.796 299.625,955.963 298.5,954C 300.14,950.088 301.974,946.255 304,942.5C 304.333,922.833 304.667,903.167 305,883.5C 305.662,882.016 306.496,880.683 307.5,879.5 Z"/></g>
<g><path style="opacity:1" fill="#bfd4b1" d="M 427.5,877.5 C 428.5,877.5 429.5,877.5 430.5,877.5C 429.276,879.82 427.942,882.153 426.5,884.5C 427.781,889.063 429.614,893.396 432,897.5C 432.733,916.185 432.4,934.852 431,953.5C 428.874,955.377 426.374,956.377 423.5,956.5C 426.332,943.838 427.999,931.005 428.5,918C 426.983,915.157 425.483,912.323 424,909.5C 423.667,902.5 423.333,895.5 423,888.5C 421.117,887.347 420.284,885.681 420.5,883.5C 423.412,882.26 425.746,880.26 427.5,877.5 Z"/></g>
<g><path style="opacity:1" fill="#c3d6b6" d="M 124.5,890.5 C 126.167,890.5 127.833,890.5 129.5,890.5C 129.333,902.505 129.5,914.505 130,926.5C 134.577,929.236 138.744,932.569 142.5,936.5C 143.337,934.156 144.671,932.156 146.5,930.5C 147.498,940.144 147.832,949.81 147.5,959.5C 146.5,959.5 145.5,959.5 144.5,959.5C 142.829,950.164 139.496,941.498 134.5,933.5C 133.15,932.05 131.484,931.383 129.5,931.5C 129.729,941.532 129.396,951.532 128.5,961.5C 121.955,962.915 118.622,960.415 118.5,954C 120.218,934.893 121.051,915.726 121,896.5C 121.564,894.113 122.73,892.113 124.5,890.5 Z"/></g>
<g><path style="opacity:0.004" fill="#000000" d="M 739.5,893.5 C 740.833,894.167 740.833,894.167 739.5,893.5 Z"/></g>
<g><path style="opacity:1" fill="#c9dabd" d="M 530.5,897.5 C 533.505,897.673 535.505,899.173 536.5,902C 534.767,914.4 533.934,926.9 534,939.5C 531.619,940.435 529.119,940.768 526.5,940.5C 525.393,928.2 525.227,915.866 526,903.5C 527.332,901.34 528.832,899.34 530.5,897.5 Z"/></g>
<g><path style="opacity:1" fill="#c3d6b6" d="M 489.5,903.5 C 495.72,903.103 501.72,903.77 507.5,905.5C 507.067,908.285 505.734,910.619 503.5,912.5C 499.409,913.75 495.742,915.75 492.5,918.5C 491.772,921.212 490.939,923.879 490,926.5C 488.556,928.155 486.722,928.822 484.5,928.5C 484.5,920.5 484.5,912.5 484.5,904.5C 486.415,904.784 488.081,904.451 489.5,903.5 Z"/></g>
<g><path style="opacity:0.004" fill="#000000" d="M 796.5,908.5 C 797.833,909.167 797.833,909.167 796.5,908.5 Z"/></g>
<g><path style="opacity:1" fill="#bed3b0" d="M 367.5,895.5 C 370.567,895.016 372.567,896.182 373.5,899C 371.426,902.04 370.093,905.373 369.5,909C 370.938,909.219 372.271,909.719 373.5,910.5C 373.657,918.777 373.324,927.111 372.5,935.5C 371.738,936.628 371.071,937.795 370.5,939C 367.854,939.497 365.187,939.664 362.5,939.5C 362.234,936.334 361.901,933.167 361.5,930C 363.17,922.507 363.837,915.007 363.5,907.5C 362.774,903.789 361.441,900.456 359.5,897.5C 362.698,898.036 365.365,897.369 367.5,895.5 Z"/></g>
<g><path style="opacity:0.004" fill="#000000" d="M 1888.5,914.5 C 1889.83,915.167 1889.83,915.167 1888.5,914.5 Z"/></g>
<g><path style="opacity:0.004" fill="#000000" d="M 909.5,922.5 C 910.833,923.167 910.833,923.167 909.5,922.5 Z"/></g>
<g><path style="opacity:0.004" fill="#000000" d="M 1749.5,922.5 C 1750.83,923.167 1750.83,923.167 1749.5,922.5 Z"/></g>
<g><path style="opacity:0.004" fill="#000000" d="M 788.5,926.5 C 789.833,927.167 789.833,927.167 788.5,926.5 Z"/></g>
<g><path style="opacity:0.004" fill="#000000" d="M 1655.5,926.5 C 1656.83,927.167 1656.83,927.167 1655.5,926.5 Z"/></g>
<g><path style="opacity:0.004" fill="#000000" d="M 1793.5,926.5 C 1792.83,927.167 1792.83,927.167 1793.5,926.5 Z"/></g>
<g><path style="opacity:1" fill="#bed3b0" d="M 78.5,927.5 C 81.4475,927.223 84.2809,927.556 87,928.5C 88.7261,936.748 89.5594,945.082 89.5,953.5C 93.5012,953.185 97.1678,951.852 100.5,949.5C 100.67,953.318 100.67,957.318 100.5,961.5C 93.1729,961.056 85.8395,960.723 78.5,960.5C 78.5,949.5 78.5,938.5 78.5,927.5 Z"/></g>
<g><path style="opacity:1" fill="#bfd3b1" d="M 504.5,925.5 C 505.833,925.5 507.167,925.5 508.5,925.5C 508.154,933.796 506.654,941.796 504,949.5C 501.955,952.423 499.788,955.257 497.5,958C 493.206,959.143 488.873,959.977 484.5,960.5C 484.635,952.903 484.802,945.236 485,937.5C 487.218,935.381 489.718,935.048 492.5,936.5C 493.538,940.769 494.205,945.102 494.5,949.5C 495.5,949.5 496.5,949.5 497.5,949.5C 497.281,950.675 497.614,951.675 498.5,952.5C 501.497,949.402 501.997,946.069 500,942.5C 498.172,935.759 499.672,930.093 504.5,925.5 Z"/></g>
<g><path style="opacity:1" fill="#c4d7b7" d="M 201.5,892.5 C 203.5,892.5 205.5,892.5 207.5,892.5C 207.136,912.668 207.636,932.668 209,952.5C 207.167,954.333 205.333,956.167 203.5,958C 199.516,957.814 195.516,957.814 191.5,958C 188.772,960.865 185.438,962.365 181.5,962.5C 181.553,952.492 181.886,942.492 182.5,932.5C 180.851,922.57 179.851,912.57 179.5,902.5C 181.833,901.833 184.167,901.167 186.5,900.5C 186.333,913.171 186.5,925.838 187,938.5C 188.85,942.889 190.85,947.223 193,951.5C 194.743,953.628 196.909,954.461 199.5,954C 203.64,945.947 201.306,940.947 192.5,939C 189.756,935.406 190.589,934.239 195,935.5C 196.672,936.505 198.005,937.839 199,939.5C 200.149,923.854 200.982,908.187 201.5,892.5 Z"/></g>
<g><path style="opacity:0.065" fill="#030401" d="M 669.5,966.5 C 670.79,967.058 671.623,968.058 672,969.5C 672.499,973.821 672.666,978.154 672.5,982.5C 671.883,982.389 671.383,982.056 671,981.5C 670.252,976.519 669.752,971.519 669.5,966.5 Z"/></g>
<g><path style="opacity:0.004" fill="#000000" d="M 938.5,966.5 C 939.833,967.167 939.833,967.167 938.5,966.5 Z"/></g>
<g><path style="opacity:0.004" fill="#000000" d="M 988.5,966.5 C 989.833,967.167 989.833,967.167 988.5,966.5 Z"/></g>
<g><path style="opacity:0.004" fill="#000000" d="M 1496.5,967.5 C 1495.83,966.167 1495.83,966.167 1496.5,967.5 Z"/></g>
<g><path style="opacity:0.004" fill="#000000" d="M 1709.5,966.5 C 1710.83,967.167 1710.83,967.167 1709.5,966.5 Z"/></g>
<g><path style="opacity:0.004" fill="#000000" d="M 1782.5,967.5 C 1781.83,966.167 1781.83,966.167 1782.5,967.5 Z"/></g>
<g><path style="opacity:0.004" fill="#000000" d="M 1789.5,966.5 C 1790.83,967.167 1790.83,967.167 1789.5,966.5 Z"/></g>
<g><path style="opacity:0.745" fill="#517f33" d="M 701.5,967.5 C 711.522,967.168 721.522,967.501 731.5,968.5C 734.354,971.604 733.854,973.938 730,975.5C 722.871,974.386 715.704,974.219 708.5,975C 709.833,979 709.833,983 708.5,987C 716.159,987.5 723.826,987.666 731.5,987.5C 731.683,989.936 731.016,992.103 729.5,994C 722.5,994.333 715.5,994.667 708.5,995C 709.833,999 709.833,1003 708.5,1007C 717.16,1007.5 725.827,1007.67 734.5,1007.5C 733.974,1010.71 732.308,1013.21 729.5,1015C 720.833,1015.67 712.167,1015.67 703.5,1015C 702.382,1013.93 701.382,1012.76 700.5,1011.5C 698.939,996.712 699.272,982.045 701.5,967.5 Z"/></g>
<g><path style="opacity:0.77" fill="#538134" d="M 771.5,966.5 C 778.741,966.186 785.074,968.353 790.5,973C 790.167,973.333 789.833,973.667 789.5,974C 790.967,975.098 791.801,976.598 792,978.5C 793.906,986.506 793.906,994.506 792,1002.5C 790.635,1007.86 787.468,1011.69 782.5,1014C 783.868,1017.87 785.868,1021.37 788.5,1024.5C 786.114,1028.12 783.28,1028.45 780,1025.5C 778.167,1022.33 776.333,1019.17 774.5,1016C 768.292,1016.32 762.625,1014.82 757.5,1011.5C 755.111,1008.5 753.278,1005.16 752,1001.5C 751.333,995.167 751.333,988.833 752,982.5C 754.595,972.299 761.095,966.966 771.5,966.5 Z M 767.5,974.5 C 771.182,974.335 774.848,974.501 778.5,975C 780.329,975.273 781.829,976.107 783,977.5C 784.568,985.421 784.901,993.421 784,1001.5C 783.315,1004.06 781.815,1005.89 779.5,1007C 765.77,1011.41 759.103,1006.57 759.5,992.5C 758.978,987.047 760.144,982.047 763,977.5C 764.409,976.219 765.909,975.219 767.5,974.5 Z"/></g>
<g><path style="opacity:0.759" fill="#538135" d="M 814.5,967.5 C 816.833,967.5 819.167,967.5 821.5,967.5C 820.82,980.384 821.654,993.051 824,1005.5C 824.5,1006 825,1006.5 825.5,1007C 830.5,1007.67 835.5,1007.67 840.5,1007C 842.049,1005.79 843.215,1004.29 844,1002.5C 844.333,991.167 844.667,979.833 845,968.5C 847.381,967.565 849.881,967.232 852.5,967.5C 852.667,979.505 852.5,991.505 852,1003.5C 851.425,1006.29 849.925,1008.95 847.5,1011.5C 837.833,1016.83 828.167,1016.83 818.5,1011.5C 816.733,1008.96 815.233,1006.3 814,1003.5C 813.189,991.424 813.355,979.424 814.5,967.5 Z"/></g>
<g><path style="opacity:0.762" fill="#548235" d="M 885.5,967.5 C 889.846,967.334 894.179,967.501 898.5,968C 899.333,968.833 900.167,969.667 901,970.5C 901.797,973.22 902.963,975.72 904.5,978C 904.167,978.333 903.833,978.667 903.5,979C 906.667,988.833 909.833,998.667 913,1008.5C 913.317,1015.23 910.984,1016.56 906,1012.5C 903.573,1007.81 901.907,1002.81 901,997.5C 894.667,998.833 888.333,998.833 882,997.5C 880.568,1002.58 878.901,1007.58 877,1012.5C 875.414,1013.38 873.914,1014.38 872.5,1015.5C 871.522,1015.02 870.689,1014.36 870,1013.5C 869.542,1010.44 869.876,1007.44 871,1004.5C 874.805,993.64 878.472,982.64 882,971.5C 883.088,969.31 884.254,967.977 885.5,967.5 Z M 893.5,975.5 C 896.78,979.819 898.447,984.819 898.5,990.5C 893.833,990.5 889.167,990.5 884.5,990.5C 885.225,985.267 886.725,980.267 889,975.5C 890.616,974.199 892.116,974.199 893.5,975.5 Z"/></g>
<g><path style="opacity:0.761" fill="#578236" d="M 938.5,967.5 C 939.769,980.716 939.769,993.882 938.5,1007C 947.16,1007.5 955.827,1007.67 964.5,1007.5C 964.66,1009.2 964.494,1010.87 964,1012.5C 962.391,1013.15 960.891,1013.98 959.5,1015C 950.814,1015.83 942.147,1015.67 933.5,1014.5C 932.833,1013.83 932.167,1013.17 931.5,1012.5C 930.351,998.212 930.184,983.878 931,969.5C 933.106,967.709 935.606,967.042 938.5,967.5 Z"/></g>
<g><path style="opacity:0.679" fill="#517f31" d="M 988.5,967.5 C 990.594,981.996 991.094,996.663 990,1011.5C 988.682,1014.94 986.182,1016.27 982.5,1015.5C 982.688,1013.9 982.188,1012.56 981,1011.5C 979.939,996.701 980.439,982.034 982.5,967.5C 984.5,967.5 986.5,967.5 988.5,967.5 Z"/></g>
<g><path style="opacity:0.678" fill="#5d8735" d="M 1007.5,967.5 C 1020.17,967.5 1032.83,967.5 1045.5,967.5C 1045.68,969.591 1045.35,971.591 1044.5,973.5C 1039.54,974.494 1034.54,974.827 1029.5,974.5C 1029.67,987.504 1029.5,1000.5 1029,1013.5C 1025.46,1016.49 1022.79,1015.82 1021,1011.5C 1020.19,999.454 1020.35,987.454 1021.5,975.5C 1016.2,974.671 1010.86,974.171 1005.5,974C 1004.98,973.439 1004.64,972.772 1004.5,972C 1005.73,970.614 1006.73,969.114 1007.5,967.5 Z"/></g>
<g><path style="opacity:0.777" fill="#558135" d="M 1053.5,967.5 C 1056.69,967.02 1059.52,967.686 1062,969.5C 1066.17,976.081 1070.17,982.747 1074,989.5C 1078.41,983.011 1082.58,976.344 1086.5,969.5C 1088.85,967.771 1091.52,967.104 1094.5,967.5C 1094.54,970.425 1093.71,973.091 1092,975.5C 1087.68,982.133 1083.35,988.8 1079,995.5C 1078.01,1001.8 1077.18,1008.13 1076.5,1014.5C 1074.21,1016.02 1072.21,1015.69 1070.5,1013.5C 1069.67,1007.53 1069.17,1001.53 1069,995.5C 1064.17,987.833 1059.33,980.167 1054.5,972.5C 1053.55,970.955 1053.21,969.288 1053.5,967.5 Z"/></g>
<g><path style="opacity:0.753" fill="#538134" d="M 1162.5,970.5 C 1164.73,976.938 1165.9,983.605 1166,990.5C 1166.31,991.308 1166.81,991.975 1167.5,992.5C 1169.9,988.729 1172.57,985.062 1175.5,981.5C 1178.54,979.958 1180.87,980.625 1182.5,983.5C 1178.94,988.889 1175.6,994.389 1172.5,1000C 1175.88,1003.72 1178.88,1007.72 1181.5,1012C 1180.44,1013.3 1179.27,1014.46 1178,1015.5C 1173.41,1013.91 1170.07,1010.91 1168,1006.5C 1165.68,1010.82 1162.18,1013.65 1157.5,1015C 1150.06,1016.38 1143.06,1015.38 1136.5,1012C 1134.11,1008.96 1133.11,1005.46 1133.5,1001.5C 1133.11,997.542 1134.11,994.042 1136.5,991C 1133.02,983.139 1134.02,975.973 1139.5,969.5C 1140.38,968.749 1141.38,968.249 1142.5,968C 1147.83,967.333 1153.17,967.333 1158.5,968C 1159.74,969.085 1161.07,969.918 1162.5,970.5 Z M 1145.5,974.5 C 1156.34,972.345 1160.34,976.678 1157.5,987.5C 1152.79,987.827 1148.12,987.493 1143.5,986.5C 1142.41,983.227 1142.25,979.894 1143,976.5C 1143.99,975.934 1144.83,975.267 1145.5,974.5 Z M 1142.5,994.5 C 1148.18,994.334 1153.84,994.501 1159.5,995C 1164.87,999.736 1164.2,1003.74 1157.5,1007C 1152.47,1007.83 1147.47,1007.66 1142.5,1006.5C 1141.24,1002.5 1141.24,998.502 1142.5,994.5 Z"/></g>
<g><path style="opacity:0.748" fill="#548135" d="M 1238.5,966.5 C 1244.49,966.151 1250.33,966.818 1256,968.5C 1257.58,970.624 1257.75,972.79 1256.5,975C 1249.87,974.505 1243.21,974.505 1236.5,975C 1233.28,975.927 1231.95,978.094 1232.5,981.5C 1232.55,983.1 1232.88,984.6 1233.5,986C 1241.45,986.748 1249.11,988.415 1256.5,991C 1262.84,1007.4 1257.18,1015.57 1239.5,1015.5C 1235.01,1015.35 1230.68,1014.52 1226.5,1013C 1224.77,1011.21 1224.1,1009.04 1224.5,1006.5C 1232.48,1007.49 1240.48,1007.66 1248.5,1007C 1249.66,1005.1 1250.66,1003.1 1251.5,1001C 1251.57,998.966 1250.73,997.466 1249,996.5C 1243.81,995.639 1238.64,994.639 1233.5,993.5C 1230.37,993.016 1227.71,991.683 1225.5,989.5C 1223.17,981.946 1224.5,975.279 1229.5,969.5C 1232.5,968.182 1235.5,967.182 1238.5,966.5 Z"/></g>
<g><path style="opacity:0.753" fill="#548234" d="M 1278.5,967.5 C 1280.83,967.5 1283.17,967.5 1285.5,967.5C 1285.33,978.172 1285.5,988.839 1286,999.5C 1286.27,1006.05 1289.94,1008.72 1297,1007.5C 1299.5,1007.33 1302,1007.17 1304.5,1007C 1305.77,1005.69 1306.77,1004.19 1307.5,1002.5C 1308.33,991.181 1308.83,979.848 1309,968.5C 1311.33,967.167 1313.67,967.167 1316,968.5C 1316.83,980.514 1316.67,992.514 1315.5,1004.5C 1314.9,1007.26 1313.56,1009.6 1311.5,1011.5C 1301.93,1016.66 1292.26,1016.83 1282.5,1012C 1280.86,1009.21 1279.36,1006.38 1278,1003.5C 1277.19,991.424 1277.36,979.424 1278.5,967.5 Z"/></g>
<g><path style="opacity:0.737" fill="#538134" d="M 1366.5,1012.5 C 1358.48,1015.61 1350.15,1016.28 1341.5,1014.5C 1337.38,1013.38 1335.71,1010.71 1336.5,1006.5C 1344.14,1007.52 1351.81,1007.69 1359.5,1007C 1363.12,1003.59 1363.29,1000.09 1360,996.5C 1352.3,995.617 1344.8,993.95 1337.5,991.5C 1332.15,974.371 1338.32,966.038 1356,966.5C 1359.55,966.641 1363.05,967.141 1366.5,968C 1367.7,969.364 1368.7,970.864 1369.5,972.5C 1369.18,973.647 1368.52,974.481 1367.5,975C 1360.89,974.457 1354.22,974.457 1347.5,975C 1343.85,977.667 1342.85,981.167 1344.5,985.5C 1349.91,986.917 1355.41,987.917 1361,988.5C 1363.64,989.151 1366.14,990.151 1368.5,991.5C 1371.56,998.891 1370.89,1005.89 1366.5,1012.5 Z"/></g>
<g><path style="opacity:0.69" fill="#568139" d="M 1384.5,967.5 C 1397.5,967.5 1410.5,967.5 1423.5,967.5C 1423.68,969.591 1423.35,971.591 1422.5,973.5C 1417.54,974.494 1412.54,974.827 1407.5,974.5C 1407.67,987.171 1407.5,999.838 1407,1012.5C 1405.69,1015.31 1403.53,1016.14 1400.5,1015C 1399.81,1013.93 1399.31,1012.77 1399,1011.5C 1398.18,999.591 1398.35,987.757 1399.5,976C 1394.31,974.879 1388.98,974.045 1383.5,973.5C 1382.91,971.519 1383.24,969.519 1384.5,967.5 Z"/></g>
<g><path style="opacity:0.757" fill="#548234" d="M 1450.5,967.5 C 1454.51,967.334 1458.51,967.501 1462.5,968C 1464.02,969.351 1465.35,970.851 1466.5,972.5C 1470.44,983.989 1473.94,995.655 1477,1007.5C 1477.66,1016.21 1475.16,1017.37 1469.5,1011C 1468.77,1007.04 1467.43,1003.38 1465.5,1000C 1465.83,999.667 1466.17,999.333 1466.5,999C 1459.5,998.333 1452.5,998.333 1445.5,999C 1445.83,999.333 1446.17,999.667 1446.5,1000C 1444.57,1003.38 1443.23,1007.04 1442.5,1011C 1440.75,1013.88 1438.42,1015.04 1435.5,1014.5C 1434.98,1013.39 1434.64,1012.23 1434.5,1011C 1437.76,999.48 1441.09,987.98 1444.5,976.5C 1445.78,972.972 1447.78,969.972 1450.5,967.5 Z M 1453.5,974.5 C 1455.47,974.261 1457.3,974.594 1459,975.5C 1460.57,980.511 1462.07,985.511 1463.5,990.5C 1458.46,990.827 1453.46,990.494 1448.5,989.5C 1450.62,984.673 1452.29,979.673 1453.5,974.5 Z"/></g>
<g><path style="opacity:0.522" fill="#648b38" d="M 1496.5,967.5 C 1498.53,967.338 1500.53,967.505 1502.5,968C 1503.13,968.75 1503.63,969.584 1504,970.5C 1504.67,984.167 1504.67,997.833 1504,1011.5C 1502.68,1014.94 1500.18,1016.27 1496.5,1015.5C 1495.18,999.493 1495.18,983.493 1496.5,967.5 Z"/></g>
<g><path style="opacity:0.763" fill="#598634" d="M 1528.5,967.5 C 1532.18,967.335 1535.85,967.501 1539.5,968C 1540,968.5 1540.5,969 1541,969.5C 1546.95,982.479 1552.62,995.145 1558,1007.5C 1558.33,995.167 1558.67,982.833 1559,970.5C 1560.85,968.047 1563.35,967.047 1566.5,967.5C 1566.67,982.504 1566.5,997.504 1566,1012.5C 1560.72,1016.7 1555.72,1016.37 1551,1011.5C 1545.58,999.053 1540.08,986.719 1534.5,974.5C 1533.83,987.5 1533.17,1000.5 1532.5,1013.5C 1530.27,1016.22 1528.27,1016.05 1526.5,1013C 1525.36,1000.2 1525.19,987.367 1526,974.5C 1526.45,971.969 1527.28,969.636 1528.5,967.5 Z"/></g>
<g><path style="opacity:0.752" fill="#548234" d="M 1601.5,967.5 C 1608.08,966.331 1613.58,967.998 1618,972.5C 1621.69,985.126 1625.19,997.793 1628.5,1010.5C 1627.2,1016.73 1624.7,1017.06 1621,1011.5C 1619.36,1007.29 1618.2,1002.96 1617.5,998.5C 1610.8,998.17 1604.13,998.503 1597.5,999.5C 1595.55,1003.62 1594.05,1007.96 1593,1012.5C 1591.41,1013.38 1589.91,1014.38 1588.5,1015.5C 1587.52,1015.02 1586.69,1014.36 1586,1013.5C 1585.76,1009.61 1586.26,1005.78 1587.5,1002C 1590.1,993.483 1592.77,984.983 1595.5,976.5C 1596.78,972.929 1598.78,969.929 1601.5,967.5 Z M 1605.5,974.5 C 1607.14,974.286 1608.64,974.62 1610,975.5C 1612.58,980.136 1614.08,985.136 1614.5,990.5C 1609.46,990.827 1604.46,990.494 1599.5,989.5C 1601.36,984.372 1603.36,979.372 1605.5,974.5 Z"/></g>
<g><path style="opacity:0.755" fill="#588335" d="M 1647.5,967.5 C 1656.51,967.334 1665.51,967.5 1674.5,968C 1679.34,969.99 1681.67,973.656 1681.5,979C 1680.83,982.333 1680.17,985.667 1679.5,989C 1681.01,992.836 1682.34,996.669 1683.5,1000.5C 1683.17,1007.84 1679.5,1012.5 1672.5,1014.5C 1664.85,1015.66 1657.19,1015.83 1649.5,1015C 1649,1014.5 1648.5,1014 1648,1013.5C 1646.87,1006.27 1646.37,998.934 1646.5,991.5C 1646.57,983.474 1646.9,975.474 1647.5,967.5 Z M 1654.5,974.5 C 1660.55,974.303 1666.55,974.637 1672.5,975.5C 1672.67,978.85 1672.5,982.183 1672,985.5C 1666.25,986.641 1660.42,986.807 1654.5,986C 1655.73,982.2 1655.73,978.367 1654.5,974.5 Z M 1654.5,995.5 C 1660.32,994.347 1666.32,994.181 1672.5,995C 1676.42,998.733 1676.42,1002.57 1672.5,1006.5C 1666.53,1007.66 1660.53,1007.83 1654.5,1007C 1655.82,1003.07 1655.82,999.233 1654.5,995.5 Z"/></g>
<g><path style="opacity:0.507" fill="#569534" d="M 1709.5,967.5 C 1711.59,981.996 1712.09,996.663 1711,1011.5C 1709.42,1014.54 1706.92,1015.87 1703.5,1015.5C 1703.69,1013.9 1703.19,1012.56 1702,1011.5C 1700.94,996.701 1701.44,982.034 1703.5,967.5C 1705.5,967.5 1707.5,967.5 1709.5,967.5 Z"/></g>
<g><path style="opacity:0.771" fill="#558835" d="M 1732.5,967.5 C 1736.16,966.872 1738.66,968.206 1740,971.5C 1740.82,983.409 1740.65,995.243 1739.5,1007C 1748.16,1007.5 1756.83,1007.67 1765.5,1007.5C 1765.57,1011.6 1763.57,1014.1 1759.5,1015C 1751.17,1015.67 1742.83,1015.67 1734.5,1015C 1734,1014.5 1733.5,1014 1733,1013.5C 1731.87,1005.93 1731.37,998.266 1731.5,990.5C 1731.53,982.788 1731.87,975.121 1732.5,967.5 Z"/></g>
<g><path style="opacity:0.633" fill="#5d8143" d="M 1782.5,967.5 C 1784.83,967.5 1787.17,967.5 1789.5,967.5C 1790.62,982.135 1790.78,996.801 1790,1011.5C 1787.07,1016.76 1784.4,1016.76 1782,1011.5C 1781.23,996.808 1781.4,982.141 1782.5,967.5 Z"/></g>
<g><path style="opacity:0.684" fill="#578833" d="M 1806.5,967.5 C 1819.17,967.5 1831.83,967.5 1844.5,967.5C 1844.68,969.591 1844.35,971.591 1843.5,973.5C 1838.53,974.329 1833.53,974.829 1828.5,975C 1829.65,987.424 1829.82,999.924 1829,1012.5C 1827.15,1015.04 1824.65,1016.04 1821.5,1015.5C 1821.69,1013.9 1821.19,1012.56 1820,1011.5C 1819.18,999.258 1819.35,987.091 1820.5,975C 1815.17,974.667 1809.83,974.333 1804.5,974C 1803.98,973.439 1803.64,972.772 1803.5,972C 1804.73,970.614 1805.73,969.114 1806.5,967.5 Z"/></g>
<g><path style="opacity:0.765" fill="#538134" d="M 1854.5,967.5 C 1857.12,967.232 1859.62,967.565 1862,968.5C 1866.08,975.668 1870.42,982.668 1875,989.5C 1878.94,982.235 1883.27,975.235 1888,968.5C 1890.38,967.565 1892.88,967.232 1895.5,967.5C 1891.41,977.005 1886.24,986.005 1880,994.5C 1879.06,1001.15 1878.22,1007.81 1877.5,1014.5C 1875.03,1016.01 1872.86,1015.67 1871,1013.5C 1870.83,1007.47 1870.33,1001.47 1869.5,995.5C 1864.86,987.7 1860.03,980.033 1855,972.5C 1854.51,970.866 1854.34,969.199 1854.5,967.5 Z"/></g>
<g><path style="opacity:0.004" fill="#000000" d="M 1162.5,969.5 C 1163.83,970.167 1163.83,970.167 1162.5,969.5 Z"/></g>
<g><path style="opacity:1" fill="#c2d5b4" d="M 492.5,972.5 C 497.518,972.613 502.518,972.947 507.5,973.5C 509.071,980.594 510.405,987.76 511.5,995C 509.112,1003.31 508.112,1011.81 508.5,1020.5C 509.076,1053.19 509.743,1085.86 510.5,1118.5C 500.81,1118.83 491.144,1118.5 481.5,1117.5C 482.833,1115.5 484.167,1113.5 485.5,1111.5C 490.32,1110.54 494.987,1109.21 499.5,1107.5C 499.666,1101.16 499.5,1094.82 499,1088.5C 495.513,1087.68 493.347,1085.51 492.5,1082C 495.395,1077.44 499.228,1073.94 504,1071.5C 504.49,1070.21 504.657,1068.87 504.5,1067.5C 499.784,1067.15 495.117,1066.49 490.5,1065.5C 490.215,1063.71 490.548,1062.05 491.5,1060.5C 496.347,1057 500.014,1052.67 502.5,1047.5C 499.214,1048.21 495.881,1048.54 492.5,1048.5C 493.3,1043.12 495.634,1038.45 499.5,1034.5C 500.699,1029.88 501.199,1025.21 501,1020.5C 500.439,1019.98 499.772,1019.64 499,1019.5C 496.889,1020.47 494.722,1021.31 492.5,1022C 489.644,1024.35 486.644,1026.52 483.5,1028.5C 481.5,1028.5 480.5,1027.5 480.5,1025.5C 483.655,1020.28 487.155,1015.28 491,1010.5C 491.871,1005.14 493.371,999.971 495.5,995C 495.415,993.893 495.081,992.893 494.5,992C 491.167,990.667 487.833,989.333 484.5,988C 481.84,986.343 481.84,984.676 484.5,983C 482.105,975.567 484.772,972.067 492.5,972.5 Z"/></g>
<g><path style="opacity:0.004" fill="#000000" d="M 1862.5,987.5 C 1863.83,988.167 1863.83,988.167 1862.5,987.5 Z"/></g>
<g><path style="opacity:1" fill="#c0d3b1" d="M 428.5,988.5 C 433.507,988.751 438.507,989.084 443.5,989.5C 443.663,991.857 443.497,994.19 443,996.5C 440.333,999.167 437.667,1001.83 435,1004.5C 434.219,1005.94 434.386,1007.28 435.5,1008.5C 439.674,1006.86 442.507,1003.86 444,999.5C 449.099,995.044 451.599,996.378 451.5,1003.5C 447.431,1008.74 442.597,1013.07 437,1016.5C 434.744,1022.7 432.744,1029.03 431,1035.5C 430.24,1045.94 428.74,1056.28 426.5,1066.5C 426.833,1067.83 427.167,1069.17 427.5,1070.5C 429.705,1071.87 431.372,1073.7 432.5,1076C 430.441,1077.5 429.108,1079.5 428.5,1082C 426.527,1082.5 424.527,1082.66 422.5,1082.5C 420.349,1064.64 418.015,1046.8 415.5,1029C 415.667,1026.83 415.833,1024.67 416,1022.5C 418.221,1018.09 419.721,1013.43 420.5,1008.5C 418.397,1002.58 418.064,996.583 419.5,990.5C 422.727,990.324 425.727,989.657 428.5,988.5 Z"/></g>
<g><path style="opacity:0.004" fill="#000000" d="M 1337.5,991.5 C 1336.83,992.167 1336.83,992.167 1337.5,991.5 Z"/></g>
<g><path style="opacity:1" fill="#c0d5b3" d="M 607.5,990.5 C 610.48,990.62 613.313,991.287 616,992.5C 617.361,996.495 617.527,1000.49 616.5,1004.5C 607.36,1009.1 598.027,1013.1 588.5,1016.5C 585.888,1015.06 583.388,1013.4 581,1011.5C 580.08,1008.69 580.913,1006.53 583.5,1005C 588.496,1004.39 593.496,1003.89 598.5,1003.5C 598.351,1002.45 598.517,1001.45 599,1000.5C 601.669,997 604.502,993.667 607.5,990.5 Z"/></g>
<g><path style="opacity:0.004" fill="#000000" d="M 1169.5,1011.5 C 1170.83,1012.17 1170.83,1012.17 1169.5,1011.5 Z"/></g>
<g><path style="opacity:0.004" fill="#000000" d="M 1256.5,1011.5 C 1257.83,1012.17 1257.83,1012.17 1256.5,1011.5 Z"/></g>
<g><path style="opacity:0.004" fill="#000000" d="M 1256.5,1012.5 C 1255.83,1013.17 1255.83,1013.17 1256.5,1012.5 Z"/></g>
<g><path style="opacity:0.004" fill="#000000" d="M 1366.5,1012.5 C 1367.83,1013.17 1367.83,1013.17 1366.5,1012.5 Z"/></g>
<g><path style="opacity:1" fill="#c4d6b7" d="M 447.5,1028.5 C 448.5,1028.5 449.5,1028.5 450.5,1028.5C 450.5,1038.83 450.5,1049.17 450.5,1059.5C 451.833,1059.5 453.167,1059.5 454.5,1059.5C 454.5,1060.5 454.5,1061.5 454.5,1062.5C 452.365,1062.15 451.032,1062.98 450.5,1065C 451.77,1070.82 451.77,1076.66 450.5,1082.5C 448.149,1084.23 445.482,1084.9 442.5,1084.5C 443.009,1067.17 443.509,1049.84 444,1032.5C 445.376,1031.29 446.542,1029.96 447.5,1028.5 Z"/></g>
<g><path style="opacity:0.926" fill="#517d32" d="M 994.5,1045.5 C 994.5,1046.17 994.833,1046.5 995.5,1046.5C 995.5,1047.17 995.833,1047.5 996.5,1047.5C 1003.57,1067.75 1009.9,1088.25 1015.5,1109C 1015.92,1112.75 1014.25,1114.25 1010.5,1113.5C 1008.55,1113.28 1006.88,1112.61 1005.5,1111.5C 1003.96,1105.67 1001.96,1100.01 999.5,1094.5C 999.739,1092.53 999.406,1090.7 998.5,1089C 988.172,1088.5 977.839,1088.33 967.5,1088.5C 965.53,1095.81 963.364,1103.15 961,1110.5C 959.005,1112.75 956.505,1113.75 953.5,1113.5C 951.879,1113.21 950.879,1112.21 950.5,1110.5C 955.992,1094.82 960.658,1079.15 964.5,1063.5C 966.243,1060.01 967.909,1056.51 969.5,1053C 969.167,1052.67 968.833,1052.33 968.5,1052C 970.132,1049.03 972.465,1046.7 975.5,1045C 981.879,1043.17 988.213,1043.34 994.5,1045.5 Z M 990.5,1060.5 C 992.184,1066.9 993.684,1073.23 995,1079.5C 989.593,1078.53 984.093,1078.19 978.5,1078.5C 980.847,1073.05 983.014,1067.38 985,1061.5C 986.699,1060.59 988.533,1060.26 990.5,1060.5 Z"/></g>
<g><path style="opacity:0.914" fill="#507c32" d="M 1882.5,1045.5 C 1884.88,1048.47 1884.88,1051.3 1882.5,1054C 1871.48,1053 1860.48,1053.33 1849.5,1055C 1844.66,1060.38 1844.33,1066.05 1848.5,1072C 1849.45,1072.48 1850.45,1072.65 1851.5,1072.5C 1861.83,1073.37 1871.83,1075.37 1881.5,1078.5C 1881.84,1079.34 1882.51,1079.67 1883.5,1079.5C 1883.5,1079.83 1883.5,1080.17 1883.5,1080.5C 1891.13,1104.03 1882.63,1115.36 1858,1114.5C 1851.68,1114.71 1845.51,1114.04 1839.5,1112.5C 1838.83,1112.5 1838.5,1112.83 1838.5,1113.5C 1837.81,1110.24 1837.48,1106.57 1837.5,1102.5C 1848.77,1105.02 1860.11,1105.52 1871.5,1104C 1875.04,1100.61 1876.37,1096.45 1875.5,1091.5C 1875.71,1089.86 1875.38,1088.36 1874.5,1087C 1862.41,1084.68 1850.41,1081.84 1838.5,1078.5C 1833.85,1068.1 1834.85,1058.27 1841.5,1049C 1845.9,1045.65 1850.9,1043.98 1856.5,1044C 1865.27,1043.14 1873.94,1043.64 1882.5,1045.5 Z"/></g>
<g><path style="opacity:0.916" fill="#507d32" d="M 748.5,1045.5 C 749.523,1048.39 749.523,1051.23 748.5,1054C 742.851,1054.07 737.184,1053.9 731.5,1053.5C 726.12,1053.54 720.786,1054.04 715.5,1055C 713.667,1056.83 711.833,1058.67 710,1060.5C 704.951,1074.12 705.451,1087.45 711.5,1100.5C 713.422,1102.58 715.755,1103.92 718.5,1104.5C 727.173,1104.67 735.84,1104.5 744.5,1104C 747.994,1101.53 749.994,1102.37 750.5,1106.5C 749.32,1109.84 746.987,1112.01 743.5,1113C 733.189,1114.94 722.855,1114.94 712.5,1113C 708.984,1111.41 705.65,1109.58 702.5,1107.5C 702.672,1106.51 702.338,1105.84 701.5,1105.5C 699.958,1104.96 699.125,1103.29 699,1100.5C 698.29,1093.67 697.123,1087 695.5,1080.5C 697.072,1073.55 698.405,1066.55 699.5,1059.5C 706.08,1047.32 716.413,1041.99 730.5,1043.5C 736.538,1043.95 742.538,1044.62 748.5,1045.5 Z"/></g>
<g><path style="opacity:0.896" fill="#507d33" d="M 834.5,1045.5 C 834.5,1054.83 834.5,1064.17 834.5,1073.5C 836.167,1073.5 837.833,1073.5 839.5,1073.5C 849.167,1073.5 858.833,1073.5 868.5,1073.5C 868.334,1064.16 868.5,1054.83 869,1045.5C 872.165,1044.21 875.332,1044.21 878.5,1045.5C 878.667,1067.84 878.5,1090.17 878,1112.5C 875.281,1113.44 872.448,1113.78 869.5,1113.5C 868.507,1105.35 868.174,1097.02 868.5,1088.5C 868.5,1086.5 868.5,1084.5 868.5,1082.5C 857.167,1082.5 845.833,1082.5 834.5,1082.5C 834.666,1092.17 834.5,1101.84 834,1111.5C 831.894,1113.29 829.394,1113.96 826.5,1113.5C 824.51,1090.86 823.844,1067.86 824.5,1044.5C 827.939,1044.25 831.272,1044.59 834.5,1045.5 Z"/></g>
<g><path style="opacity:0.111" fill="#010200" d="M 1005.5,1111.5 C 1006.88,1112.61 1008.55,1113.28 1010.5,1113.5C 1014.25,1114.25 1015.92,1112.75 1015.5,1109C 1009.9,1088.25 1003.57,1067.75 996.5,1047.5C 995.833,1047.5 995.5,1047.17 995.5,1046.5C 994.833,1046.5 994.5,1046.17 994.5,1045.5C 995.117,1045.39 995.617,1045.06 996,1044.5C 999.667,1046.83 1002.67,1049.83 1005,1053.5C 1011.13,1072.33 1016.79,1091.33 1022,1110.5C 1023.59,1117 1021.09,1120.33 1014.5,1120.5C 1008.49,1120.49 1005.49,1117.49 1005.5,1111.5 Z"/></g>
<g><path style="opacity:0.942" fill="#517e33" d="M 1098.5,1046.5 C 1098.5,1065.83 1098.5,1085.17 1098.5,1104.5C 1100.5,1104.5 1102.5,1104.5 1104.5,1104.5C 1115.88,1103.86 1126.88,1104.52 1137.5,1106.5C 1136.41,1109.43 1134.41,1111.59 1131.5,1113C 1117.84,1113.5 1104.17,1113.67 1090.5,1113.5C 1088.51,1090.86 1087.84,1067.86 1088.5,1044.5C 1092.18,1044.06 1095.51,1044.73 1098.5,1046.5 Z"/></g>
<g><path style="opacity:0.916" fill="#517e33" d="M 1216.5,1045.5 C 1217.49,1065.09 1217.82,1084.76 1217.5,1104.5C 1219.5,1104.5 1221.5,1104.5 1223.5,1104.5C 1234.5,1104.5 1245.5,1104.5 1256.5,1104.5C 1256.5,1105.5 1256.5,1106.5 1256.5,1107.5C 1255,1109.84 1253,1111.67 1250.5,1113C 1237.17,1113.5 1223.84,1113.67 1210.5,1113.5C 1209.5,1113.5 1208.5,1113.5 1207.5,1113.5C 1207.5,1090.5 1207.5,1067.5 1207.5,1044.5C 1210.71,1044.19 1213.71,1044.52 1216.5,1045.5 Z"/></g>
<g><path style="opacity:0.942" fill="#517e33" d="M 1372.5,1045.5 C 1373.15,1047.16 1373.81,1048.82 1374.5,1050.5C 1374.39,1051.44 1374.06,1052.28 1373.5,1053C 1361.5,1053.5 1349.5,1053.67 1337.5,1053.5C 1337.5,1060.5 1337.5,1067.5 1337.5,1074.5C 1339.29,1074.63 1340.96,1074.3 1342.5,1073.5C 1351.51,1073.33 1360.51,1073.5 1369.5,1074C 1370.04,1074.72 1370.71,1075.22 1371.5,1075.5C 1371.73,1078.78 1370.4,1081.28 1367.5,1083C 1357.51,1083.5 1347.51,1083.67 1337.5,1083.5C 1337.5,1090.5 1337.5,1097.5 1337.5,1104.5C 1339.17,1104.5 1340.83,1104.5 1342.5,1104.5C 1353.88,1103.86 1364.88,1104.52 1375.5,1106.5C 1374.46,1109.06 1372.79,1111.22 1370.5,1113C 1356.84,1113.5 1343.17,1113.67 1329.5,1113.5C 1328.5,1113.5 1327.5,1113.5 1326.5,1113.5C 1326.17,1090.82 1326.5,1068.16 1327.5,1045.5C 1342.53,1044.17 1357.53,1044.17 1372.5,1045.5 Z"/></g>
<g><path style="opacity:0.942" fill="#507d32" d="M 1468.5,1045.5 C 1477.09,1064.75 1485.59,1084.08 1494,1103.5C 1496.55,1106.19 1497.72,1105.53 1497.5,1101.5C 1497.33,1083.16 1497.5,1064.83 1498,1046.5C 1500.84,1044.5 1504.01,1044 1507.5,1045C 1508.25,1045.67 1508.59,1046.5 1508.5,1047.5C 1507.68,1067.76 1507.18,1088.09 1507,1108.5C 1505,1112.33 1501.84,1114.33 1497.5,1114.5C 1493.74,1114.69 1490.41,1113.69 1487.5,1111.5C 1487.5,1110.83 1487.17,1110.5 1486.5,1110.5C 1486.17,1110.5 1485.83,1110.5 1485.5,1110.5C 1479.19,1094.72 1472.85,1079.72 1466.5,1065.5C 1466.5,1064.83 1466.17,1064.5 1465.5,1064.5C 1465.5,1063.83 1465.5,1063.17 1465.5,1062.5C 1465.5,1061.83 1465.17,1061.5 1464.5,1061.5C 1464.5,1061.17 1464.5,1060.83 1464.5,1060.5C 1464.58,1055.6 1462.24,1053.27 1457.5,1053.5C 1457.67,1073.17 1457.5,1092.84 1457,1112.5C 1454.96,1113.42 1452.79,1113.76 1450.5,1113.5C 1449.17,1103.02 1448.5,1092.19 1448.5,1081C 1448.83,1070.17 1449.17,1059.33 1449.5,1048.5C 1450.36,1046.8 1451.7,1045.64 1453.5,1045C 1458.55,1044.27 1463.55,1044.44 1468.5,1045.5 Z"/></g>
<g><path style="opacity:0.932" fill="#507b32" d="M 1637.5,1047.5 C 1639.25,1049.53 1639.58,1051.7 1638.5,1054C 1628.51,1053.67 1618.51,1053.67 1608.5,1054C 1600.65,1055.11 1595.98,1059.61 1594.5,1067.5C 1592.73,1078.41 1593.56,1089.08 1597,1099.5C 1598.73,1101.45 1600.9,1102.45 1603.5,1102.5C 1611.54,1106.11 1619.88,1106.45 1628.5,1103.5C 1628.37,1099.85 1628.71,1096.19 1629.5,1092.5C 1629.99,1090.19 1630.33,1087.86 1630.5,1085.5C 1625.5,1085.5 1620.5,1085.5 1615.5,1085.5C 1613.62,1085.29 1612.28,1084.29 1611.5,1082.5C 1612.75,1081 1613.75,1079.33 1614.5,1077.5C 1622.99,1076.18 1631.32,1076.18 1639.5,1077.5C 1640.64,1087.42 1640.81,1097.42 1640,1107.5C 1639.53,1108.93 1638.7,1110.1 1637.5,1111C 1625.02,1114.72 1612.35,1115.39 1599.5,1113C 1596.29,1111.44 1593.29,1109.61 1590.5,1107.5C 1590.5,1106.83 1590.17,1106.5 1589.5,1106.5C 1589.5,1106.17 1589.5,1105.83 1589.5,1105.5C 1589.16,1104.66 1588.49,1104.33 1587.5,1104.5C 1580.35,1087.05 1581.18,1070.05 1590,1053.5C 1593.85,1048.99 1598.68,1046.16 1604.5,1045C 1614.17,1043.05 1623.84,1043.05 1633.5,1045C 1635.13,1045.48 1636.47,1046.31 1637.5,1047.5 Z"/></g>
<g><path style="opacity:0.955" fill="#517e33" d="M 1763.5,1045.5 C 1764.15,1047.16 1764.81,1048.82 1765.5,1050.5C 1765.39,1051.44 1765.06,1052.28 1764.5,1053C 1752.17,1053.5 1739.84,1053.67 1727.5,1053.5C 1727.5,1060.83 1727.5,1068.17 1727.5,1075.5C 1729.7,1075.4 1731.7,1074.73 1733.5,1073.5C 1742.51,1073.33 1751.51,1073.5 1760.5,1074C 1761.04,1074.72 1761.71,1075.22 1762.5,1075.5C 1762.73,1078.78 1761.4,1081.28 1758.5,1083C 1748.51,1083.5 1738.51,1083.67 1728.5,1083.5C 1728.5,1090.5 1728.5,1097.5 1728.5,1104.5C 1730.17,1104.5 1731.83,1104.5 1733.5,1104.5C 1744.88,1103.86 1755.88,1104.52 1766.5,1106.5C 1765.46,1109.06 1763.79,1111.22 1761.5,1113C 1747.84,1113.5 1734.17,1113.67 1720.5,1113.5C 1719.5,1113.5 1718.5,1113.5 1717.5,1113.5C 1717.17,1090.82 1717.5,1068.16 1718.5,1045.5C 1733.53,1044.17 1748.53,1044.17 1763.5,1045.5 Z"/></g>
<g><path style="opacity:0.167" fill="#010301" d="M 1851.5,1072.5 C 1850.45,1072.65 1849.45,1072.48 1848.5,1072C 1844.33,1066.05 1844.66,1060.38 1849.5,1055C 1860.48,1053.33 1871.48,1053 1882.5,1054C 1884.88,1051.3 1884.88,1048.47 1882.5,1045.5C 1887.74,1045.91 1890.74,1049.08 1891.5,1055C 1890.72,1058.28 1888.72,1060.45 1885.5,1061.5C 1876.2,1060.29 1866.7,1060.29 1857,1061.5C 1854.55,1064.89 1852.72,1068.56 1851.5,1072.5 Z"/></g>
<g><path style="opacity:0.169" fill="#020401" d="M 748.5,1045.5 C 755.866,1048.06 758.2,1052.9 755.5,1060C 753.634,1060.98 751.634,1061.48 749.5,1061.5C 741.42,1060.68 733.253,1060.35 725,1060.5C 721.797,1061.77 719.13,1063.77 717,1066.5C 712.742,1079.23 713.242,1091.9 718.5,1104.5C 715.755,1103.92 713.422,1102.58 711.5,1100.5C 705.451,1087.45 704.951,1074.12 710,1060.5C 711.833,1058.67 713.667,1056.83 715.5,1055C 720.786,1054.04 726.12,1053.54 731.5,1053.5C 737.184,1053.9 742.851,1054.07 748.5,1054C 749.523,1051.23 749.523,1048.39 748.5,1045.5 Z"/></g>
<g><path style="opacity:0.123" fill="#000100" d="M 834.5,1045.5 C 839.061,1045.56 841.561,1047.89 842,1052.5C 842.5,1059.16 842.666,1065.83 842.5,1072.5C 841.209,1072.26 840.209,1072.6 839.5,1073.5C 837.833,1073.5 836.167,1073.5 834.5,1073.5C 834.5,1064.17 834.5,1054.83 834.5,1045.5 Z"/></g>
<g><path style="opacity:0.148" fill="#000000" d="M 878.5,1045.5 C 882.717,1045.21 884.883,1047.21 885,1051.5C 885.667,1072.5 885.667,1093.5 885,1114.5C 884.442,1118.89 881.942,1120.89 877.5,1120.5C 871.985,1121.31 869.318,1118.98 869.5,1113.5C 872.448,1113.78 875.281,1113.44 878,1112.5C 878.5,1090.17 878.667,1067.84 878.5,1045.5 Z"/></g>
<g><path style="opacity:0.164" fill="#000000" d="M 1104.5,1104.5 C 1102.5,1104.5 1100.5,1104.5 1098.5,1104.5C 1098.5,1085.17 1098.5,1065.83 1098.5,1046.5C 1101.92,1045.31 1104.09,1046.64 1105,1050.5C 1105.82,1068.57 1105.65,1086.57 1104.5,1104.5 Z"/></g>
<g><path style="opacity:0.129" fill="#000100" d="M 1216.5,1045.5 C 1222.09,1045.26 1224.93,1047.93 1225,1053.5C 1225.67,1069.83 1225.67,1086.17 1225,1102.5C 1224.28,1103.04 1223.78,1103.71 1223.5,1104.5C 1221.5,1104.5 1219.5,1104.5 1217.5,1104.5C 1217.82,1084.76 1217.49,1065.09 1216.5,1045.5 Z"/></g>
<g><path style="opacity:0.162" fill="#000000" d="M 1372.5,1045.5 C 1376.96,1045.79 1379.79,1048.12 1381,1052.5C 1381.69,1057.81 1379.36,1060.81 1374,1061.5C 1365.03,1061.39 1355.86,1061.23 1346.5,1061C 1345.11,1065.16 1343.78,1069.32 1342.5,1073.5C 1340.96,1074.3 1339.29,1074.63 1337.5,1074.5C 1337.5,1067.5 1337.5,1060.5 1337.5,1053.5C 1349.5,1053.67 1361.5,1053.5 1373.5,1053C 1374.06,1052.28 1374.39,1051.44 1374.5,1050.5C 1373.81,1048.82 1373.15,1047.16 1372.5,1045.5 Z"/></g>
<g><path style="opacity:0.095" fill="#010200" d="M 1468.5,1045.5 C 1471.34,1046.17 1473.84,1047.51 1476,1049.5C 1484.07,1066.62 1491.24,1083.95 1497.5,1101.5C 1497.72,1105.53 1496.55,1106.19 1494,1103.5C 1485.59,1084.08 1477.09,1064.75 1468.5,1045.5 Z"/></g>
<g><path style="opacity:0.14" fill="#020401" d="M 1485.5,1110.5 C 1485.83,1110.5 1486.17,1110.5 1486.5,1110.5C 1487.17,1110.5 1487.5,1110.83 1487.5,1111.5C 1490.41,1113.69 1493.74,1114.69 1497.5,1114.5C 1501.84,1114.33 1505,1112.33 1507,1108.5C 1507.18,1088.09 1507.68,1067.76 1508.5,1047.5C 1509.22,1047.08 1509.72,1046.42 1510,1045.5C 1512.76,1046.6 1514.43,1048.6 1515,1051.5C 1515.94,1072.21 1515.61,1092.88 1514,1113.5C 1511.64,1119.19 1507.3,1121.86 1501,1121.5C 1493.12,1121.43 1487.96,1117.77 1485.5,1110.5 Z"/></g>
<g><path style="opacity:0.161" fill="#020301" d="M 1763.5,1045.5 C 1767.96,1045.79 1770.79,1048.12 1772,1052.5C 1772.69,1057.81 1770.36,1060.81 1765,1061.5C 1756.03,1061.39 1746.86,1061.23 1737.5,1061C 1736.11,1065.16 1734.78,1069.32 1733.5,1073.5C 1731.7,1074.73 1729.7,1075.4 1727.5,1075.5C 1727.5,1068.17 1727.5,1060.83 1727.5,1053.5C 1739.84,1053.67 1752.17,1053.5 1764.5,1053C 1765.06,1052.28 1765.39,1051.44 1765.5,1050.5C 1764.81,1048.82 1764.15,1047.16 1763.5,1045.5 Z"/></g>
<g><path style="opacity:0.169" fill="#020301" d="M 1603.5,1102.5 C 1600.9,1102.45 1598.73,1101.45 1597,1099.5C 1593.56,1089.08 1592.73,1078.41 1594.5,1067.5C 1595.98,1059.61 1600.65,1055.11 1608.5,1054C 1618.51,1053.67 1628.51,1053.67 1638.5,1054C 1639.58,1051.7 1639.25,1049.53 1637.5,1047.5C 1641.47,1046.23 1643.97,1047.9 1645,1052.5C 1647.04,1058.37 1645.04,1061.71 1639,1062.5C 1636.88,1061.77 1634.71,1061.11 1632.5,1060.5C 1626.59,1060.54 1620.59,1060.71 1614.5,1061C 1612.9,1061.27 1611.4,1061.77 1610,1062.5C 1608.13,1061.91 1606.46,1062.58 1605,1064.5C 1601.79,1070.05 1600.29,1076.05 1600.5,1082.5C 1600.76,1089.3 1601.76,1095.97 1603.5,1102.5 Z"/></g>
<g><path style="opacity:1" fill="#c2d5b5" d="M 527.5,1046.5 C 529.451,1046.23 530.951,1046.89 532,1048.5C 532.333,1065.5 532.667,1082.5 533,1099.5C 534.545,1103.9 536.045,1108.23 537.5,1112.5C 561.576,1111.89 585.576,1112.56 609.5,1114.5C 611.765,1113.66 613.932,1113.66 616,1114.5C 616.483,1115.45 616.649,1116.45 616.5,1117.5C 608.316,1117.84 600.149,1118.5 592,1119.5C 568.453,1118.42 544.953,1118.42 521.5,1119.5C 520.88,1115.7 521.714,1112.36 524,1109.5C 524.333,1089.17 524.667,1068.83 525,1048.5C 525.995,1047.93 526.828,1047.27 527.5,1046.5 Z"/></g>
<g><path style="opacity:0.212" fill="#010200" d="M 990.5,1060.5 C 988.533,1060.26 986.699,1060.59 985,1061.5C 983.014,1067.38 980.847,1073.05 978.5,1078.5C 976.393,1079.47 974.059,1079.8 971.5,1079.5C 972.894,1071.28 975.061,1063.28 978,1055.5C 980.917,1053.61 984.084,1053.11 987.5,1054C 989.55,1055.64 990.55,1057.8 990.5,1060.5 Z"/></g>
<g><path style="opacity:0.14" fill="#060a03" d="M 1464.5,1060.5 C 1463.17,1060.83 1463.17,1061.17 1464.5,1061.5C 1465.17,1061.5 1465.5,1061.83 1465.5,1062.5C 1464.27,1064.05 1464.27,1064.72 1465.5,1064.5C 1466.17,1064.5 1466.5,1064.83 1466.5,1065.5C 1465.84,1082 1465.17,1098.5 1464.5,1115C 1464.83,1115.33 1465.17,1115.67 1465.5,1116C 1462.53,1120.21 1458.53,1121.55 1453.5,1120C 1450.4,1118.63 1449.4,1116.47 1450.5,1113.5C 1452.79,1113.76 1454.96,1113.42 1457,1112.5C 1457.5,1092.84 1457.67,1073.17 1457.5,1053.5C 1462.24,1053.27 1464.58,1055.6 1464.5,1060.5 Z"/></g>
<g><path style="opacity:1" fill="#b8cfa8" d="M 368.5,1043.5 C 371.632,1043.78 374.632,1044.62 377.5,1046C 376.896,1048.47 375.562,1050.47 373.5,1052C 376.861,1051.99 380.028,1051.16 383,1049.5C 385.185,1049.92 387.351,1050.42 389.5,1051C 390.351,1053.75 391.351,1056.42 392.5,1059C 392.415,1060.11 392.081,1061.11 391.5,1062C 383.507,1062.5 375.507,1062.67 367.5,1062.5C 367.238,1061.02 367.571,1059.69 368.5,1058.5C 370.762,1057.66 371.429,1056.32 370.5,1054.5C 363.788,1060.84 355.788,1063.18 346.5,1061.5C 346.5,1060.17 346.5,1058.83 346.5,1057.5C 347.5,1057.5 348.5,1057.5 349.5,1057.5C 349.238,1056.02 349.571,1054.69 350.5,1053.5C 355.942,1050.44 361.608,1047.94 367.5,1046C 368.252,1045.33 368.586,1044.5 368.5,1043.5 Z"/></g>
<g><path style="opacity:1" fill="#c2d5b5" d="M 120.5,1064.5 C 122.467,1064.26 124.301,1064.59 126,1065.5C 126.333,1077.51 126,1089.51 125,1101.5C 123.89,1103.04 122.39,1103.7 120.5,1103.5C 118.074,1092.64 117.24,1081.64 118,1070.5C 118.573,1068.36 119.406,1066.36 120.5,1064.5 Z"/></g>
<g><path style="opacity:1" fill="#bbd1ad" d="M 482.5,1067.5 C 485.685,1067.02 488.519,1067.69 491,1069.5C 491.5,1080.83 491.667,1092.16 491.5,1103.5C 488.939,1104.71 486.605,1106.38 484.5,1108.5C 483.558,1108.39 482.725,1108.06 482,1107.5C 481.242,1094.14 481.408,1080.81 482.5,1067.5 Z"/></g>
<g><path style="opacity:0.153" fill="#000100" d="M 1342.5,1104.5 C 1340.83,1104.5 1339.17,1104.5 1337.5,1104.5C 1337.5,1097.5 1337.5,1090.5 1337.5,1083.5C 1347.51,1083.67 1357.51,1083.5 1367.5,1083C 1370.4,1081.28 1371.73,1078.78 1371.5,1075.5C 1371.56,1074.96 1371.89,1074.62 1372.5,1074.5C 1379.05,1077.54 1380.05,1082.04 1375.5,1088C 1374.17,1088.67 1372.83,1089.33 1371.5,1090C 1362.51,1090.5 1353.51,1090.67 1344.5,1090.5C 1345.04,1095.47 1344.37,1100.13 1342.5,1104.5 Z"/></g>
<g><path style="opacity:0.154" fill="#000100" d="M 1733.5,1104.5 C 1731.83,1104.5 1730.17,1104.5 1728.5,1104.5C 1728.5,1097.5 1728.5,1090.5 1728.5,1083.5C 1738.51,1083.67 1748.51,1083.5 1758.5,1083C 1761.4,1081.28 1762.73,1078.78 1762.5,1075.5C 1762.56,1074.96 1762.89,1074.62 1763.5,1074.5C 1765.06,1075.07 1766.56,1075.74 1768,1076.5C 1770.5,1082.67 1768.67,1087.17 1762.5,1090C 1753.51,1090.5 1744.51,1090.67 1735.5,1090.5C 1736.04,1095.47 1735.37,1100.13 1733.5,1104.5 Z"/></g>
<g><path style="opacity:1" fill="#c1d4b3" d="M 370.5,1074.5 C 372.948,1074.08 374.281,1075.08 374.5,1077.5C 370.991,1081.18 368.491,1085.51 367,1090.5C 366.147,1094.47 365.481,1098.47 365,1102.5C 363.114,1105.24 360.614,1106.91 357.5,1107.5C 357.5,1097.5 357.5,1087.5 357.5,1077.5C 362.036,1076.91 366.369,1075.91 370.5,1074.5 Z"/></g>
<g><path style="opacity:0.15" fill="#000000" d="M 1587.5,1104.5 C 1588.49,1104.33 1589.16,1104.66 1589.5,1105.5C 1588.17,1105.83 1588.17,1106.17 1589.5,1106.5C 1590.17,1106.5 1590.5,1106.83 1590.5,1107.5C 1593.29,1109.61 1596.29,1111.44 1599.5,1113C 1612.35,1115.39 1625.02,1114.72 1637.5,1111C 1638.7,1110.1 1639.53,1108.93 1640,1107.5C 1640.81,1097.42 1640.64,1087.42 1639.5,1077.5C 1644.31,1077.13 1646.98,1079.63 1647.5,1085C 1646.18,1093.16 1646.18,1101.33 1647.5,1109.5C 1646.84,1114.33 1644.18,1117.49 1639.5,1119C 1627.89,1121.71 1616.22,1122.04 1604.5,1120C 1595.4,1118.39 1589.73,1113.23 1587.5,1104.5 Z"/></g>
<g><path style="opacity:0.123" fill="#010201" d="M 1838.5,1078.5 C 1850.41,1081.84 1862.41,1084.68 1874.5,1087C 1875.38,1088.36 1875.71,1089.86 1875.5,1091.5C 1864.39,1091.18 1853.39,1089.35 1842.5,1086C 1840.26,1084.26 1838.59,1082.09 1837.5,1079.5C 1837.62,1078.89 1837.96,1078.56 1838.5,1078.5 Z"/></g>
<g><path style="opacity:0.155" fill="#010200" d="M 1881.5,1078.5 C 1888.94,1079.45 1892.78,1083.79 1893,1091.5C 1895.3,1103.02 1891.8,1112.19 1882.5,1119C 1869.15,1122.3 1855.82,1122.3 1842.5,1119C 1840.54,1117.55 1839.2,1115.72 1838.5,1113.5C 1839.17,1113.5 1839.5,1113.17 1839.5,1112.5C 1845.51,1114.04 1851.68,1114.71 1858,1114.5C 1882.63,1115.36 1891.13,1104.03 1883.5,1080.5C 1884.83,1080.17 1884.83,1079.83 1883.5,1079.5C 1882.51,1079.67 1881.84,1079.34 1881.5,1078.5 Z"/></g>
<g><path style="opacity:0.139" fill="#020401" d="M 868.5,1088.5 C 867.711,1088.78 867.044,1089.28 866.5,1090C 858.167,1090.33 849.833,1090.67 841.5,1091C 842.647,1098.42 842.813,1105.92 842,1113.5C 841.403,1118.55 838.57,1120.88 833.5,1120.5C 831.142,1120.25 828.808,1119.91 826.5,1119.5C 826.703,1117.61 826.037,1116.11 824.5,1115C 825.416,1114.72 826.082,1114.22 826.5,1113.5C 829.394,1113.96 831.894,1113.29 834,1111.5C 834.5,1101.84 834.666,1092.17 834.5,1082.5C 845.833,1082.5 857.167,1082.5 868.5,1082.5C 868.5,1084.5 868.5,1086.5 868.5,1088.5 Z"/></g>
<g><path style="opacity:0.134" fill="#000100" d="M 1615.5,1085.5 C 1620.5,1085.5 1625.5,1085.5 1630.5,1085.5C 1630.33,1087.86 1629.99,1090.19 1629.5,1092.5C 1625.25,1091.73 1620.92,1091.23 1616.5,1091C 1613.08,1089.59 1612.74,1087.75 1615.5,1085.5 Z"/></g>
<g><path style="opacity:0.169" fill="#040602" d="M 999.5,1094.5 C 991.324,1095.17 982.99,1095.83 974.5,1096.5C 972.033,1103.07 969.866,1109.73 968,1116.5C 963.481,1120.81 958.481,1121.48 953,1118.5C 952.36,1116.73 952.527,1115.07 953.5,1113.5C 956.505,1113.75 959.005,1112.75 961,1110.5C 963.364,1103.15 965.53,1095.81 967.5,1088.5C 977.839,1088.33 988.172,1088.5 998.5,1089C 999.406,1090.7 999.739,1092.53 999.5,1094.5 Z"/></g>
<g><path style="opacity:1" fill="#c5d7b9" d="M 445.5,1088.5 C 447.5,1088.5 449.5,1088.5 451.5,1088.5C 452.574,1091.75 453.907,1094.92 455.5,1098C 454.86,1101.88 453.026,1105.04 450,1107.5C 449.338,1109.81 448.838,1112.15 448.5,1114.5C 445.491,1114.58 443.324,1113.24 442,1110.5C 441.333,1105.17 441.333,1099.83 442,1094.5C 442.564,1092.11 443.73,1090.11 445.5,1088.5 Z"/></g>
<g><path style="opacity:1" fill="#c1d4b4" d="M 633.5,1095.5 C 636.079,1095.08 638.246,1095.75 640,1097.5C 640.054,1100.87 639.554,1104.2 638.5,1107.5C 638.686,1109.58 639.686,1111.08 641.5,1112C 647.491,1112.5 653.491,1112.67 659.5,1112.5C 659.5,1114.83 659.5,1117.17 659.5,1119.5C 654.242,1119.61 649.076,1118.94 644,1117.5C 639.909,1118.73 635.742,1119.4 631.5,1119.5C 631.86,1111.42 632.526,1103.42 633.5,1095.5 Z"/></g>
<g><path style="opacity:0.137" fill="#000100" d="M 702.5,1107.5 C 705.65,1109.58 708.984,1111.41 712.5,1113C 722.855,1114.94 733.189,1114.94 743.5,1113C 746.987,1112.01 749.32,1109.84 750.5,1106.5C 751.595,1103.14 753.428,1103.14 756,1106.5C 757.97,1115.56 754.137,1120.39 744.5,1121C 734.032,1122.05 723.699,1121.39 713.5,1119C 708.091,1117.09 704.091,1113.59 701.5,1108.5C 701.624,1107.89 701.957,1107.56 702.5,1107.5 Z"/></g>
<g><path style="opacity:0.143" fill="#040602" d="M 1090.5,1113.5 C 1104.17,1113.67 1117.84,1113.5 1131.5,1113C 1134.41,1111.59 1136.41,1109.43 1137.5,1106.5C 1138.22,1106.08 1138.72,1105.42 1139,1104.5C 1145,1107.17 1146,1111.17 1142,1116.5C 1140.42,1118.04 1138.59,1119.21 1136.5,1120C 1121.83,1121.93 1107.16,1121.93 1092.5,1120C 1090.79,1118.62 1089.45,1116.96 1088.5,1115C 1089.42,1114.72 1090.08,1114.22 1090.5,1113.5 Z"/></g>
<g><path style="opacity:0.144" fill="#040702" d="M 1210.5,1113.5 C 1223.84,1113.67 1237.17,1113.5 1250.5,1113C 1253,1111.67 1255,1109.84 1256.5,1107.5C 1257.27,1106.74 1257.77,1105.74 1258,1104.5C 1263.93,1107.16 1264.93,1111.16 1261,1116.5C 1259.42,1118.04 1257.59,1119.21 1255.5,1120C 1241.44,1121.81 1227.1,1121.81 1212.5,1120C 1208.86,1118.32 1208.2,1116.16 1210.5,1113.5 Z"/></g>
<g><path style="opacity:0.004" fill="#000000" d="M 701.5,1105.5 C 700.833,1106.17 700.833,1106.17 701.5,1105.5 Z"/></g>
<g><path style="opacity:0.143" fill="#040702" d="M 1329.5,1113.5 C 1343.17,1113.67 1356.84,1113.5 1370.5,1113C 1372.79,1111.22 1374.46,1109.06 1375.5,1106.5C 1379.88,1104.88 1382.21,1106.54 1382.5,1111.5C 1381.43,1115.4 1379.09,1118.24 1375.5,1120C 1360.82,1121.93 1346.16,1121.93 1331.5,1120C 1329.98,1118.65 1328.65,1117.15 1327.5,1115.5C 1328.24,1114.82 1328.91,1114.15 1329.5,1113.5 Z"/></g>
<g><path style="opacity:0.143" fill="#050702" d="M 1720.5,1113.5 C 1734.17,1113.67 1747.84,1113.5 1761.5,1113C 1763.79,1111.22 1765.46,1109.06 1766.5,1106.5C 1770.59,1105.22 1772.93,1106.88 1773.5,1111.5C 1772.43,1115.4 1770.09,1118.24 1766.5,1120C 1751.82,1121.93 1737.16,1121.93 1722.5,1120C 1720.98,1118.65 1719.65,1117.15 1718.5,1115.5C 1719.24,1114.82 1719.91,1114.15 1720.5,1113.5 Z"/></g>
<g><path style="opacity:1" fill="#c1d4b3" d="M 119.5,1106.5 C 121.5,1106.5 123.5,1106.5 125.5,1106.5C 125.5,1107.5 125.5,1108.5 125.5,1109.5C 139.003,1112.11 152.669,1113.11 166.5,1112.5C 166.52,1114.14 165.853,1115.48 164.5,1116.5C 150.584,1118.75 136.584,1120.08 122.5,1120.5C 117.729,1119.29 116.729,1116.79 119.5,1113C 118.28,1110.83 118.28,1108.66 119.5,1106.5 Z"/></g>
<g><path style="opacity:1" fill="#758867" d="M 67.5,976.5 C 68.1174,976.611 68.6174,976.944 69,977.5C 69.5,1027.17 69.6667,1076.83 69.5,1126.5C 270.167,1126.5 470.833,1126.5 671.5,1126.5C 470.264,1127.83 268.931,1127.83 67.5,1126.5C 67.5,1076.5 67.5,1026.5 67.5,976.5 Z"/></g>
<g><path style="opacity:0.173" fill="#2f3729" d="M 67.5,1126.5 C 268.931,1127.83 470.264,1127.83 671.5,1126.5C 671.833,1126.5 672.167,1126.5 672.5,1126.5C 673.404,1127.21 673.737,1128.21 673.5,1129.5C 471.5,1129.5 269.5,1129.5 67.5,1129.5C 67.5,1128.5 67.5,1127.5 67.5,1126.5 Z"/></g>
</svg>
