<svg xmlns="http://www.w3.org/2000/svg" xmlns:xlink="http://www.w3.org/1999/xlink" version="1.1" width="841.44pt" height="426.48pt" viewBox="0 0 841.44 426.48">
<defs>
<clipPath id="clip_0">
<path transform="matrix(1,0,0,-1,0,426.48)" d="M0 0H841.44V426.48H0Z"/>
</clipPath>
</defs>
<g id="layer_1" data-name="Capa 1">
<g clip-path="url(#clip_0)">
<path transform="matrix(1,0,0,-1,303.6001,373.1997)" d="M0 0C0 0 6.891-.048 8.64-.24 10.389-.434 11.307-.662 11.52-.24 11.733 .182 12.232 1.092 11.04 1.92 9.848 2.748 8.199 2.912 5.76 3.12 3.32 3.327-.416 3.016-4.56 1.92-4.56 1.92-8.57 .797-10.08-4.32-10.08-4.32-11.195-9.333-10.8-13.681-10.405-18.027-10.665-21.298-6.72-24.96-6.72-24.96-5.12-26.393-1.92-26.641 1.279-26.888 5.512-27.038 7.92-26.4 10.328-25.763 10.9-25.353 11.28-24.479 11.659-23.607 11.663-22.887 11.28-22.8 10.896-22.714 9.856-23.007 9.12-23.28 8.384-23.554 2.486-24.099 .24-23.761-2.006-23.423-3.982-23.426-6.24-20.16-6.24-20.16-7.484-16.995-7.44-13.92-7.396-10.846-7.222-6.923-6.24-4.32-6.24-4.32-5.19-.586 0 0" fill="#3ca971" fill-rule="evenodd"/>
<path transform="matrix(1,0,0,-1,352.0801,370.56013)" d="M0 0C0 0-1.917 .568-2.4 .479-2.883 .393-3.51 .294-3.6-.72-3.69-1.733-3.6-28.56-3.6-28.56-3.6-28.56-3.278-29.365-2.16-29.28-1.042-29.194 .167-29.053 .24-28.32 .312-27.587 .48-16.32 .48-16.32 .48-16.32 .362-15.997 1.2-15.84 2.037-15.683 15.12-15.6 15.12-15.6 15.12-15.6 15.521-15.813 15.6-16.32 15.678-16.826 15.6-28.32 15.6-28.32 15.6-28.32 15.574-28.988 16.56-29.04 17.546-29.092 19.36-29.031 19.44-28.56 19.52-28.089 19.44-26.64 19.44-26.64V-.479C19.44-.479 19.65 .379 18.96 .479 18.27 .581 15.979 .771 15.84-.24 15.701-1.25 15.6-11.76 15.6-11.76 15.6-11.76 15.71-12.128 14.88-12.24 14.05-12.352 .48-12.24 .48-12.24V-.96C.48-.96 .432-.227 0 0" fill="#3ca971" fill-rule="evenodd"/>
<path transform="matrix(1,0,0,-1,417.8398,369.84043)" d="M0 0C0 0-4.236-.291-5.28-2.88-6.324-5.469-13.2-27.6-13.2-27.6-13.2-27.6-14.036-29.438-12.96-29.76-12.96-29.76-10.998-29.891-10.32-29.279-9.642-28.669-9.12-26.159-9.12-26.159L-6.72-19.439C-6.72-19.439-6.389-19.136-5.76-18.96-5.131-18.783 6.24-18.72 6.24-18.72 6.24-18.72 6.845-18.612 7.439-19.92 8.036-21.229 10.187-28.485 10.561-29.04 10.935-29.594 11.271-29.72 12.479-29.76 13.689-29.8 14.628-29.805 14.16-28.56 13.692-27.314 12.446-23.85 10.561-17.04 8.674-10.23 7.316-4.762 6.24-3.12 5.163-1.479 3.74 .019 0 0" fill="#3ca971" fill-rule="evenodd"/>
<path transform="matrix(1,0,0,-1,416.1602,385.6802)" d="M0 0 7.2-.24C7.2-.24 8.239-.596 7.92 .96 7.601 2.517 5.823 9.844 5.04 10.8 4.256 11.757 3.832 12.579 2.16 12.48 2.16 12.48 .085 12.71-.72 11.04-1.525 9.37-3.84 1.681-3.84 1.681-3.84 1.681-4.752 .062-3.36 0-1.968-.062 0 0 0 0" fill="#ffffff" fill-rule="evenodd"/>
<path transform="matrix(1,0,0,-1,464.4004,381.6001)" d="M0 0V-17.04C0-17.04-.336-18.131 2.159-18.24 4.655-18.35 15.254-18.397 17.279-18 19.306-17.603 19.465-17.58 20.159-16.56 20.854-15.539 21.428-14.828 20.159-14.88 18.892-14.932 11.497-14.979 8.159-15.12 4.822-15.262 3.882-15.409 3.84-14.16 3.798-12.91 3.6 10.8 3.6 10.8 3.6 10.8 2.98 11.186 2.159 11.28 1.339 11.375 .067 11.492 0 10.561-.068 9.629 0 0 0 0" fill="#3ca971" fill-rule="evenodd"/>
<path transform="matrix(1,0,0,-1,516.7197,381.6001)" d="M0 0V-17.04C0-17.04-.335-18.131 2.16-18.24 4.656-18.35 15.255-18.397 17.28-18 19.306-17.603 19.466-17.58 20.16-16.56 20.854-15.539 21.428-14.828 20.16-14.88 18.893-14.932 11.498-14.979 8.16-15.12 4.822-15.262 3.883-15.409 3.84-14.16 3.798-12.91 3.601 10.8 3.601 10.8 3.601 10.8 2.981 11.186 2.16 11.28 1.339 11.375 .068 11.492 0 10.561-.067 9.629 0 0 0 0" fill="#3ca971" fill-rule="evenodd"/>
<path transform="matrix(1,0,0,-1,569.2803,371.27983)" d="M0 0V-27.36C0-27.36 .136-28.387 1.92-28.561 3.704-28.734 12.21-28.967 15.359-28.561 18.51-28.154 19.715-27.765 20.16-27.12 20.604-26.477 21.187-25.153 19.92-25.2 18.652-25.247 12.396-25.373 8.88-25.44 5.363-25.508 3.872-25.795 3.84-24.72 3.808-23.646 3.6-15.601 3.6-15.601 3.6-15.601 3.46-15.085 5.04-15.12 6.62-15.155 14.653-15.058 15.84-15.12 17.026-15.183 17.89-15.156 18.239-14.4 18.59-13.644 18.956-12.552 18.239-12.24 17.522-11.929 14.976-11.905 12.479-12 9.984-12.095 4.08-12.24 4.08-12.24 4.08-12.24 3.497-11.896 3.6-11.04 3.702-10.185 3.84-2.641 3.84-2.641 3.84-2.641 4.181-2.202 4.8-2.16 5.419-2.118 12.044-1.825 15.6-1.92 19.155-2.016 20.115-2.415 20.16-1.681 20.204-.945 20.303-.485 19.2 .24 18.097 .965 16.361 1.104 14.64 1.2 12.919 1.295 8.102 1.41 5.04 1.2 1.978 .989 .222 1.052 0 0" fill="#3ca971" fill-rule="evenodd"/>
<path transform="matrix(1,0,0,-1,622.7998,373.1997)" d="M0 0V-25.44C0-25.44-.394-26.315 .72-26.4 1.833-26.485 3.447-26.786 3.36-25.44 3.272-24.095 3.36-.479 3.36-.479 3.36-.479 4.757 1.535 5.76-.479 6.764-2.496 15.201-22.721 16.08-24 16.959-25.279 18.637-26.979 20.88-26.88 20.88-26.88 24.617-26.911 24.96-24.479 25.304-22.05 25.2 2.16 25.2 2.16 25.2 2.16 25.054 2.674 24.479 2.88 23.907 3.086 21.94 3.23 21.84 1.92 21.74 .609 21.84-22.08 21.84-22.08 21.84-22.08 21.891-23.793 20.88-23.761 19.87-23.728 19.377-23.196 18.479-21.36 17.583-19.524 9.984-.385 8.88 .96 7.776 2.305 6.8 3.186 4.08 3.12 4.08 3.12 .35 3.416 0 0" fill="#3ca971" fill-rule="evenodd"/>
<path transform="matrix(1,0,0,-1,702.4805,390.9605)" d="M0 0V-3.84C0-3.84 .095-5.498-2.4-5.76-4.896-6.021-11.335-6.38-13.439-4.56-15.546-2.739-16.781-1.06-16.801 6.24-16.801 6.24-16.729 11.242-14.881 14.641-14.881 14.641-13.226 17.33-10.801 17.521-8.375 17.711-5.499 17.698-3.12 17.521-.742 17.343 .449 17.476 1.439 17.28 2.431 17.086 3.104 17.21 3.119 17.521 3.136 17.831 3.67 18.192 2.64 19.2 1.609 20.209-.564 20.695-3.12 20.881-5.676 21.065-9.802 21.004-12 20.4-14.199 19.797-19.435 17.821-20.16 9.841-20.16 9.841-20.822 2.381-19.2-2.88-19.2-2.88-18.425-5.848-14.16-8.159-14.16-8.159-12.282-8.835-8.881-8.88-5.479-8.925-3.431-9.15-.48-8.399 2.47-7.648 3.311-7.803 3.359-6.239 3.409-4.677 3.6 4.801 3.6 4.801 3.6 4.801 3.278 6.516 2.399 6.721 1.521 6.926-.654 6.995-3.12 6.961-5.586 6.926-7.345 6.704-7.681 4.801-7.681 4.801-7.702 3.432-6.24 3.601-4.779 3.769-2.179 3.87-1.681 3.841-1.183 3.811 0 3.841 0 3.841Z" fill="#3ca971" fill-rule="evenodd"/>
<path transform="matrix(1,0,0,-1,741.1201,371.27983)" d="M0 0V-27.36C0-27.36 .136-28.387 1.92-28.561 3.704-28.734 12.21-28.967 15.36-28.561 18.51-28.154 19.716-27.765 20.16-27.12 20.604-26.477 21.187-25.153 19.92-25.2 18.652-25.247 12.396-25.373 8.88-25.44 5.363-25.508 3.872-25.795 3.84-24.72 3.808-23.646 3.6-15.601 3.6-15.601 3.6-15.601 3.46-15.085 5.04-15.12 6.62-15.155 14.653-15.058 15.84-15.12 17.026-15.183 17.89-15.156 18.24-14.4 18.59-13.644 18.956-12.552 18.24-12.24 17.522-11.929 14.976-11.905 12.479-12 9.984-12.095 4.08-12.24 4.08-12.24 4.08-12.24 3.498-11.896 3.6-11.04 3.702-10.185 3.84-2.641 3.84-2.641 3.84-2.641 4.182-2.202 4.8-2.16 5.419-2.118 12.044-1.825 15.6-1.92 19.155-2.016 20.115-2.415 20.16-1.681 20.204-.945 20.304-.485 19.2 .24 18.097 .965 16.361 1.104 14.64 1.2 12.919 1.295 8.103 1.41 5.04 1.2 1.978 .989 .222 1.052 0 0" fill="#3ca971" fill-rule="evenodd"/>
<path transform="matrix(1,0,0,-1,797.2803,385.44)" d="M0 0C0 0 8.218-1.319 10.319-1.92 12.422-2.521 13.446-2.948 13.438-6.72 13.438-6.72 13.484-9.328 11.04-11.04 11.04-11.04 9.364-11.563 6-11.521 2.635-11.479 .099-11.647-.721-11.28-1.539-10.912-2.369-11.002-2.88-10.8-3.392-10.598-3.694-10.438-3.84-11.04-3.985-11.644-4.331-12.851-2.16-13.92-2.16-13.92 .887-14.734 5.279-14.64 5.279-14.64 9.742-14.644 12.96-13.68 12.96-13.68 15.514-12.673 16.56-8.88 16.56-8.88 17.573-4.174 15.84-.72 15.84-.72 14.938 .616 11.52 1.2 8.1 1.784 1.744 2.892 .72 3.36-.306 3.828-.854 5.616-.721 8.16-.721 8.16-.635 10.944 2.64 12 2.64 12 6.104 12.971 11.76 12.479 11.76 12.479 12.79 12.477 13.438 12.24 14.09 12.003 14.803 11.865 15.359 12 15.917 12.135 16.097 12.556 16.08 12.96 16.062 13.364 15.389 14.885 13.199 15.36 11.011 15.835 3.706 16.211-.721 14.16-.721 14.16-3.931 12.308-4.08 6.72-4.08 6.72-4.197 2.961-2.88 1.2-2.88 1.2-1.369 .41 0 0" fill="#3ca971" fill-rule="evenodd"/>
<path transform="matrix(1,0,0,-1,377.5,335.9995)" d="M0 0C0 0-2.854-.195-3.557-1.928-4.261-3.659-8.893-18.466-8.893-18.466-8.893-18.466-9.456-19.695-8.731-19.91-8.731-19.91-7.41-19.998-6.953-19.589-6.496-19.181-6.144-17.502-6.144-17.502L-4.527-13.006C-4.527-13.006-4.304-12.803-3.88-12.686-3.457-12.567 4.204-12.524 4.204-12.524 4.204-12.524 4.61-12.453 5.012-13.327 5.414-14.202 6.862-19.058 7.114-19.429 7.366-19.8 7.592-19.884 8.407-19.91 9.222-19.937 9.854-19.94 9.539-19.107 9.224-18.274 8.384-15.956 7.114-11.4 5.843-6.845 4.929-3.187 4.204-2.088 3.478-.989 2.52 .012 0 0" fill="#40a972" fill-rule="evenodd"/>
<path transform="matrix(1,0,0,-1,376.3682,346.59724)" d="M0 0 4.85-.16C4.85-.16 5.55-.398 5.335 .643 5.12 1.684 3.923 6.586 3.395 7.226 2.868 7.865 2.581 8.415 1.455 8.35 1.455 8.35 .057 8.503-.485 7.386-1.027 6.269-2.587 1.124-2.587 1.124-2.587 1.124-3.202 .041-2.264 0-1.326-.042 0 0 0 0" fill="#ffffff" fill-rule="evenodd"/>
<path transform="matrix(1,0,0,-1,625.4199,335.9995)" d="M0 0C0 0-2.854-.195-3.558-1.928-4.261-3.659-8.893-18.466-8.893-18.466-8.893-18.466-9.456-19.695-8.731-19.91-8.731-19.91-7.409-19.998-6.952-19.589-6.496-19.181-6.145-17.502-6.145-17.502L-4.527-13.006C-4.527-13.006-4.305-12.803-3.881-12.686-3.457-12.567 4.204-12.524 4.204-12.524 4.204-12.524 4.61-12.453 5.012-13.327 5.413-14.202 6.862-19.058 7.114-19.429 7.366-19.8 7.593-19.884 8.407-19.91 9.223-19.937 9.854-19.94 9.539-19.107 9.225-18.274 8.385-15.956 7.114-11.4 5.844-6.845 4.929-3.187 4.204-2.088 3.479-.989 2.52 .012 0 0" fill="#40a972" fill-rule="evenodd"/>
<path transform="matrix(1,0,0,-1,624.2881,346.59724)" d="M0 0 4.851-.16C4.851-.16 5.551-.398 5.336 .643 5.12 1.684 3.923 6.586 3.396 7.226 2.867 7.865 2.581 8.415 1.455 8.35 1.455 8.35 .058 8.503-.485 7.386-1.027 6.269-2.587 1.124-2.587 1.124-2.587 1.124-3.202 .041-2.264 0-1.325-.042 0 0 0 0" fill="#ffffff" fill-rule="evenodd"/>
<path transform="matrix(1,0,0,-1,691.8994,335.9995)" d="M0 0C0 0-2.854-.195-3.557-1.928-4.26-3.659-8.893-18.466-8.893-18.466-8.893-18.466-9.455-19.695-8.73-19.91-8.73-19.91-7.409-19.998-6.952-19.589-6.495-19.181-6.144-17.502-6.144-17.502L-4.526-13.006C-4.526-13.006-4.304-12.803-3.88-12.686-3.456-12.567 4.204-12.524 4.204-12.524 4.204-12.524 4.611-12.453 5.013-13.327 5.414-14.202 6.862-19.058 7.114-19.429 7.366-19.8 7.593-19.884 8.408-19.91 9.223-19.937 9.854-19.94 9.54-19.107 9.225-18.274 8.385-15.956 7.114-11.4 5.844-6.845 4.93-3.187 4.204-2.088 3.479-.989 2.52 .012 0 0" fill="#40a972" fill-rule="evenodd"/>
<path transform="matrix(1,0,0,-1,690.7676,346.59724)" d="M0 0 4.851-.16C4.851-.16 5.551-.398 5.336 .643 5.121 1.684 3.924 6.586 3.396 7.226 2.868 7.865 2.582 8.415 1.456 8.35 1.456 8.35 .058 8.503-.484 7.386-1.027 6.269-2.587 1.124-2.587 1.124-2.587 1.124-3.201 .041-2.264 0-1.325-.042 0 0 0 0" fill="#ffffff" fill-rule="evenodd"/>
<path transform="matrix(1,0,0,-1,656.9258,338.1011)" d="M0 0V-17.092C0-17.092-.266-17.679 .485-17.736 1.235-17.794 2.322-17.995 2.265-17.092 2.206-16.187 2.265-.322 2.265-.322 2.265-.322 3.206 1.031 3.882-.322 4.558-1.677 10.245-15.265 10.837-16.124 11.43-16.983 12.561-18.125 14.072-18.059 14.072-18.059 16.591-18.079 16.822-16.446 17.054-14.813 16.984 1.451 16.984 1.451 16.984 1.451 16.885 1.796 16.499 1.935 16.112 2.073 14.787 2.17 14.72 1.29 14.652 .409 14.72-14.834 14.72-14.834 14.72-14.834 14.753-15.985 14.072-15.963 13.392-15.94 13.06-15.584 12.455-14.351 11.851-13.117 6.729-.259 5.984 .645 5.24 1.548 4.582 2.14 2.749 2.096 2.749 2.096 .235 2.295 0 0" fill="#40a972" fill-rule="evenodd"/>
<path transform="matrix(1,0,0,-1,294.2402,336.8687)" d="M0 0V-18.108C0-18.108 .089-18.787 1.269-18.902 2.449-19.018 8.072-19.171 10.154-18.902 12.237-18.634 13.034-18.376 13.328-17.949 13.622-17.523 14.007-16.647 13.169-16.679 12.331-16.71 8.195-16.793 5.87-16.838 3.545-16.882 2.56-17.072 2.539-16.361 2.517-15.649 2.38-10.325 2.38-10.325 2.38-10.325 2.287-9.984 3.332-10.007 4.376-10.03 9.688-9.966 10.472-10.007 11.256-10.049 11.827-10.031 12.059-9.53 12.29-9.03 12.532-8.308 12.059-8.101 11.584-7.896 9.9-7.879 8.25-7.942 6.601-8.005 2.697-8.101 2.697-8.101 2.697-8.101 2.312-7.873 2.38-7.307 2.447-6.74 2.539-1.747 2.539-1.747 2.539-1.747 2.764-1.457 3.173-1.43 3.582-1.402 7.962-1.208 10.313-1.271 12.664-1.334 13.298-1.599 13.328-1.112 13.357-.625 13.422-.321 12.693 .159 11.963 .639 10.816 .731 9.678 .794 8.541 .857 5.356 .934 3.332 .794 1.307 .654 .146 .696 0 0" fill="#40a972" fill-rule="evenodd"/>
<path transform="matrix(1,0,0,-1,395.5405,343.6177)" d="M0 0V-11.446C0-11.446-.227-12.179 1.46-12.252 3.147-12.325 10.312-12.357 11.681-12.091 13.05-11.824 13.158-11.809 13.627-11.123 14.097-10.438 14.484-9.96 13.627-9.995 12.771-10.029 7.772-10.061 5.516-10.156 3.259-10.251 2.624-10.351 2.596-9.512 2.567-8.672 2.433 7.255 2.433 7.255 2.433 7.255 2.015 7.514 1.46 7.577 .905 7.642 .045 7.72 0 7.094-.046 6.468 0 0 0 0" fill="#40a972" fill-rule="evenodd"/>
<path transform="matrix(1,0,0,-1,747.1406,343.6177)" d="M0 0V-11.446C0-11.446-.229-12.179 1.46-12.252 3.146-12.325 10.312-12.357 11.681-12.091 13.05-11.824 13.158-11.809 13.627-11.123 14.097-10.438 14.484-9.96 13.627-9.995 12.771-10.029 7.771-10.061 5.516-10.156 3.26-10.251 2.624-10.351 2.596-9.512 2.566-8.672 2.434 7.255 2.434 7.255 2.434 7.255 2.015 7.514 1.46 7.577 .904 7.642 .046 7.72 0 7.094-.046 6.468 0 0 0 0" fill="#40a972" fill-rule="evenodd"/>
<path transform="matrix(1,0,0,-1,576.0264,346.3169)" d="M0 0C0 0 5.371-.864 6.744-1.259 8.118-1.652 8.787-1.933 8.783-4.405 8.783-4.405 8.813-6.115 7.215-7.238 7.215-7.238 6.12-7.579 3.921-7.553 1.722-7.526 .064-7.636-.471-7.396-1.006-7.154-1.548-7.213-1.882-7.08-2.217-6.948-2.414-6.842-2.51-7.238-2.604-7.634-2.83-8.425-1.411-9.126-1.411-9.126 .58-9.66 3.45-9.599 3.45-9.599 6.367-9.601 8.47-8.969 8.47-8.969 10.139-8.309 10.822-5.821 10.822-5.821 11.484-2.736 10.353-.472 10.353-.472 9.764 .404 7.528 .787 5.294 1.17 1.141 1.896 .471 2.203-.199 2.511-.558 3.683-.471 5.351-.471 5.351-.415 7.176 1.726 7.868 1.726 7.868 3.989 8.505 7.687 8.183 7.687 8.183 8.358 8.181 8.783 8.025 9.208 7.87 9.674 7.779 10.038 7.868 10.402 7.956 10.521 8.232 10.509 8.497 10.498 8.763 10.058 9.76 8.627 10.071 7.195 10.382 2.422 10.629-.471 9.284-.471 9.284-2.568 8.07-2.666 4.406-2.666 4.406-2.743 1.942-1.882 .787-1.882 .787-.895 .27 0 0" fill="#40a972" fill-rule="evenodd"/>
<path transform="matrix(1,0,0,-1,527.3066,346.3169)" d="M0 0C0 0 5.37-.864 6.744-1.259 8.118-1.652 8.787-1.933 8.783-4.405 8.783-4.405 8.813-6.115 7.215-7.238 7.215-7.238 6.12-7.579 3.921-7.553 1.722-7.526 .062-7.636-.471-7.396-1.006-7.154-1.548-7.213-1.883-7.08-2.217-6.948-2.415-6.842-2.51-7.238-2.604-7.634-2.83-8.425-1.412-9.126-1.412-9.126 .579-9.66 3.45-9.599 3.45-9.599 6.367-9.601 8.47-8.969 8.47-8.969 10.139-8.309 10.822-5.821 10.822-5.821 11.484-2.736 10.352-.472 10.352-.472 9.764 .404 7.528 .787 5.293 1.17 1.14 1.896 .471 2.203-.199 2.511-.559 3.683-.471 5.351-.471 5.351-.415 7.176 1.725 7.868 1.725 7.868 3.989 8.505 7.686 8.183 7.686 8.183 8.357 8.181 8.783 8.025 9.208 7.87 9.674 7.779 10.038 7.868 10.402 7.956 10.52 8.232 10.509 8.497 10.497 8.763 10.058 9.76 8.626 10.071 7.195 10.382 2.422 10.629-.471 9.284-.471 9.284-2.569 8.07-2.667 4.406-2.667 4.406-2.743 1.942-1.883 .787-1.883 .787-.896 .27 0 0" fill="#40a972" fill-rule="evenodd"/>
<path transform="matrix(1,0,0,-1,325.2002,335.9995)" d="M0 0C0 0-3.195 .189-5.76-1.681-5.76-1.681-8.293-3.166-8.4-8.4-8.4-8.4-8.709-14.02-7.2-17.28-7.2-17.28-6.161-19.754-.48-19.921-.48-19.921 1.048-20.056 1.2-20.16 1.351-20.266 4.32-24.961 4.32-24.961 4.32-24.961 4.83-25.208 5.52-25.2 6.209-25.192 6.808-25.312 6.48-24.721 6.151-24.127 3.84-20.16 3.84-20.16 3.84-20.16 3.721-19.786 4.08-19.681 4.438-19.574 6.606-18.274 7.44-16.32 8.273-14.366 8.609-10.164 8.4-7.44 8.19-4.717 7.662-2.976 5.28-1.2 5.28-1.2 3.517 .118 0 0" fill="#40a972" fill-rule="evenodd"/>
<path transform="matrix(1,0,0,-1,319.4399,341.7603)" d="M0 0C0 0-1.079-5.282 0-9.12 0-9.12 .448-11.225 3.12-12.239 3.12-12.239 6.121-12.852 8.88-12 8.88-12 11.309-11.101 11.76-8.399 12.211-5.699 12.3-.804 11.76 .479 11.22 1.764 10.529 3.654 6 3.601 6 3.601 1.13 4.172 0 0" fill="#ffffff" fill-rule="evenodd"/>
<path transform="matrix(1,0,0,-1,344.3999,336.9605)" d="M0 0V-14.159C0-14.159-.243-17.205 3.6-18.72 3.6-18.72 7.802-19.265 10.8-18.72 10.8-18.72 14.901-18.006 15.12-14.399 15.339-10.793 15.36 .479 15.36 .479 15.36 .479 15.152 1.015 14.16 .961 14.16 .961 13.044 .903 12.96-.72 12.876-2.342 12.96-13.92 12.96-13.92 12.96-13.92 13.14-17.072 7.44-17.039 7.44-17.039 4.403-17.161 3.12-15.84 3.12-15.84 2.1-14.76 2.16-12.479 2.22-10.199 2.4 .479 2.4 .479 2.4 .479 2.116 .983 1.2 .961 .284 .937 0 .878 0 0" fill="#40a972" fill-rule="evenodd"/>
<path transform="matrix(1,0,0,-1,420,335.9995)" d="M0 0H-1.68C-1.68 0-2.171 .048-2.16-.961-2.149-1.969-2.16-19.44-2.16-19.44-2.16-19.44-2.369-19.839-1.44-19.921-.511-20.002 .245-20.337 .24-19.2 .235-18.062 .24-.479 .24-.479 .24-.479 .309 0 0 0" fill="#40a972" fill-rule="evenodd"/>
<path transform="matrix(1,0,0,-1,429.3604,335.9995)" d="M0 0C0 0-1.066 .021-1.2-.721-1.335-1.461-1.684-2.466-1.2-2.4-.717-2.336 5.521-2.4 5.521-2.4H6L5.76-19.921H8.159V-2.4H14.399C14.399-2.4 14.94-1.795 15.12-1.2 15.299-.604 15.511 .107 14.88 0 14.249-.108 0 0 0 0" fill="#40a972" fill-rule="evenodd"/>
<path transform="matrix(1,0,0,-1,451.2002,336.2398)" d="M0 0C0 0-1.006 .315-1.2 .24-1.396 .164-1.96-.158-1.92-.48-1.88-.803-.971-2.117-.72-2.4-.47-2.684 5.04-11.521 5.04-11.521 5.04-11.521 5.565-12.759 5.52-13.44 5.474-14.122 5.52-19.681 5.52-19.681H7.92V-12C7.92-12 8.094-11.729 9.12-10.08 10.146-8.432 14.88-.96 14.88-.96 14.88-.96 15.44 .288 14.88 .24 14.319 .191 13.374 .27 12.96-.24 12.546-.75 7.439-9.12 7.439-9.12 7.439-9.12 7.321-9.456 6.72-9.601 6.72-9.601 6.343-9.322 5.52-8.16 4.697-6.998 .72-.721 .72-.721 .72-.721 .362-.194 0 0" fill="#40a972" fill-rule="evenodd"/>
<path transform="matrix(1,0,0,-1,491.04,335.9995)" d="M0 0C0 0-2.915 .332-4.56-1.681-4.56-1.681-5.671-2.813-5.76-5.521-5.76-5.521-5.975-7.187-5.521-8.16-5.065-9.135-4.613-9.281-5.28-10.32-5.946-11.359-7.302-14.17-6.24-17.521-6.24-17.521-5.479-19.943-1.2-19.921 3.078-19.896 4.271-19.678 5.52-18.721 6.769-17.764 7.68-16.32 7.68-16.32 7.68-16.32 8.012-15.561 8.4-16.08 8.788-16.601 11.04-19.681 11.04-19.681 11.04-19.681 11.886-19.909 12.24-19.921 12.595-19.932 13.583-19.876 13.44-19.44 13.297-19.005 12.707-18.271 12.24-17.761 11.771-17.25 9.6-14.4 9.6-14.4 9.6-14.4 9.411-14.099 9.84-13.2 10.27-12.302 12.424-8.87 12.96-7.921 13.496-6.971 13.843-6.478 13.44-6.24 13.037-6.004 11.796-6.008 11.28-6.721 10.764-7.434 8.4-11.521 8.4-11.521 8.4-11.521 7.733-12.998 7.68-12.479 7.627-11.963 7.08-10.624 6-10.08 6-10.08 5.999-9.13 6-8.4 6.001-7.671 6.578-5.006 6-3.601 5.422-2.195 4.279 .147 0 0" fill="#40a972" fill-rule="evenodd"/>
<path transform="matrix(1,0,0,-1,491.04,337.6802)" d="M0 0C0 0-3.574-.084-3.84-3.6-3.84-3.6-4.056-4.842-3.36-6.24-3.36-6.24-3.226-7.157-1.68-7.2-.135-7.242 2.646-7.243 3.12-7.2 3.593-7.156 3.902-6.852 4.08-5.76 4.257-4.669 4.354-2.616 3.6-1.68 2.845-.743 1.831 .117 0 0" fill="#ffffff" fill-rule="evenodd"/>
<path transform="matrix(1,0,0,-1,495.5996,347.27983)" d="M0 0C0 0-1.444 .728-3.6 .72-5.755 .712-7.818 1.172-8.88-.96-8.88-.96-9.899-3.338-8.159-5.76-8.159-5.76-7.497-6.767-4.56-6.72-4.56-6.72-1.524-6.713-.72-6.24 .085-5.768 1.305-4.935 1.681-4.08 2.057-3.226 2.227-2.357 1.92-2.16 1.614-1.963 .476-.298 0 0" fill="#ffffff" fill-rule="evenodd"/>
<path transform="matrix(1,0,0,-1,548.1602,336.9605)" d="M0 0V-14.159C0-14.159-.243-17.205 3.6-18.72 3.6-18.72 7.802-19.265 10.8-18.72 10.8-18.72 14.9-18.006 15.12-14.399 15.339-10.793 15.359 .479 15.359 .479 15.359 .479 15.152 1.015 14.16 .961 14.16 .961 13.044 .903 12.96-.72 12.876-2.342 12.96-13.92 12.96-13.92 12.96-13.92 13.14-17.072 7.439-17.039 7.439-17.039 4.402-17.161 3.12-15.84 3.12-15.84 2.1-14.76 2.16-12.479 2.22-10.199 2.399 .479 2.399 .479 2.399 .479 2.116 .983 1.2 .961 .284 .937 0 .878 0 0" fill="#40a972" fill-rule="evenodd"/>
<path transform="matrix(1,0,0,-1,595.4404,335.9995)" d="M0 0C0 0-1.066 .021-1.2-.721-1.335-1.461-1.684-2.466-1.2-2.4-.717-2.336 5.52-2.4 5.52-2.4H6L5.76-19.921H8.159V-2.4H14.399C14.399-2.4 14.94-1.795 15.119-1.2 15.299-.604 15.511 .107 14.88 0 14.249-.108 0 0 0 0" fill="#40a972" fill-rule="evenodd"/>
<path transform="matrix(1,0,0,-1,645.8398,335.9995)" d="M0 0H-1.68C-1.68 0-2.171 .048-2.16-.961-2.148-1.969-2.16-19.44-2.16-19.44-2.16-19.44-2.369-19.839-1.439-19.921-.511-20.002 .245-20.337 .24-19.2 .235-18.062 .24-.479 .24-.479 .24-.479 .309 0 0 0" fill="#40a972" fill-rule="evenodd"/>
<path transform="matrix(1,0,0,-1,736.5596,335.9995)" d="M0 0H-1.68C-1.68 0-2.171 .048-2.159-.961-2.148-1.969-2.159-19.44-2.159-19.44-2.159-19.44-2.369-19.839-1.439-19.921-.511-20.002 .245-20.337 .24-19.2 .235-18.062 .24-.479 .24-.479 .24-.479 .309 0 0 0" fill="#40a972" fill-rule="evenodd"/>
<path transform="matrix(1,0,0,-1,771.5996,335.9995)" d="M0 0H-1.68C-1.68 0-2.171 .048-2.159-.961-2.148-1.969-2.159-19.44-2.159-19.44-2.159-19.44-2.369-19.839-1.439-19.921-.511-20.002 .245-20.337 .24-19.2 .235-18.062 .24-.479 .24-.479 .24-.479 .309 0 0 0" fill="#40a972" fill-rule="evenodd"/>
<path transform="matrix(1,0,0,-1,780.4795,335.9995)" d="M0 0C0 0-1.065 .021-1.199-.721-1.334-1.461-1.683-2.466-1.199-2.4-.716-2.336 5.521-2.4 5.521-2.4H6L5.761-19.921H8.16V-2.4H14.4C14.4-2.4 14.941-1.795 15.12-1.2 15.3-.604 15.512 .107 14.881 0 14.25-.108 0 0 0 0" fill="#40a972" fill-rule="evenodd"/>
<path transform="matrix(1,0,0,-1,802.7998,336.2398)" d="M0 0C0 0-1.005 .315-1.2 .24-1.396 .164-1.96-.158-1.92-.48-1.88-.803-.971-2.117-.72-2.4-.47-2.684 5.04-11.521 5.04-11.521 5.04-11.521 5.566-12.759 5.521-13.44 5.474-14.122 5.521-19.681 5.521-19.681H7.92V-12C7.92-12 8.095-11.729 9.12-10.08 10.146-8.432 14.88-.96 14.88-.96 14.88-.96 15.441 .288 14.88 .24 14.319 .191 13.374 .27 12.96-.24 12.546-.75 7.44-9.12 7.44-9.12 7.44-9.12 7.321-9.456 6.72-9.601 6.72-9.601 6.343-9.322 5.521-8.16 4.697-6.998 .72-.721 .72-.721 .72-.721 .362-.194 0 0" fill="#40a972" fill-rule="evenodd"/>
<path transform="matrix(1,0,0,-1,709.9199,342.48)" d="M0 0V-12.96C0-12.96-.406-13.424 .96-13.44 2.326-13.456 10.028-13.502 10.561-13.44 11.092-13.378 13.208-12.391 14.16-10.56 14.16-10.56 15.019-8.092 14.4-5.52 14.4-5.52 13.946-4.368 13.2-3.6 13.2-3.6 12.608-3.27 12.72-2.88 12.832-2.491 13.811-1.186 13.92-.24 14.029 .705 14.211 3.665 12.48 5.28 12.48 5.28 11.1 6.497 8.16 6.48 5.221 6.464 1.336 6.197 .96 6.24 .584 6.283-.004 6.185 0 5.52 .004 4.855 0 0 0 0" fill="#40a972" fill-rule="evenodd"/>
<path transform="matrix(1,0,0,-1,712.3203,339.6001)" d="M0 0V-5.28H7.439C7.439-5.28 8.866-4.985 9.12-3.84 9.373-2.694 9.669-.72 8.64 .48 8.64 .48 7.931 1.214 6.239 1.2 4.549 1.187 0 1.2 0 1.2Z" fill="#ffffff" fill-rule="evenodd"/>
<path transform="matrix(1,0,0,-1,712.3203,346.56013)" d="M0 0H7.92C7.92 0 9.559-.454 9.84-2.64 9.84-2.64 10.584-6.51 7.92-7.439 7.92-7.439 5.089-7.707 3.359-7.68 1.631-7.652 0-7.68 0-7.68Z" fill="#ffffff"/>
<path transform="matrix(1,0,0,-1,331.4399,263.0396)" d="M0 0C0 0-9.3 .151-14.16-1.921-14.16-1.921-16.743-3.576-18-7.44-18-7.44-18.597-8.727-17.04-8.641-15.483-8.555-13.531-8.124-9.84-7.681-6.149-7.237 2.152-6.652 5.76-7.44 9.369-8.229 11.921-8.236 12.24-16.08 12.24-16.08 12.589-21.421 8.88-24 5.171-26.58-1.16-30.426-7.2-34.08-13.24-37.735-18.917-40.926-19.44-44.4-19.963-47.876-19.975-52.31-19.68-53.04-19.385-53.771-19.241-54.84-16.56-54.96-13.879-55.081 1.971-55.113 8.4-54.96 14.83-54.808 16.759-55.547 18.96-53.28 21.161-51.014 21.818-49.902 21.84-48.96 21.862-48.019 22.198-46.893 20.88-47.04 19.562-47.188 14.622-47.65 8.4-47.761 2.179-47.87-10.8-48-10.8-48-10.8-48-12.607-47.394-12-45.841-11.393-44.287-11.093-43.765-5.76-40.801-.427-37.836 10.243-32.704 13.92-29.28 17.597-25.857 20.017-23.065 20.16-18 20.303-12.938 20.845-9.76 19.2-6.96 17.555-4.161 15.845-2.232 12.96-1.44 10.075-.648 9.145-.385 5.52-.24 1.895-.096 0 0 0 0" fill="#404041" fill-rule="evenodd"/>
<path transform="matrix(1,0,0,-1,443.04,263.0396)" d="M0 0C0 0-9.3 .151-14.16-1.921-14.16-1.921-16.743-3.576-18-7.44-18-7.44-18.597-8.727-17.04-8.641-15.483-8.555-13.531-8.124-9.84-7.681-6.149-7.237 2.151-6.652 5.76-7.44 9.368-8.229 11.922-8.236 12.24-16.08 12.24-16.08 12.589-21.421 8.88-24 5.171-26.58-1.16-30.426-7.2-34.08-13.24-37.735-18.917-40.926-19.44-44.4-19.963-47.876-19.976-52.31-19.68-53.04-19.385-53.771-19.241-54.84-16.56-54.96-13.879-55.081 1.971-55.113 8.4-54.96 14.829-54.808 16.759-55.547 18.96-53.28 21.161-51.014 21.818-49.902 21.84-48.96 21.861-48.019 22.198-46.893 20.88-47.04 19.562-47.188 14.621-47.65 8.4-47.761 2.179-47.87-10.8-48-10.8-48-10.8-48-12.607-47.394-12-45.841-11.393-44.287-11.093-43.765-5.76-40.801-.427-37.836 10.243-32.704 13.92-29.28 17.597-25.857 20.017-23.065 20.16-18 20.304-12.938 20.845-9.76 19.2-6.96 17.555-4.161 15.845-2.232 12.96-1.44 10.075-.648 9.145-.385 5.52-.24 1.896-.096 0 0 0 0" fill="#404041" fill-rule="evenodd"/>
<path transform="matrix(1,0,0,-1,388.3198,263.27983)" d="M0 0C0 0-10.021 .378-15.6-4.8-15.6-4.8-21.992-11.729-22.32-24.96-22.32-24.96-23.199-37.775-18.96-47.04-18.96-47.04-16.323-52.903-7.92-54.72-7.92-54.72-3.935-55.618-.24-55.44 3.456-55.263 9.54-55.44 15.12-51.12 15.12-51.12 21.137-45.982 21.84-37.92 22.543-29.858 22.784-18.564 20.88-12.96 18.977-7.355 17.178 .473 0 0" fill="#404041" fill-rule="evenodd"/>
<path transform="matrix(1,0,0,-1,388.5601,270.2398)" d="M0 0C0 0-7.708 1.01-12-4.8-12-4.8-15.106-11.737-14.88-19.92-14.653-28.104-14.092-34.752-10.8-38.4-10.8-38.4-8.052-41.816-1.2-41.76-1.2-41.76 4.876-41.99 9.12-39.601 9.12-39.601 12.304-37.487 13.2-32.641 14.096-27.794 15.099-17.733 14.16-12.48 13.221-7.229 12.716-2.78 7.2-.721 7.2-.721 3.872 .222 0 0" fill="#ffffff" fill-rule="evenodd"/>
<path transform="matrix(1,0,0,-1,517.6797,263.52003)" d="M0 0-32.16-.24C-32.16-.24-34.391-.3-34.8-3.36-35.209-6.42-36.244-17.177-36.479-21.84-36.716-26.503-37.395-28.162-32.88-28.56-28.364-28.958-18.111-29.831-13.92-30.24-9.729-30.649-5.712-31.638-5.76-35.52-5.808-39.402-6.037-45.04-8.88-46.56-8.88-46.56-11.109-47.998-15.84-48.24-20.57-48.482-29.589-47.683-32.88-47.28-36.171-46.878-37.602-46.494-37.68-47.28-37.758-48.065-37.583-52.349-32.16-54.479-32.16-54.479-25.857-55.278-20.16-55.2-14.462-55.121-9.12-54.89-4.8-53.04-4.8-53.04-1.942-51.751-.479-49.2 .983-46.649 2.429-43.299 2.4-37.92 2.372-32.541 2.173-28.725-.479-26.16-.479-26.16-1.66-24.728-6.72-24-11.778-23.271-17.322-23.286-22.319-22.8-27.317-22.312-29.156-22.125-29.04-19.68-28.923-17.234-28.378-9.291-27.84-8.16-27.301-7.029-26.396-6.81-24.72-6.72-23.043-6.63-4.632-6.723-3.359-6.72-2.088-6.717-1.426-7.056 0-5.04 1.427-3.024 3.133-.027 0 0" fill="#404041" fill-rule="evenodd"/>
<path transform="matrix(1,0,0,-1,568.6396,279.6001)" d="M0 0V-36.479C0-36.479-.568-37.899 3.12-38.16 6.809-38.42 29.599-38.734 32.16-38.399 34.723-38.065 35.93-38.402 37.681-35.52 39.431-32.638 40.495-30.803 38.399-30.96 36.306-31.117 19.685-31.739 14.641-31.68 9.597-31.62 7.729-31.835 7.681-28.8 7.631-25.765 7.681 14.16 7.681 14.16 7.681 14.16 8.113 15.779 6.24 15.84 4.367 15.901 .96 15.84 .96 15.84 .96 15.84 .021 15.939 0 14.64-.022 13.341 0 0 0 0" fill="#404041" fill-rule="evenodd"/>
<path transform="matrix(1,0,0,-1,620.4805,285.35993)" d="M0 0C0 0-.076-18.228 .239-19.92 .555-21.612 .71-27.637 7.92-30.96 7.92-30.96 14.799-33.347 20.64-33.36 26.48-33.373 35.114-32.234 38.159-29.76 41.205-27.286 43.752-25.422 43.92-18.48 44.087-11.538 44.159 20.399 44.159 20.399 44.159 20.399 44.442 21.588 42.96 21.6 41.477 21.611 36.823 21.78 36.479 19.439 36.136 17.1 36.239-12 36.239-12 36.239-12 36.569-19.83 34.079-22.32 31.589-24.811 28.226-26.144 21.6-26.16 14.974-26.177 9.305-24.178 8.64-19.92 7.974-15.663 8.159 5.76 8.159 5.76V19.68C8.159 19.68 8.431 21.028 6.72 21.36 5.009 21.691 1.199 21.6 1.199 21.6 1.199 21.6-.016 21.427 0 19.92 .015 18.413 0 0 0 0" fill="#404041" fill-rule="evenodd"/>
<path transform="matrix(1,0,0,-1,684.0801,287.0396)" d="M0 0V-29.761C0-29.761-.186-30.819 1.2-30.96 2.584-31.102 5.21-31.095 6-30.24 6.79-29.386 7.11-29.129 7.2-25.921 7.29-22.712 7.439 15.84 7.439 15.84 7.439 15.84 7.691 17.002 9.6 17.04 9.6 17.04 11.449 17.612 12.72 14.64 13.991 11.667 27.6-21.36 27.6-21.36 27.6-21.36 29.953-27.813 32.88-30 32.88-30 35.459-31.408 39.6-31.2 43.741-30.993 48.744-30.968 48.72-24.24 48.696-17.513 48.72 22.079 48.72 22.079 48.72 22.079 48.992 23.179 47.04 23.279 45.088 23.38 41.32 23.42 41.28 20.399 41.239 17.379 41.28-21.841 41.28-21.841 41.28-21.841 41.373-24.666 39.6-24.721 37.826-24.775 37.281-24.366 36-22.08 34.719-19.795 18 20.399 18 20.399 18 20.399 16.211 23.366 13.2 23.52 10.188 23.673 6.652 24.082 2.88 22.56 2.88 22.56 .157 21.51 0 16.079-.157 10.649 0 0 0 0" fill="#404041" fill-rule="evenodd"/>
<path transform="matrix(1,0,0,-1,752,283.1997)" d="M0 0V-32.88C0-32.88-.282-34.578 2.4-34.8 5.082-35.022 23.875-35.107 28.8-34.32 33.726-33.533 38.792-33.021 43.2-24.96 43.2-24.96 46.495-17.546 46.56-11.521 46.625-5.495 46.547 4.729 44.4 8.88 42.253 13.03 40.423 15.758 36.96 17.04 33.497 18.321 30.187 19.001 27.36 19.2 24.532 19.398 2.64 19.2 2.64 19.2 2.64 19.2-.03 19.075 0 17.521 .03 15.964 0 0 0 0" fill="#404041" fill-rule="evenodd"/>
<path transform="matrix(1,0,0,-1,760.1602,286.56013)" d="M0 0V-22.32C0-22.32-.741-24.377 1.439-24.479 3.621-24.582 14.367-25.033 18.72-24.24 23.073-23.447 26.393-21.98 28.08-17.04 29.768-12.099 30.941-3.563 30.24 1.44 29.539 6.443 28.507 10.908 24.96 13.44 24.96 13.44 22.5 15.2 18.96 15.6 15.42 16 3.359 15.84 3.359 15.84 3.359 15.84 .054 16.285 0 14.88-.054 13.475 0 0 0 0" fill="#ffffff" fill-rule="evenodd"/>
<path transform="matrix(1,0,0,-1,77.7598,73.859928)" d="M0 0-15.68 36.48C-15.68 36.48-15.463 45.416-17.28 46.56-17.28 46.56-17.735 47.596-17.12 48.8-16.505 50.004-15.317 51.324-15.36 53.28-15.36 53.28-16.148 57.4-19.36 57.28-19.36 57.28-23.403 57.073-23.2 52.16-23.2 52.16-23.104 49.227-20.48 48.16-20.48 48.16-19.859 47.487-20.16 46.72-20.46 45.953-22.686 45.098-22.24 38.56L-53.92-30.4C-53.92-30.4-54.535-32.412-56.48-32.8-58.425-33.189-60.903-33.103-60.96-36.32-60.96-36.32-60.677-38.5-57.44-39.04L-57.12-168.96C-57.12-168.96-60.604-169.902-60.48-172.32-60.48-172.32-60.922-175.658-57.28-176L-57.44-193.28C-57.44-193.28-60.528-192.862-60.48-195.2-60.48-195.2-60.303-197.404-57.44-197.44L-57.28-333.28H199.84L200-170.24C200-170.24 202.985-169.762 203.04-167.521 203.04-167.521 202.941-165.122 199.84-165.12L200-74.56 199.84-37.76C199.84-37.76 201.798-37.377 201.92-35.04 201.92-35.04 201.683-33.038 199.84-33.12 199.84-33.12 197.176-32.887 195.52-31.04 193.864-29.193 191.04-24.32 191.04-24.32L162.56 37.6V46.4C162.56 46.4 162.216 47.802 160.64 48 160.64 48 163.092 49.894 163.04 52.64 163.04 52.64 163.256 57.096 159.52 57.28 159.52 57.28 155.423 57.26 155.52 52.32 155.52 52.32 155.216 49.163 158.24 48.16 158.24 48.16 157.985 47.547 157.44 46.88 156.895 46.213 156.657 42.675 156.64 37.6L145.6 12.8 113.28-118.24C113.28-118.24 103.841-121.293 100.16-119.2 96.479-117.107 84.16-103.04 84.16-103.04L58.24-101.12 46.72-112.48 36.48-130.08 23.68-92.48Z" fill="#9fceaf" fill-rule="evenodd"/>
<path transform="matrix(1,0,0,-1,59.9106,41.154817)" d="M0 0C-2.429-2.315-4.859-4.63-7.288-6.945-7.268-7.208-7.248-7.473-7.228-7.737L-4.698-8.203C-2.331-6.366 .381-5.25 2.65-3.496 2.63-3.014 2.609-2.532 2.589-2.051 1.847-1.429 1.104-.808 .361-.187 .06-.233-.241-.28-.542-.327H-.241C-.161-.218-.081-.109 0 0" fill="#e3f2e7" fill-rule="evenodd"/>
<path transform="matrix(1,0,0,-1,58.3442,72.42871)" d="M0 0C-1.048-.744-7.228-3.451-7.228-4.381-7.288-4.832-7.348-5.282-7.409-5.732-6.425-6.323-5.44-6.914-4.457-7.504-1.893-7.504 1.2-5.544 3.132-4.055 3.252-3.247 3.373-2.439 3.493-1.631 2.947-.357 .923-.093-.301-.093-.462-.249-.623-.404-.783-.56" fill="#e3f2e7" fill-rule="evenodd"/>
<path transform="matrix(1,0,0,-1,43.1055,90.8389)" d="M0 0C-.854-1.059-.276-1.934-.843-3.029-2.329-4.365-3.814-5.702-5.3-7.037V-7.224L-4.276-7.457C-2.208-7.301-.14-7.146 1.928-6.991 3.714-7.192 5.501-7.395 7.289-7.597 8.171-6.789 9.055-5.981 9.938-5.173V-4.567C8.192-4.458 6.445-4.35 4.698-4.241 3.878-2.968 1.158 0-.481 0-.622-.093-.763-.186-.903-.279L-.421-.559C-.281-.373-.14-.187 0 0" fill="#e3f2e7" fill-rule="evenodd"/>
<path transform="matrix(1,0,0,-1,59.3682,85.57181)" d="M0 0C-3.311 .427-6.023-3.542-6.023-6.432-5.501-6.603-4.979-6.773-4.457-6.944-2.771-6.513-2.36-4.148-.361-4.148-.321-4.63-.281-5.112-.241-5.593-1.3-7.221-3.373-7.708-3.373-10.207-2.69-10.922-2.007-11.637-1.325-12.351 .616-12.351 2.104-12.477 3.976-11.512 4.257-11.155 4.538-10.797 4.819-10.44 5.465-7.432 5.075-4.2 3.433-1.678 2.224-1.055 1.017-.419-.361-.419-.241-.28-.121-.14 0 0" fill="#e3f2e7" fill-rule="evenodd"/>
<path transform="matrix(1,0,0,-1,25.7856,126.012729)" d="M0 0C.643 .528 1.285 1.057 1.927 1.585 1.947 1.865 1.967 2.145 1.987 2.424 1.887 2.61 1.787 2.797 1.686 2.983 .803 3.185-.081 3.387-.964 3.589-1.446 3.294-1.928 2.999-2.409 2.703-2.51 .373-2.61-1.958-2.71-4.288-3.893-8.882-1.864-14.037-2.71-18.643-3.012-21.237-3.313-23.832-3.614-26.426-3.333-26.675-3.052-26.923-2.771-27.172-.924-27.125 .924-27.079 2.771-27.032 2.771-25.508 2.045-24.437 1.747-22.93 1.385-18.006 1.024-13.08 .663-8.156 .703-8.109 .743-8.063 .783-8.016 .984-7.768 1.185-7.519 1.385-7.271 1.545-7.193 1.706-7.115 1.867-7.037 3.012-7.037 8.263-1.724 5.481-1.724 3.86-2.976 2.379-5.034 .241-5.034 .522-4.195 .803-3.355 1.084-2.517L-.301-1.538C-.321-1.181-.341-.823-.361-.466-.06-.342 .241-.217 .542-.093 .361-.062 .181-.031 0 0" fill="#e3f2e7" fill-rule="evenodd"/>
<path transform="matrix(1,0,0,-1,39.6387,120.23291)" d="M0 0C-1.48-.353-4.566-2.276-5.481-3.682-5.481-4.888-2.37-4.381-1.747-4.381 .139-4.381 8.877-4.209 9.818-2.75 9.858-2.036 9.898-1.321 9.938-.606 9.322-.131-.269 .209-1.325-.606" fill="#e3f2e7" fill-rule="evenodd"/>
<path transform="matrix(1,0,0,-1,54.8169,122.237308)" d="M0 0C-.903-.559-1.807-1.119-2.71-1.678-2.71-2.183 2.471-8.156 3.192-8.156 4.919-6.681 6.646-5.204 8.373-3.729 11.91-.99 17.456-1.915 19.214 3.542 19.153 3.869 19.093 4.195 19.033 4.521 14.566 5.379 7.745-3.093 2.65-1.771 1.634-.986 .675 .357-.723-.187" fill="#e3f2e7" fill-rule="evenodd"/>
<path transform="matrix(1,0,0,-1,47.71,128.8555)" d="M0 0C-1.684 0-3.037-.377-4.578-.979-4.578-2.301-4.953-4.455-3.674-5.453-1.29-6.368-.053-3.998 2.108-4.334 3.594-4.692 5.08-5.049 6.565-5.406 7.477-4.702 7.529-4.367 7.529-3.263 5.452-1.659 2.152 .28-.301 .28-.482 .202-.663 .125-.844 .047" fill="#e3f2e7" fill-rule="evenodd"/>
<path transform="matrix(1,0,0,-1,70.6582,128.9956)" d="M0 0C-1.823-.586-6.144-2.786-6.144-4.987-4.358-6.366 1.355-2.385 2.771-1.305V-.419C1.934 .866-.177-.511-.904-1.072" fill="#e3f2e7" fill-rule="evenodd"/>
<path transform="matrix(1,0,0,-1,52.7695,167.6792)" d="M0 0 2.108 1.677 2.168 2.61C.413 2.61-2.062 2.484-3.433 3.542-3.433 5.145-2.289 6.145-2.289 7.783-4.457 7.706-6.626 7.628-8.794 7.55-9.958 5.842-11.123 4.132-12.288 2.424-10.511 1.05-5.931 1.958-3.674 1.958-2.45 1.32-1.225 .683 0 .046Z" fill="#e3f2e7" fill-rule="evenodd"/>
<path transform="matrix(1,0,0,-1,74.332,163.39212)" d="M0 0C1.12 1.388 3.192 3.029 3.192 4.895 1.927 4.708 .662 4.521-.603 4.335-1.415 3.707-7.529-2.584-7.529-3.122-7.345-3.264 5.595-3.126 6.083-2.749 6.425-2.299 6.766-1.848 7.107-1.398V-.512C4.759-.279 2.409-.046 .061 .187 .04 .125 .02 .062 0 0" fill="#e3f2e7" fill-rule="evenodd"/>
<path transform="matrix(1,0,0,-1,44.8789,174.5308)" d="M0 0C-.281 .093-.562 .187-.843 .279-.843 1.848-1.696 2.098-3.011 2.098-4.136 1.514-5.342 1.419-6.264 .699-6.244 .575-6.224 .451-6.204 .326-5.06-.59-3.915-1.507-2.771-2.424-1.546-2.893 .544-1.9 1.205-.886 1.145-.543 1.084-.202 1.024 .14 .643 .187 .261 .233-.12 .279-.08 .187-.04 .093 0 0" fill="#e3f2e7" fill-rule="evenodd"/>
<path transform="matrix(1,0,0,-1,53.4917,173.73831)" d="M0 0C-1.441-.093-4.035-.656-4.035-2.61V-2.797C-3.242-4.015 .05-4.614 1.446-4.614 2.888-3.488 1.265-1.519 1.265-.559 .703-.451 .141-.342-.421-.233-.281-.155-.14-.078 0 0" fill="#e3f2e7" fill-rule="evenodd"/>
<path transform="matrix(1,0,0,-1,71.7798,173.26522)" d="M0 0C-2.98 1.318-6.97-1.995-9.215-3.728V-4.147C-4.839-3.853-.461-3.557 3.915-3.262 6.555-3.516 8.973-5.313 11.745-5.313 11.866-5.173 11.986-5.033 12.106-4.894 12.456-4.08 12.588-3.791 12.588-2.889 8.344-1.788 4.04 .187-.121 .187V-.186C-.08-.124-.04-.062 0 0" fill="#e3f2e7" fill-rule="evenodd"/>
<path transform="matrix(1,0,0,-1,38.6523,202.95362)" d="M0 0H-2.229C-3.831-2.487-9.034-4.536-9.034-7.97-8.633-7.985-8.231-8.001-7.83-8.017-6.284-6.541-4.738-5.064-3.192-3.589-1.305-2.533 .583-1.476 2.47-.419V0C1.385 .078 .301 .155-.783 .233" fill="#e3f2e7" fill-rule="evenodd"/>
<path transform="matrix(1,0,0,-1,46.9644,211.10991)" d="M0 0C-1.344 0-8.854-1.643-8.854-3.216-8.834-3.465-8.814-3.713-8.794-3.962-5.501-4.412-2.208-4.863 1.084-5.313 2.268-3.94 5.963-2.968 5.963-.699 5.381-.295 4.798 .109 4.216 .512 2.354 .993 .476-.046-1.024-.046" fill="#e3f2e7" fill-rule="evenodd"/>
<path transform="matrix(1,0,0,-1,65.877,202.90682)" d="M0 0C-.803 .046-1.606 .093-2.409 .139-3.648-.336-7.709-4.347-7.709-5.826L-7.167-6.153C-6.947-6.168-6.726-6.184-6.505-6.199-6.426-6.199 7.393-1.108 7.469-.933 7.449-.762 7.429-.59 7.409-.419 7.349-.389 7.288-.357 7.228-.326 5.095 .773 1.901-1.401-.301 .279H-.361C-.401 .295-.442 .311-.482 .326-.502 .341-.522 .357-.542 .373-.662 .232-.783 .093-.903-.047" fill="#e3f2e7" fill-rule="evenodd"/>
<path transform="matrix(1,0,0,-1,88.4038,202.1148)" d="M0 0C-2.582-.181-9.464 .107-11.504-1.072-11.605-1.165-11.705-1.258-11.806-1.352-11.786-1.942-11.765-2.532-11.745-3.123-9.511-3.987-6.337-9.229-4.698-9.229-4.558-8.079-4.417-6.929-4.277-5.779-3.18-4.252 1.264-2.451 1.264-.606 .763-.311 .26-.016-.241 .28-.462 .171-.683 .062-.904-.046" fill="#e3f2e7" fill-rule="evenodd"/>
<path transform="matrix(1,0,0,-1,74.9717,210.83011)" d="M0 0C-1.99 0-5.559-1.454-7.167-2.704L-7.408-3.776C-5.271-5.423 3.86-3.961 6.566-3.961 6.586-3.356 6.606-2.75 6.626-2.145 5.863-1.243 5.1-.342 4.337 .559 2.467 .559-1.626-.28-1.626-.28" fill="#e3f2e7" fill-rule="evenodd"/>
<path transform="matrix(1,0,0,-1,90.9331,207.4282)" d="M0 0C-1.935-.681-6.023-2.636-6.023-5.127-5.602-5.235-5.18-5.344-4.758-5.453-2.413-4.723 .19-3.595 2.108-2.097 2.309-1.507 2.51-.917 2.711-.326 2.023 .741 .467-.559-.181-.559-.121-.373-.06-.187 0 0" fill="#e3f2e7" fill-rule="evenodd"/>
<path transform="matrix(1,0,0,-1,93.5889,213.81502)" d="M0 0C-.904-.109-1.807-.218-2.711-.327-4.131-.879-3.615-4.396-3.734-5.5-4.096-11.248-4.458-16.997-4.819-22.745-3.693-23.624 3.505-23.214 2.831-21.113 .732-19.495-1.084-16.354-1.084-13.657 1.495-11.642 5.137-6.795 4.216-3.217 3.514-2.128 2.05-.2 .723 .186 .521 .278 .321 .373 .12 .464 .08 .31 .04 .154 0 0" fill="#e3f2e7" fill-rule="evenodd"/>
<path transform="matrix(1,0,0,-1,106.0562,230.36092)" d="M0 0C-1.834-.203-3.221-1.896-4.457-3.17-4.577-3.962-4.698-4.755-4.818-5.547-4.64-5.824-1.747-9.509-1.747-9.509H-1.204C-.285-8.321 2.16-.906 1.205 .326 .564 .622-.564 .59-1.144 .139" fill="#e3f2e7" fill-rule="evenodd"/>
<path transform="matrix(1,0,0,-1,111.1157,233.01811)" d="M0 0C.705-1.962 1.31-4.156 .301-6.105-.04-6.541-.381-6.976-.723-7.411 2.165-7.411 7.348-5.51 7.348-2.33 6.525-.418 3.329 .326 1.446 .326 1.285 .171 1.125 .016 .964-.14 .923-.233 .883-.326 .843-.419" fill="#e3f2e7" fill-rule="evenodd"/>
<path transform="matrix(1,0,0,-1,150.8862,201.30762)" d="M0 0C-2.469 .093-4.939 .187-7.409 .279V-1.049C-7.409-1.049 3.785-7.037 4.697-7.34 5.54-7.574 6.383-7.807 7.227-8.04 7.227-4.352 3.43-2.451 1.716 .209H-.995" fill="#e3f2e7" fill-rule="evenodd"/>
<path transform="matrix(1,0,0,-1,238.6943,38.916505)" d="M0 0C-.452 .14-.904 .279-1.355 .419-3.814-.523-1.507-12.525 .09-13.773 1.987-13.819 3.884-13.866 5.781-13.913 4.546-10.324 3.312-6.735 2.077-3.146 1.405-2.621-.362 .441-.362-.35-.241-.233-.121-.117 0 0" fill="#e3f2e7" fill-rule="evenodd"/>
<path transform="matrix(1,0,0,-1,247.8184,81.91211)" d="M0 0C-3.659 0-9.486-3.878-9.486-7.76-10.871-8.785-12.256-9.811-13.642-10.835-14.667-11.718-17.379-14.554-16.352-16.149-11.276-18.096-.775-7.55 1.987-3.984 2.747-3.003 2.529-1.668 2.529-.489 1.695 .158 .373-.069-.633-.069L0 0" fill="#e3f2e7" fill-rule="evenodd"/>
<path transform="matrix(1,0,0,-1,256.2192,81.91211)" d="M0 0C-3.737-.963-5.51-5.273-5.51-8.669-4.848-9.322-4.185-9.974-3.522-10.626-2.566-10.626-2.092-10.288-1.354-9.717-1.354-5.976 3.343-5.391 3.343-1.958 3.223-1.608 3.103-1.258 2.982-.909 2.448-.501-1.265-.419-1.265-.419" fill="#e3f2e7" fill-rule="evenodd"/>
<path transform="matrix(1,0,0,-1,247.0054,94.0069)" d="M0 0C-1.561-1.005-3.405-1.77-4.426-3.355V-4.124C-1.668-4.124 1.137-3.355 3.794-3.355 3.854-2.866 3.915-2.376 3.975-1.887 3.071-1.188 2.168-.489 1.265 .21 .512 .164-.241 .117-.994 .07" fill="#e3f2e7" fill-rule="evenodd"/>
<path transform="matrix(1,0,0,-1,243.3018,100.36871)" d="M0 0C-3.335 0-5.554-1.005-8.583-2.167V-2.656C-7.001-4.493 2.917-3.426 6.052-3.426 6.474-2.75 6.895-2.074 7.316-1.398 5.088-1.048 2.86-.699 .632-.35 .331-.373 .029-.396-.272-.419-.181-.279-.091-.14 0 0" fill="#e3f2e7" fill-rule="evenodd"/>
<path transform="matrix(1,0,0,-1,261.4595,91.90872)" d="M0 0C-2.108-.627-4.517-1.07-4.517-3.496-3.775-5.775-.439-6.921 1.716-6.921 1.958-6.688 2.198-6.455 2.439-6.222V-3.217C2.157-2.784-.542 0-.542 0Z" fill="#e3f2e7" fill-rule="evenodd"/>
<path transform="matrix(1,0,0,-1,266.7896,101.41702)" d="M0 0C-3.613-.116-7.228-.233-10.841-.35-11.534-.885-12.226-1.421-12.918-1.958V-2.727C-12.792-2.874-1.093-3.717-.362-3.146 .323-2.617 .361-1.378 .361-.56 .12-.233-.121 .093-.362 .419L-2.168 .069" fill="#e3f2e7" fill-rule="evenodd"/>
<path transform="matrix(1,0,0,-1,271.4619,114.107028)" d="M0 0C-.692-.116-1.385-.233-2.077-.35-2.047-.956-2.017-1.562-1.987-2.167-.69-3.505 1.668-3.705 3.253-3.705 3.403-3.588 3.554-3.472 3.704-3.355 3.764-2.75 3.824-2.144 3.885-1.539 2.797 .161 1.721 0-.09 0V.769C-.06 .513-.03 .256 0 0" fill="#e3f2e7" fill-rule="evenodd"/>
<path transform="matrix(1,0,0,-1,242.6436,121.93701)" d="M0 0C-1.971 .939-7.56 .245-9.395-1.188-9.395-4.202-7.698-5.975-6.143-8.39-4.592-8.39 .194-3.651 2.71-3.006 6.138-2.129 9.732-2.399 12.919-3.215 13.939-4.4 16.047-4.964 17.616-4.964 17.616-3.434 22.766-1.888 22.766-1.118 22.766 .082 17.446 .522 16.803 .629 13.291 1.212 8.338 2.062 4.698 1.258 2.801 .815 .904 .373-.994-.07" fill="#e3f2e7" fill-rule="evenodd"/>
<path transform="matrix(1,0,0,-1,232.4351,132.07422)" d="M0 0C-.09 .629-.181 1.258-.271 1.887-.889 2.853-7.519 4.443-8.762 4.125-8.943 3.869-9.124 3.612-9.305 3.355V1.678C-9.094 1.398-8.883 1.119-8.672 .839-7.309-.332-5.427-.092-3.884-.839-2.139-1.683-.747-3.32 .814-4.125 .874-4.171 .935-4.218 .995-4.265 1.024-3.402 1.055-2.54 1.084-1.678 .723-1.002 .361-.326 0 .35-.21 .396-.421 .443-.632 .49-.421 .327-.21 .163 0 0" fill="#e3f2e7" fill-rule="evenodd"/>
<path transform="matrix(1,0,0,-1,251.5874,128.78812)" d="M0 0C-1.625-.503-8.673-3.079-8.673-5.034-5.06-5.034-1.699-4.265 1.897-4.265 2.671-5.465 5.721-5.152 6.956-5.034 7.739-4.684 8.522-4.334 9.305-3.985 9.335-3.752 9.365-3.519 9.395-3.286 8.366-2.482 1.987-2.983 1.987-2.028 2.62-1.585 3.252-1.142 3.885-.699V-.35C3.468 .291 .38 .502-.271 0Z" fill="#e3f2e7" fill-rule="evenodd"/>
<path transform="matrix(1,0,0,-1,268.6616,123.05521)" d="M0 0C-1.294-1.072-2.59-2.145-3.885-3.217-3.764-3.31-3.644-3.403-3.523-3.496-2.191-4.528-.997-4.201 0-5.733 0-12.608-3.187-18.539-2.168-25.658-2.138-27.662-2.108-29.666-2.078-31.67H3.252C3.252-24.763 5.253-17.104 4.337-10.068 4.126-8.25 3.915-6.432 3.704-4.615 3.192-3.146 2.68-1.678 2.168-.21 1.355-.14 .542-.07-.271 0-.331 .023-.391 .046-.452 .069-.301 .093-.15 .116 0 .14Z" fill="#e3f2e7" fill-rule="evenodd"/>
<path transform="matrix(1,0,0,-1,228.8252,159.81842)" d="M0 0C.527-2.85-5.149-4.325-5.149-5.943-3.764-6.479-2.379-7.015-.994-7.551 .863-6.1 4.697-2.857 4.697-.35H2.439C1.572-.35-.038-.324-.361-1.329" fill="#e3f2e7" fill-rule="evenodd"/>
<path transform="matrix(1,0,0,-1,238.311,160.728)" d="M0 0C-1.522-.32-4.878-3.271-4.878-5.103H-.633C.06-4.427 .752-3.751 1.445-3.076 1.445-2.523 .812-.069 .542-.069 .21-.116-.121-.162-.452-.209-.301-.139-.151-.069 0 0" fill="#e3f2e7" fill-rule="evenodd"/>
<path transform="matrix(1,0,0,-1,247.4346,158.70023)" d="M0 0C-2.353-.456-3.497-2.064-5.239-3.425V-4.475C-4.027-4.708-2.642-5.011-1.445-4.544-.008-3.434 .633-2.232 .633-.419 .242-.256-.15-.093-.542 .07L-1.716-.56" fill="#e3f2e7" fill-rule="evenodd"/>
<path transform="matrix(1,0,0,-1,270.291,159.3291)" d="M0 0C-2.453 .253-5.135 0-7.678 0-8.77-1.677-14.183-6.809-14.183-7.411-14.183-7.411-7.052-12.581-6.143-13.283-5.035-13.283-2.71-12.079-2.71-10.836-3.096-10.237-5.782-10.02-5.782-9.019-5.782-8.197-1.284-6.292-.181-6.292-.181-8.742-.542-11.446-.542-13.983-1.568-13.983-1.888-16.508-1.987-17.128-3.012-23.503-2.71-30.377-2.71-36.913H2.439C4.098-34.987 2.397-30.28 2.62-28.034 2.853-25.687 3.021-22.819 3.523-20.484V-12.374C3.854-10.845 4.561-9.473 4.246-7.761 3.948-6.144 .452-.97 .452-.279 .069-.279-.631 .046-.181-.42-.121-.28-.06-.14 0 0" fill="#e3f2e7" fill-rule="evenodd"/>
<path transform="matrix(1,0,0,-1,223.9917,172.5254)" d="M0 0C-2.069 .291-6.765 .295-8.763-.629L-11.745-3.286C-12.136-3.565-12.527-3.845-12.918-4.125-12.918-4.914-8.033-4.944-7.589-4.964-4.034-5.125-.658-4.404 2.8-4.404 3.553-3.589 4.306-2.773 5.059-1.958V-.56C3.448-.56-.417-.723-1.716 .279" fill="#e3f2e7" fill-rule="evenodd"/>
<path transform="matrix(1,0,0,-1,214.144,203.98491)" d="M0 0C2.064 .664-1.549 .478-2.168 0-2.168-1.658-2.981-2.734-2.981-4.195-2.078-4.195 4.649-3.259 5.42-2.657 9.142-2.657 12.877-3.706 16.442-3.706 16.984-4.568 17.526-5.431 18.068-6.292 20.045-6.292 21.71-5.2 23.669-4.825 28.044-3.986 35.346-5.646 38.575-2.517L43.001-.21C39.991 .139 36.979 .489 33.968 .838 32.462 1.141 30.957 1.444 29.451 1.748 22.556 1.724 15.659 1.701 8.763 1.677 7.372 1.677-1.354 1.991-1.354 .209" fill="#e3f2e7" fill-rule="evenodd"/>
<path transform="matrix(1,0,0,-1,255.791,209.8574)" d="M0 0C-3.223 .19-11.272-1.219-13.189-4.196-13.16-4.452-13.129-4.708-13.1-4.964-12.558-5.407-12.015-5.85-11.473-6.292-5.993-6.292-.881-5.993 2.258-1.12V-.63C1.301-.63 .357 .069-.723 .069-.482 .046-.241 .023 0 0" fill="#e3f2e7" fill-rule="evenodd"/>
<path transform="matrix(1,0,0,-1,274.4009,203.56592)" d="M0 0C-2.613 1.399-4.892-.699-7.499-.699-7.499-3.984-5.846-3.557-5.42-6.501-5.27-13.143-5.119-19.785-4.968-26.426-5.209-27.521-5.45-28.617-5.691-29.712-3.61-29.712-2.667-32.321-1.175-33.487-.844-33.417-.512-33.348-.181-33.277-.181-24.814-.633-16.35-.633-7.97-.723-5.15-.813-2.33-.904 .489L-1.717-.419" fill="#e3f2e7" fill-rule="evenodd"/>
<path transform="matrix(1,0,0,-1,206.5659,213.94782)" d="M0 0 1.175 1.049C.151 .56-.873 .07-1.896-.419L-4.426-1.538C-4.426-5.75-4.246-10.374-4.246-14.821-2.86-14.355-1.475-13.889-.09-13.423 0-13.307 .091-13.19 .181-13.073 1.046-11.96-.158-6.128 .091-4.194 .305-2.534 1.355-1.233 1.355 .489 1.235 .886 1.115 1.282 .995 1.678H0" fill="#e3f2e7" fill-rule="evenodd"/>
<path transform="matrix(1,0,0,-1,181.4526,233.24372)" d="M0 0C-.723 .047-1.446 .094-2.168 .14-2.56-2.726-2.952-5.593-3.343-8.459-2.661-8.459 3.162-6.998 3.162-6.571 4.385-5.616 3.704-1.655 3.704-.14 3.644-.069 3.583 .001 3.523 .07 2.198 .187 .873 .304-.452 .42-.301 .28-.151 .141 0 0" fill="#e3f2e7" fill-rule="evenodd"/>
<path transform="matrix(1,0,0,-1,29.3662,252.86872)" d="M0 0H-5.059C-5.36-.279-5.661-.56-5.962-.839-5.962-4.981-5.555-9.224-4.968-13.283-4.727-14.956-4.97-23.349-5.781-24.608-5.781-28.579-5.813-32.266-6.414-36.004-6.564-39.243-6.715-42.483-6.866-45.723L-6.595-46.561C-6.414-46.607-6.233-46.654-6.053-46.701-5.059-45.21-4.065-43.718-3.071-42.227-1.447-32.248-2.981-21.389-2.981-11.325-2.981-9.578-2.273 .07-.632 .07-.783-.21-.933-.489-1.083-.771" fill="#e3f2e7" fill-rule="evenodd"/>
<path transform="matrix(1,0,0,-1,40.2974,261.25733)" d="M0 0C-1.32 .557-2.593 1.817-4.065 1.817-3.885-2.19-3.704-6.2-3.523-10.208-2.891-10.277-2.258-10.348-1.626-10.417-1.084-10.067-.542-9.718 0-9.369 .377-8.783 2.981-1.56 2.981-.979 1.807-.677 .632-.374-.542-.07Z" fill="#e3f2e7" fill-rule="evenodd"/>
<path transform="matrix(1,0,0,-1,55.9263,260.6988)" d="M0 0C-1.027-.306-4.922-2.271-5.872-1.538-6.113-1.468-6.354-1.398-6.595-1.329V-2.027C-4.353-5.503 .542-5.279 .542-9.578 .481-9.694 .421-9.813 .361-9.928-.859-9.928-5.149-13.498-5.149-14.961-1.147-14.961 3.171-13.912 7.317-13.912L7.588-13.563C6.775-12.292 2.168-8.398 2.168-7.201 3.517-6.147 7.046-5.008 7.046-3.006 4.664-3.006 3.257 .42 .633 .42 .301 .116-.03-.187-.361-.489-.241-.326-.121-.163 0 0" fill="#e3f2e7" fill-rule="evenodd"/>
<path transform="matrix(1,0,0,-1,92.5137,253.35791)" d="M0 0C-1.333 .317-3.513 .664-4.878 .14-4.878-2.546-4.374-2.964-2.981-5.104-3.403-6.571-3.825-8.04-4.247-9.508-2.156-9.508 1.696-6.237 3.343-4.964 2.951-3.565 2.56-2.167 2.168-.77 2.121-.751-.633 .14-.633 .14-.422 .093-.211 .046 0 0" fill="#e3f2e7" fill-rule="evenodd"/>
<path transform="matrix(1,0,0,-1,95.4048,262.86573)" d="M0 0C-1.159-.225-4.478-2.237-4.789-2.237-4.758-4.729-4.729-7.225-4.698-9.718-5.511-10.067-6.325-10.417-7.138-10.767-7.499-12.653-7.86-14.542-8.221-16.43-7.228-15.497-6.234-14.565-5.24-13.633-4.138-16.178-4.336-19.853-4.336-22.651-3.132-22.745-1.927-22.838-.723-22.932-.633-17.896-.542-12.863-.452-7.83-.121-5.267 .21-2.703 .542-.141-.151-.164-.844-.187-1.537-.21" fill="#e3f2e7" fill-rule="evenodd"/>
<path transform="matrix(1,0,0,-1,103.5518,255.80912)" d="M0 0C-.723-.116-1.446-.233-2.168-.35-2.289-5.965-2.41-11.582-2.53-17.197-1.527-17.197 .942-16.363 1.445-15.59 1.114-10.44 .783-5.289 .452-.14H.09C-.211-.279-.513-.419-.813-.559-.542-.372-.271-.187 0 0" fill="#e3f2e7" fill-rule="evenodd"/>
<path transform="matrix(1,0,0,-1,61.6343,280.7671)" d="M0 0C.161-1.757-2.486-3.813-3.885-4.894H2.258C4.456-3.473 6.655-2.051 8.853-.629 8.401-.536 7.95-.443 7.498-.35 4.638-.466 1.776-.583-1.084-.699" fill="#e3f2e7" fill-rule="evenodd"/>
<path transform="matrix(1,0,0,-1,47.6318,287.1988)" d="M0 0C-2.68-1.701-5.36-3.402-8.041-5.104-8.131-8.412-8.221-11.722-8.311-15.03-6.322-15.03-5.204-11.031-4.065-9.857-2.403-8.146 5.725-.771 7.678-.771 4.818-.583 1.957-.396-.904-.21-.603-.14-.301-.069 0 0" fill="#e3f2e7" fill-rule="evenodd"/>
<path transform="matrix(1,0,0,-1,42.6626,302.9995)" d="M0 0C-1.73-.223-2.713-1.19-3.523-2.446-3.523-9.713-3.794-17.076-3.794-24.258-3.794-24.899-2.918-30.945-2.439-31.319-.874-30.667 .693-30.015 2.259-29.362 1.958-28.616 1.657-27.871 1.355-27.125V-21.393C1.476-20.064 1.596-18.735 1.716-17.407 1.716-19.646 3.963-21.093 5.33-22.161 5.33-25.293 5.396-27.893 6.595-30.69 7.819-31.16 8.486-29.921 9.486-29.921 9.576-25.261 9.667-20.599 9.757-15.938 9.516-15.893 9.275-15.846 9.034-15.799 8.312-16.642 6.053-18.383 6.053-19.574H5.692C5.511-19.085 5.33-18.596 5.149-18.106 3.704-17.011 2.259-15.916 .813-14.82 .813-11.019 2.662-6.943 1.807-3.005 1.663-2.338-.109 1.513-.903 .28-.602 .187-.301 .094 0 0" fill="#e3f2e7" fill-rule="evenodd"/>
<path transform="matrix(1,0,0,-1,67.2354,307.1236)" d="M0 0C-.783-.21-1.566-.42-2.349-.63-2.47-1.678-2.59-2.729-2.71-3.774L-1.536-6.851C-1.325-10.16-1.114-13.47-.904-16.779-1.915-20.707-2.349-24.141-2.349-28.034 .708-28.034 1.511-26.392 3.704-24.679H11.292C12.746-23.556 12.196-19.068 12.196-17.548 12.196-13.063 13.864-.774 11.383 3.076 9.743 3.705 7.943 3.146 6.324 3.146 6.896 .373 7.468-2.4 8.04-5.174 8.412-10.083 7.136-14.856 7.136-19.575 5.601-19.832 4.064-20.088 2.529-20.345 .439-15.468 .994-10.835 .994-5.732 .903-4.171 .813-2.609 .723-1.049 .301-.652-.121-.256-.542 .141Z" fill="#e3f2e7" fill-rule="evenodd"/>
<path transform="matrix(1,0,0,-1,24.2339,312.9263)" d="M0 0C-1.399-2.527-.978-12.519-.362-15.87-.114-17.22-1.632-19.715-.362-20.693-.271-20.717-.181-20.74-.09-20.764 1.867-20.484 3.825-20.204 5.782-19.925L6.866-14.191C6.625-14.238 6.384-14.285 6.143-14.331 4.867-15.153 2.756-17.496 1.083-16.22 1.054-10.674 1.023-5.126 .994 .42 .331 .28-.332 .14-.994 0-.753-.07-.512-.14-.271-.21-.181-.14-.09-.07 0 0" fill="#e3f2e7" fill-rule="evenodd"/>
<path transform="matrix(1,0,0,-1,28.3892,339.562)" d="M0 0C-1.776-.117-3.553-.233-5.33-.351-5.39-.443-5.451-.536-5.511-.63-5.571-3.845-5.631-7.062-5.691-10.277-4.547-9.881-3.402-9.484-2.258-9.089-2.258-4.555-3.109-3.286 1.897-3.286V-2.517C1.733-2.14 1.271-.7 .723-.7L-1.084 0" fill="#e3f2e7" fill-rule="evenodd"/>
<path transform="matrix(1,0,0,-1,30.6475,350.74763)" d="M0 0C-.974 .062-1.223 .102-1.897-.42-1.897-1.709-2.379-8.579-2.981-9.509-2.981-11.735-2.439-14.138-2.439-16.149L.813-15.73C1.024-11.42 1.235-7.107 1.446-2.797 1.325-1.422 1.205-.047 1.085 1.328V1.468C.452 1.002-.18 .535-.812 .069L-.903-.35C-.603-.233-.301-.117 0 0" fill="#e3f2e7" fill-rule="evenodd"/>
<path transform="matrix(1,0,0,-1,38.5977,348.232)" d="M0 0C-.03-3.961-.061-7.923-.091-11.885 .994-11.907 2.078-11.931 3.162-11.954V-11.115-10.346C3.162-6.923 2.981-3.495 2.981-.14 2.951 .304 2.921 .746 2.891 1.187L.361 .07V-.559C.241-.372 .121-.187 0 0" fill="#e3f2e7" fill-rule="evenodd"/>
<path transform="matrix(1,0,0,-1,40.0435,378.36283)" d="M0 0C-.753-.745-1.506-1.491-2.259-2.237-2.019-7.131-1.777-12.025-1.537-16.919-.422-16.849 .692-16.779 1.806-16.709 1.987-12.701 2.167-8.691 2.348-4.684 1.927-3.216 1.505-1.747 1.083-.279H.361C.18-.513 0-.746-.181-.979" fill="#e3f2e7" fill-rule="evenodd"/>
<path transform="matrix(1,0,0,-1,40.0435,398.21833)" d="M0 0H-1.446C-1.416-1.491-1.386-2.982-1.355-4.474 2.817-4.474 7.309-6.516 11.834-6.012 14.125-5.757 16.919-4.264 19.062-4.264 19.091-3.844 19.122-3.425 19.151-3.006 16.773-2.936 14.394-2.865 12.015-2.796 7.541-1.937 3.039 .35-1.355 .35" fill="#e3f2e7" fill-rule="evenodd"/>
<path transform="matrix(1,0,0,-1,23.2402,390.87654)" d="M0 0-.633-11.815C1.204-11.652 3.042-11.489 4.878-11.326 4.908-11.116 4.938-10.906 4.968-10.697 1.542-8.02 1.174-2.05 1.174 2.026 .752 1.934 .331 1.841-.091 1.747-.28 1.454-.899-.28-.452-.28-.301-.187-.151-.094 0 0" fill="#e3f2e7" fill-rule="evenodd"/>
<path transform="matrix(1,0,0,-1,50.4321,365.4995)" d="M0 0C.09 .467 .18 .933 .271 1.399 .271-3.112 1.084-8.107 1.084-12.863 2.529-12.724 3.975-12.584 5.42-12.444 6.696-10.467 12.558-9.694 12.558-8.18 3.153-8.18 2.078-2.043 2.078 5.873-.431 5.873 .452 1.372 .452-.35 .301-.233 .15-.116 0 0" fill="#e3f2e7" fill-rule="evenodd"/>
<path transform="matrix(1,0,0,-1,86.6587,340.3316)" d="M0 0C-.826-2.021-1.085-5.805-1.085-8.109 2.002-5.729 4.81-2.979 7.949-.56 5.513-.56 2.547-.14-.091-.14-.061-.093-.03-.046 0 0" fill="#e3f2e7" fill-rule="evenodd"/>
<path transform="matrix(1,0,0,-1,77.4438,356.271)" d="M0 0C-.964-.699-1.928-1.398-2.891-2.098V-9.718C-1.295-9.602 .301-9.484 1.897-9.368 1.897-6.584 1.354-3.173 1.354-.77 .812-.699 .271-.629-.271-.56-.271-.172 .396-.183 .09-.42 .06-.279 .03-.14 0 0" fill="#e3f2e7" fill-rule="evenodd"/>
<path transform="matrix(1,0,0,-1,78.1665,368.0855)" d="M0 0C-.572-.141-1.145-.28-1.716-.421-1.927-.606-2.138-.793-2.349-.979-2.53-4.125-2.71-7.271-2.891-10.417-1.566-10.37-.241-10.324 1.083-10.277L1.445-1.119C1.008-1.119 .09-.293 .09 .21L-.181-.49C-.121-.327-.061-.163 0 0" fill="#e3f2e7" fill-rule="evenodd"/>
<path transform="matrix(1,0,0,-1,94.9697,288.6675)" d="M0 0C-1.805-.465-3.442-1.534-4.788-2.587-4.969-5.522-5.149-8.459-5.33-11.396-5.719-11.396-7.138-12.762-7.138-13.353-5.362-14.034-2.707-13.213-.723-13.213-.723-8.854 .632-3.756 .632 .21 .421 .257 .21 .303 0 .35Z" fill="#e3f2e7" fill-rule="evenodd"/>
<path transform="matrix(1,0,0,-1,104.1836,289.50544)" d="M0 0-1.806-1.749C-2.831-3.339-3.071-14.046-3.071-16.779-1.807-16.919-.542-17.059 .723-17.198 1.293-16.536 2.488-.447 1.446 .349 1.024 .325 .603 .303 .181 .279 .061 .116-.06-.047-.18-.21-.12-.141-.06-.07 0 0" fill="#e3f2e7" fill-rule="evenodd"/>
<path transform="matrix(1,0,0,-1,119.9033,281.815)" d="M0 0C-2.438-1.886-4.83-4.021-7.138-5.804-3.541-5.804 .352-4.475 4.246-4.475 4.998-3.356 5.751-2.238 6.504-1.12L.18 .629C-.332 .303-.844-.023-1.355-.35" fill="#e3f2e7" fill-rule="evenodd"/>
<path transform="matrix(1,0,0,-1,131.6475,261.9605)" d="M0 0C-1.755 .37-2.033-.657-3.162-1.539-3.222-5.733-3.283-9.929-3.343-14.123-1.958-14.076-.572-14.029 .812-13.982 .812-12.357 .86-.944 .181-.421 .03-.397-.121-.374-.271-.351-.181-.233-.09-.117 0 0" fill="#e3f2e7" fill-rule="evenodd"/>
<path transform="matrix(1,0,0,-1,131.2856,281.1861)" d="M0 0C-1.476-1.259-2.951-2.518-4.427-3.775-4.818-4.475-5.21-5.174-5.601-5.873-5.601-7.78-3.523-8.25-1.987-8.25-1.157-7.606 4.788-1.975 4.788-1.118 3.018 .246 2.667 1.396 .181 1.396 0 1.281-.181 1.164-.361 1.048" fill="#e3f2e7" fill-rule="evenodd"/>
<path transform="matrix(1,0,0,-1,95.6924,361.23493)" d="M0 0C-2.964-1.719-1.716-4.095-1.716-6.99-1.149-6.99 1.807-6.906 1.807-6.222 1.867-4.288 1.927-2.353 1.987-.419 1.355-.35 .723-.279 .09-.21 0-.326-.09-.443-.181-.56-.121-.373-.06-.187 0 0" fill="#e3f2e7" fill-rule="evenodd"/>
<path transform="matrix(1,0,0,-1,96.5952,371.3013)" d="M0 0C-.796-.113-1.959-1.049-2.439-1.049V-7.411C-1.62-7.411-.29-7.341 .542-7.341 .542-5.072 .723-2.455 .723-.141H0C-.061-.164-.121-.187-.181-.21-.392-.514-.602-.816-.812-1.119" fill="#e3f2e7" fill-rule="evenodd"/>
<path transform="matrix(1,0,0,-1,85.4839,394.9321)" d="M0 0C.09-2.167 .181-4.335 .271-6.502 1.031-6.502 2.004-7.889 2.981-8.039 6.112-7.644 9.245-7.247 12.376-6.852 12.376-4.479 11.653-1.993 11.653 .21 10.845 .21 6.88-8.354 3.885-3.705L3.523 .35C2.529 .442 1.536 .536 .542 .629 .421 .093 .301-.443 .18-.979" fill="#e3f2e7" fill-rule="evenodd"/>
<path transform="matrix(1,0,0,-1,123.3359,297.8247)" d="M0 0C-.714-.185-2.936-.979-3.523-.979-3.523-6.961-2.211-13.203-3.072-19.227-3.67-23.418-4.878-28.627-4.878-32.719-2.749-33.547-1.414-36.005 1.446-36.005 1.476-33.418 1.506-30.831 1.536-28.244 1.506-25.378 1.476-22.512 1.446-19.646 1.566-15.824 1.686-12.002 1.807-8.18 1.807-6.341 2.139-.402 .18 .349-.151 .372-.482 .396-.813 .419-.964 .302-1.114 .186-1.265 .069" fill="#e3f2e7" fill-rule="evenodd"/>
<path transform="matrix(1,0,0,-1,148.2695,306.9829)" d="M0 0C.21 .629 .421 1.258 .632 1.887-.362 1.7-1.355 1.514-2.349 1.328-2.349-4.691-3.072-10.943-3.072-16.92-1.476-16.616 .121-16.312 1.717-16.01 1.717-11.547 2.529-7.193 2.529-2.797 2.529-2.272 2.948 1.118 2.168 1.118 2.168 1.737-.636 2.023-1.174 1.817" fill="#e3f2e7" fill-rule="evenodd"/>
<path transform="matrix(1,0,0,-1,160.9175,252.10301)" d="M0 0C-1.656-.536-3.313-1.072-4.969-1.608-4.969-4.406-4.006-4.824-1.717-4.824 .628-3.732 5.51-4.263 7.136-3.007 7.227-2.191 7.317-1.375 7.407-.56 4.637-.28 1.866 0-.904 .279-.603 .187-.301 .093 0 0" fill="#e3f2e7" fill-rule="evenodd"/>
<path transform="matrix(1,0,0,-1,149.4443,266.7154)" d="M0 0C-1.508 .389-1.667-.21-2.801-.21-3.012-.699-3.222-1.188-3.433-1.678-3.874-4.077-3.704-7.232-3.704-9.927-2.53-9.53-1.355-9.134-.181-8.738-.181-5.752 1.896-2.912 1.896-.279 .842-.162-.212-.046-1.266 .07" fill="#e3f2e7" fill-rule="evenodd"/>
<path transform="matrix(1,0,0,-1,165.8857,261.2613)" d="M0 0C-.761-.084-1.987-.058-1.987-1.05-2.428-2.742-2.396-12.563-1.265-13.424-.011-13.424 1.233-13.444 2.258-12.654V.419L-.723 .489C-.482 .326-.241 .163 0 0" fill="#e3f2e7" fill-rule="evenodd"/>
<path transform="matrix(1,0,0,-1,145.4687,281.1861)" d="M0 0C-.996 .128-2.635 .057-3.433-.56-4.217-1.164-4.078-2.413-3.794-3.286-2.229-4.196 .119-3.915 1.897-3.915 2.68-3.263 3.463-2.61 4.247-1.958 4.307-1.608 4.367-1.259 4.427-.909 4.187-.816 3.945-.723 3.705-.629H.542C.181-.326-.181-.023-.542 .279-.692-.023-.843-.326-.994-.629" fill="#e3f2e7" fill-rule="evenodd"/>
<path transform="matrix(1,0,0,-1,134.7183,354.1734)" d="M0 0C-1.857-1.13-7.859-4.188-7.859-6.712-7.663-6.939-5.51-8.809-5.51-8.809-4.637-7.924-3.763-7.038-2.89-6.153 .512-4.941 3.916-3.729 7.317-2.518 7.864-2.095 11.708-.723 11.022 .35 8.94 1.148 .369 1.187-1.354-.14" fill="#e3f2e7" fill-rule="evenodd"/>
<path transform="matrix(1,0,0,-1,147.8179,369.97413)" d="M0 0C-3.174-1.7-6.151-2.712-8.853-4.823-8.883-5.104-8.914-5.383-8.944-5.662-5.28-8.458-2.757-6.569 1.083-4.194 2.188-3.512 3.487-3.492 4.246-2.307 4.336-1.934 4.427-1.561 4.518-1.187 4.518-.539 .428-.14-.904-.14-.603-.093-.301-.047 0 0" fill="#e3f2e7" fill-rule="evenodd"/>
<path transform="matrix(1,0,0,-1,154.6836,373.32963)" d="M0 0C-.952-.614-4.788-1.576-4.788-2.796-2.4-2.796 .139-4.194 2.529-4.194 3.808-3.219 2.439-1.7 2.439-.629 2.078-.396 1.717-.162 1.355 .07 .663-.022-.03-.116-.723-.21-.482-.14-.241-.069 0 0" fill="#e3f2e7" fill-rule="evenodd"/>
<path transform="matrix(1,0,0,-1,143.6621,384.3052)" d="M0 0C-.572-3.146-1.144-6.293-1.716-9.438-2.043-11.47-.903-12.924-.903-14.472-.663-14.519-.422-14.564-.181-14.611 .834-13.828 2.132-13.519 3.162-12.725 3.192-10.254 3.222-7.783 3.252-5.313 4.272-4.129 6.053-2.591 6.053-.979 5.812-.816 5.571-.653 5.33-.49 3.494-.467 1.656-.443-.181-.42-.121-.28-.06-.14 0 0" fill="#e3f2e7" fill-rule="evenodd"/>
<path transform="matrix(1,0,0,-1,177.5396,351.937)" d="M0 0C1.716 1.932 4.246 3.902 4.246 6.572 3.493 6.339 2.74 6.106 1.987 5.873-.187 6.296-2.355 7.369-4.698 6.852-5.631 6.596-6.565 6.339-7.498 6.083-9.181 4.769-6.324-1.752-6.324-4.055-6.324-5.417-6.256-10.574-7.408-11.465-7.408-19.463-7.999-28.377-4.878-35.584-4.155-35.305-3.433-35.024-2.71-34.745-1.804-32.631-2.71-29.562-2.71-27.194-2.71-22.284-1.174-17.473-1.174-12.724-.985-12.432 2.349-5.264 2.349-5.173 2.867-5.173 7.047-1.015 7.047-.35 7.047 .771 5.661 1.05 4.788 1.05 3.362 .31 1.892-2.027 .18-2.027 .271-1.187 .361-.35 .452 .49 0 .443-.452 .396-.903 .351-.603 .233-.301 .117 0 0" fill="#e3f2e7" fill-rule="evenodd"/>
<path transform="matrix(1,0,0,-1,164.8018,280.4175)" d="M0 0C-2.107 .047-4.216 .093-6.324 .14-7.397-1.51-12.016-3.896-12.016-6.082-10.841-7.201-9.667-8.319-8.492-9.438H-8.131C-7.438-8.133-6.746-6.828-6.053-5.522-3.547-2.288 .072-2.587 3.884-2.587V-1.538C3.704-.956 3.523-.373 3.342 .21 2.018 .35 .692 .489-.632 .629-.421 .419-.21 .21 0 0" fill="#e3f2e7" fill-rule="evenodd"/>
<path transform="matrix(1,0,0,-1,178.9854,279.92823)" d="M0 0C-.954-.185-7.588-4.121-7.588-4.265-7.679-5.383-7.77-6.502-7.86-7.62-5.963-7.294-4.065-6.968-2.168-6.642 .12-6.665 2.409-6.687 4.697-6.712 5.135-6.37 5.058-6.021 5.058-5.453 4.149-3.688 1.573 .279-.362 .279-.422 .233-.482 .187-.543 .14-.362 .093-.181 .047 0 0" fill="#e3f2e7" fill-rule="evenodd"/>
<path transform="matrix(1,0,0,-1,175.6426,296.21733)" d="M0 0C-2.045-.494-4.176-2.311-5.872-3.636V-4.754C-4.939-5.336-4.005-5.919-3.072-6.502L-4.246-13.563C-3.553-13.843-2.861-14.122-2.168-14.401-1.066-16.975-3.157-20.864-3.523-23.421V-29.782C-3.523-30.481-3.534-34.536-2.891-34.536-1.859-35.332-.084-33.767 .994-33.767 1.114-29.084 1.235-24.398 1.355-19.716 1.506-17.502 1.656-15.287 1.806-13.073 1.023-8.669 .241-4.264-.542 .14-.692 .093-.843 .047-.994 0" fill="#e3f2e7" fill-rule="evenodd"/>
<path transform="matrix(1,0,0,-1,191.542,251.33452)" d="M0 0C.331 .116 .663 .233 .994 .35-.783-.839-2.56-2.027-4.336-3.216-4.336-5.726-.049-9.608 .452-12.515 1.122-16.398-1.807-20.173-1.807-24.119-1.807-31.719-1.987-39.22-1.987-46.84-2.047-52.176-2.108-57.514-2.168-62.85-2.627-67.431-2.378-72.119-1.897-76.553-1.837-77.106-1.626-80.957-1.175-80.957-.452-81.097 .271-81.236 .994-81.377 1.445-73.012 1.897-64.644 2.349-56.278 2.349-44.531 1.247-32.623 3.704-21.183 3.734-19.994 3.764-18.806 3.795-17.617 4.393-14.86 3.342 .559 .633 .559 .332 .489 .03 .42-.271 .35-.181 .233-.09 .116 0 0" fill="#e3f2e7" fill-rule="evenodd"/>
<path transform="matrix(1,0,0,-1,203.4668,253.57082)" d="M0 0C-.602-.187-1.204-.374-1.806-.561-1.806-5.622-2.544-10.635-2.981-15.73-3.661-23.661-1.936-32.089-3.614-39.92-3.463-42.554-3.313-45.188-3.162-47.82-2.801-48.356-2.439-48.893-2.078-49.429-1.506-48.31-.934-47.19-.362-46.072-.271-45.979-.181-45.886-.09-45.793 0-45.653 .091-45.513 .181-45.374 .301-45.187 .422-45 .542-44.813 .542-44.813 7.965-37.902 5.42-36.914 5.36-36.75 5.3-36.587 5.239-36.424 4.065-37.123 2.891-37.823 1.717-38.522 1.656-36.728 1.596-34.933 1.536-33.139 1.566-28.455 1.596-23.771 1.626-19.087 2.018-19.087 2.538-21.604 4.698-21.604 4.909-21.394 5.12-21.184 5.33-20.975 5.3-17.433 5.27-13.89 5.239-10.348 4.005-10.371 2.77-10.395 1.536-10.418 1.505-9.462 1.476-8.507 1.446-7.551 3.411-7.551 4.156-4.823 4.156-3.426 3.565-1.594 3.2-1.074 1.717 .069 1.132 .069-1.084 .427-1.084-.631" fill="#e3f2e7" fill-rule="evenodd"/>
<path transform="matrix(1,0,0,-1,199.4922,308.732)" d="M0 0C1.467-2.272 1.593-7.017 1.083-9.787V-10.767C1.144-10.836 1.204-10.905 1.265-10.976 2.288-10.486 3.312-9.996 4.335-9.507 4.335-3.797 9.847-4.941 9.847-1.468 8.736-1.468 8.411-.28 7.498-.14 4.929 .255 2.875-.069 .361-.069-.046-.069-.542-.268-.542 .21-.362 .14-.181 .07 0 0" fill="#e3f2e7" fill-rule="evenodd"/>
<path transform="matrix(1,0,0,-1,199.4014,321.5952)" d="M0 0C-.09-3.658-.181-7.318-.271-10.977 1.51-11.659 3.18-10.417 4.698-10.417 4.698-7.198 4.336-3.672 4.336-.629 3.567-.629-.18-1.101-.18-.839-.12-.56-.06-.279 0 0" fill="#e3f2e7" fill-rule="evenodd"/>
<path transform="matrix(1,0,0,-1,198.2266,340.40193)" d="M0 0C-.09-1.794-.181-3.589-.271-5.383 1.205-5.336 2.681-5.29 4.156-5.243 4.728-5.499 5.301-5.756 5.873-6.012 5.873-10.17 1.897-13.89 1.897-17.967 .595-18.971-.542-21.936-.542-23.559 .994-22.208 2.53-20.855 4.066-19.505 4.698-19.646 5.331-19.784 5.963-19.925 5.903-22.86 5.843-25.797 5.782-28.733 5.572-29.525 5.361-30.317 5.15-31.109 6.398-30.79 7.097-29.362 8.402-29.362 8.553-29.525 8.704-29.688 8.854-29.852 8.854-33.491 3.976-34.662 3.976-37.821 4.758-37.961 5.542-38.101 6.324-38.24 7.167-39.01 8.011-39.778 8.854-40.548V-41.247C7.589-42.668 6.324-44.09 5.06-45.512 5.06-46.649 6.648-48.388 7.318-49.427 7.318-52.604 7.047-55.992 7.047-59.074 6.475-58.911 5.902-58.748 5.331-58.585 3.735-59.54 2.139-60.496 .543-61.451V-61.731C4.547-61.777 8.553-61.824 12.558-61.871 12.558-58.765 11.97-55.557 11.473-52.503 11.383-40.223 11.292-27.939 11.202-15.66 11.202-11.074 12.713-2.066 8.944 .84 6.118 .84 3.227 1.189 .362 1.189 .025 .93-.298-1.177 .091-.279V-.069C.061-.046 .031-.022 0 0" fill="#e3f2e7" fill-rule="evenodd"/>
<path transform="matrix(1,0,0,-1,181.2437,365.2896)" d="M0 0C.491-7.628 .812-15.138 .812-22.721 1.274-22.721 3.614-21.314 3.614-21.812 3.614-13.953 2.981-6.203 2.981 1.608 1.941 1.608 .27-.488-.542-1.118" fill="#e3f2e7" fill-rule="evenodd"/>
<path transform="matrix(1,0,0,-1,182.418,389.33943)" d="M0 0C-.193-2.223-1.498-8.876-.633-10.556-.512-10.696-.392-10.836-.271-10.976-.007-10.154 1.507-9.577 2.348-9.577 2.378-6.874 2.409-4.171 2.439-1.468 2.229-.676 2.018 .117 1.807 .91 1.505 .56 .18 0 .18 0 .06-.372-.061-.745-.181-1.118" fill="#e3f2e7" fill-rule="evenodd"/>
<path transform="matrix(1,0,0,-1,216.9272,259.3745)" d="M0 0C-.331-.187-.662-.372-.994-.559L-.452-.069C-1.505-1.071-2.56-2.073-3.614-3.076-1.31-3.076-.812-7.36-.812-9.019H-.452C.239-7.948 4.066-5.173 4.066-5.173V-5.104C2.294-3.733-.723-1.974-.723 .279-.482 .187-.241 .093 0 0" fill="#e3f2e7" fill-rule="evenodd"/>
<path transform="matrix(1,0,0,-1,241.229,249.58641)" d="M0 0C-.604-.17-11.022-.608-11.022-1.748-11.383-2.75-11.745-3.753-12.106-4.755-11.955-4.895-11.805-5.034-11.654-5.174-9.302-6.088-7.218-3.593-4.698-3.915-2.827-4.155-1.822-6.432 0-6.432 .953-5.325 3.613-4.336 3.613-2.937 2.811-2.31 1.685-.685 .813-.351-.032-.351-.558-.013-1.266-.56" fill="#e3f2e7" fill-rule="evenodd"/>
<path transform="matrix(1,0,0,-1,237.2534,260.35304)" d="M0 0C-2.138-.746-4.276-1.491-6.414-2.237-6.871-1.885-7.588-1.771-7.588-1.048-8.313-.489-9.74-1.083-10.027-1.747V-2.447C-8.341-3.495-6.654-4.545-4.968-5.593-3.208-6.954-1.774-10.487 .543-10.487 2.681-8.553 4.819-6.618 6.957-4.684V-4.544C4.4-.617 2.402-.279-1.806-.279" fill="#e3f2e7" fill-rule="evenodd"/>
<path transform="matrix(1,0,0,-1,225.1484,272.4478)" d="M0 0C-1.033-.654-4.476-2.263-3.794-3.845-.161-5.719 5.249-3.705 9.124-3.705 9.124-.944 1.066-.763 0 .07H-1.084" fill="#e3f2e7" fill-rule="evenodd"/>
<path transform="matrix(1,0,0,-1,220.1792,305.7954)" d="M0 0-2.981-2.517C-3.936-3.619-4.246-11.649-4.246-13.492-4.246-14.905-4.43-18.6-2.981-19.155-1.612-19.155 .376-19.071 1.446-18.247 1.446-12.935 2.259-7.836 2.259-2.587 1.988-1.935 1.717-1.281 1.446-.629 .633-.536-.181-.442-.994-.349-1.445-.722-1.896-1.096-2.348-1.469" fill="#e3f2e7" fill-rule="evenodd"/>
<path transform="matrix(1,0,0,-1,217.3794,345.0855)" d="M0 0C-.254-3.548-1.355-7.187-1.355-10.626-.112-10.626 1.603-11.133 2.62-10.347V-9.787C2.62-6.623 2.981-3.566 2.981-.419 2.431 .005-.18 .141-.542-.279-.361-.187-.181-.093 0 0" fill="#e3f2e7" fill-rule="evenodd"/>
<path transform="matrix(1,0,0,-1,217.8311,360.5357)" d="M0 0C-.433-3.343-2.71-6.466-2.71-9.718-.767-9.718 .326-8.46 1.987-8.46 2.168-5.034 2.349-1.607 2.529 1.818 2.378 1.841 2.228 1.864 2.077 1.888 1.126 1.149 .551 .499-.271-.14-.181-.093-.09-.046 0 0" fill="#e3f2e7" fill-rule="evenodd"/>
<path transform="matrix(1,0,0,-1,219.9082,372.7007)" d="M0 0C-1.337 .432-1.274 .552-2.168-.14-2.5-2.399-2.831-4.66-3.162-6.92-3.222-10.485-3.282-14.052-3.342-17.617-3.282-19.341-3.222-21.066-3.162-22.79-3.162-24.078-3.503-28.192-2.439-29.013-1.927-29.269-1.415-29.525-.903-29.781 .516-29.999 3.044-29.443 3.976-28.733 2.301-28.733 2.569-23.232 2.439-22.021 1.647-14.644 .994-7.359 .994 .14H.542C.061-.093-.421-.325-.903-.559-.602-.372-.301-.186 0 0" fill="#e3f2e7" fill-rule="evenodd"/>
<path transform="matrix(1,0,0,-1,227.2261,399.7554)" d="M0 0C-.03-.172-.876-3.007-.271-3.007 5.986-3.007 11.985-4.465 18.43-3.846 20.898-3.683 23.368-3.52 25.837-3.356 25.747-2.61 25.656-1.864 25.566-1.119 22.064-1.119 18.143-.755 14.726 0 9.577 .116 4.426 .232-.723 .35-.482 .232-.241 .116 0 0" fill="#e3f2e7" fill-rule="evenodd"/>
<path transform="matrix(1,0,0,-1,264.5361,393.53373)" d="M0 0C-.629-2.314-1.716-7.531-1.716-10.067-1.656-10.114-1.596-10.161-1.536-10.207-.169-10.207 9.943-11.18 10.569-10.207 10.569-9.371 10.298-8.36 10.298-7.411 7.26-7.411 3.252-6.304 3.252-3.286 3.402-1.911 3.553-.535 3.704 .839 3.201 1.228-.271 1.461-.271 .909-.181 .605-.09 .303 0 0" fill="#e3f2e7" fill-rule="evenodd"/>
<path transform="matrix(1,0,0,-1,239.9634,371.3013)" d="M0 0C-1.746-.312-9.972-.96-10.84-2.308-11.111-3.636-11.382-4.965-11.653-6.293-10.388-6.293-9.754-5.587-8.582-5.314-5.481-4.594-.184-5.322 2.439-3.286 2.837-2.675 2.801-2.275 2.801-1.539 2.189-1.38 1.808-.444 1.808 0 1.219 0 .145-.28-.542-.28-.391-.141-.24-.001-.09 .14-.06 .093-.03 .046 0 0" fill="#e3f2e7" fill-rule="evenodd"/>
<path transform="matrix(1,0,0,-1,253.5151,348.09233)" d="M0 0C-.671-.119-4.789-1.93-4.789-2.586-6.475-2.703-8.161-2.819-9.847-2.936-9.998-3.006-10.148-3.075-10.299-3.145-10.811-3.425-11.323-3.704-11.835-3.984-11.865-4.147-11.895-4.311-11.925-4.474-11.745-5.056-11.564-5.639-11.383-6.221-11.89-7.135-12.106-7.689-12.106-8.738-11.654-9.437-11.202-10.136-10.75-10.835-8.295-10.835 4.073-7.894 5.51-5.662 6.079-4.348 5.358-.396 4.607 .771 3.823 1.368-1.626 .42-1.626 .42" fill="#e3f2e7" fill-rule="evenodd"/>
<path transform="matrix(1,0,0,-1,255.6831,360.95564)" d="M0 0C-2.352 .664-7.499-2.532-7.499-5.243-5.399-5.646-3.351-6.082-1.265-6.082-.608-6.082 2.258-2.508 2.258-1.607 1.207-.796 1.536-1.005 1.536 .21 1.536 1.041-2.65-.094-1.355 .91" fill="#e3f2e7" fill-rule="evenodd"/>
<path transform="matrix(1,0,0,-1,264.7173,357.7388)" d="M0 0C1.297-4.775 .361-9.696 .361-14.332 1.226-14.332 2.559-14.237 3.252-13.703 3.071-8.95 2.891-4.194 2.71 .559 2.258 .676 1.806 .792 1.354 .908 .692 .699 .029 .489-.633 .279-.422 .187-.211 .093 0 0" fill="#e3f2e7" fill-rule="evenodd"/>
<path transform="matrix(1,0,0,-1,264.9883,339.982)" d="M0 0C.481-2.866 .963-5.733 1.445-8.6 2.017-7.737 2.59-6.874 3.162-6.012 5.117-4.282 9.034-4.508 9.034-1.118 8.182-.461 7.058-.42 5.962-.42 4.11 1.741 .763-.35-.994-.35" fill="#e3f2e7" fill-rule="evenodd"/>
<path transform="matrix(1,0,0,-1,266.7944,316.4917)" d="M0 0C-1.03-.199-1.102-.065-1.716-.699-2.291-2.036-2.807-14.188-1.806-14.961-.632-14.961 .465-14.181 1.355-13.492 1.386-10.649 1.416-7.807 1.446-4.964 1.717-3.659 1.988-2.354 2.259-1.049 1.808-.676 1.355-.304 .904 .069-.164 .069-1.059-.979-1.987-.979" fill="#e3f2e7" fill-rule="evenodd"/>
<path transform="matrix(1,0,0,-1,265.7109,309.08064)" d="M0 0C.271 .373 .542 .745 .812 1.118 2.109 .115 1.062-1.467 2.891-2.168 4.559-2.168 6.269-1.957 7.859-1.957 8.467-1.489 9.215-.792 9.215 0 7.496 1.327 5.22 2.241 2.981 2.026 1.249 1.86 .181 .489 .181 .489 .121 .326 .06 .163 0 0" fill="#e3f2e7" fill-rule="evenodd"/>
<path transform="matrix(1,0,0,-1,267.9692,252.8023)" d="M0 0C.902 2.441-2.937-.664-3.794-1.329-4.398-2.262-4.427-3.296-4.427-4.404-2.715-4.738 1.637-3.986 2.981-2.938 3.65-1.908 3.65-.539 2.981 .489 2.168 .629 1.354 .769 .542 .908 .361 .604 .181 .303 0 0" fill="#e3f2e7" fill-rule="evenodd"/>
<path transform="matrix(1,0,0,-1,256.8579,263.7788)" d="M0 0C-1.205 .07-2.409 .14-3.614 .21-3.614-1.702-3.624-5.771-1.355-6.642H-.452C.542-5.803 1.536-4.964 2.529-4.125 2.589-3.286 2.65-2.446 2.71-1.607 1.233-1.042-1.379 .683-2.891-.489" fill="#e3f2e7" fill-rule="evenodd"/>
<path transform="matrix(1,0,0,-1,269.8662,259.51423)" d="M0 0C-1.475-1.142-2.951-2.284-4.426-3.426V-3.775C-3.785-4.771-1.87-3.985-.994-3.985-1.205-7.854-1.416-11.723-1.626-15.591-2.59-15.497-3.554-15.403-4.517-15.311-4.517-21.334-5.511-27.537-5.511-33.627-3.061-35.521 .723-38.854 .723-42.226V-41.667C1.205-40.246 1.687-38.824 2.168-37.402 2.966-34.105 3.252-31.733 3.252-28.244 3.252-18.624 1.897-8.87 1.897 .699 1.115 .63 .331 .56-.452 .489-.301 .326-.15 .163 0 0" fill="#e3f2e7" fill-rule="evenodd"/>
<path transform="matrix(1,0,0,-1,239.6929,280.34724)" d="M0 0C-1.183-.998-3.071-2.413-3.071-3.985-2.976-4.134 7.34-3.915 9.305-3.915 9.365-2.773 9.425-1.631 9.485-.489 6.74 1.63 1.906 .14-1.265 .14" fill="#e3f2e7" fill-rule="evenodd"/>
<path transform="matrix(1,0,0,-1,225.0576,282.0249)" d="M0 0C-3.342 .419-6.686 .839-10.028 1.258-10.028 1.258-11.202-4.312-11.202-4.755-5.314-4.755 .874-4.615 6.686-4.615 6.806-3.123 6.926-1.632 7.046-.14 4.335-.14 1.61 .979-.903 .979-1.083 .792-1.265 .605-1.445 .419" fill="#e3f2e7" fill-rule="evenodd"/>
<path transform="matrix(1,0,0,-1,228.8521,310.68904)" d="M0 0C-.899-5.562-.993-11.592-.993-17.269 .03-16.756 1.054-16.242 2.078-15.729 2.078-10.691 2.529-5.51 2.529-.63 1.894-.63 2.191-.246 1.897 .21 .964 .14 .03 .069-.903 0Z" fill="#e3f2e7" fill-rule="evenodd"/>
<path transform="matrix(1,0,0,-1,237.5244,296.2876)" d="M0 0C-2.529-2.12-4.565-2.57-1.265-4.614-.602-5.336 .061-6.059 .723-6.781 1.807-6.734 2.892-6.687 3.976-6.642 3.976-5.913 6.967-1.258 8.04-1.258 6.604-.151-.812-.967-.812-.069-.542-.046-.271-.023 0 0" fill="#e3f2e7" fill-rule="evenodd"/>
<path transform="matrix(1,0,0,-1,247.4619,303.6978)" d="M0 0C-1.189-1.656-1.686-5.364-3.252-6.571-2.192-6.571 3.704-6.627 3.704-7.41 3.704-5.696 4.451-1.314 3.433 0 2.708 .374-.904 .104-.904-.489Z" fill="#e3f2e7" fill-rule="evenodd"/>
<path transform="matrix(1,0,0,-1,113.1416,177.45511)" d="M0 0-26.504 109.426C-26.504 109.426-28.999 116.375-36.721 117.916-36.721 117.916-48.894 119.413-59.23 119.289-59.23 119.289-66.758 119.129-66.286 116.077-65.847 113.244-53.472 60.232-53.472 60.232L-40.158 4.381-30.737-36.698C-30.737-36.698-26.66-50-18.884-57.414-18.884-57.414-13.178-60.274-5.638-61.87 1.903-63.466 9.721-65.024 9.721-65.024 9.721-65.024 13.382-65.109 13.908-62.668 14.433-60.231 21.208-40.25 24.49-33.339 27.983-25.984 28.279-23.656 31.894-22.546 31.894-22.546 34.755-21.545 37.214-23.26 37.214-23.26 39.542-28.038 42.895-34.54 46.395-41.328 51.528-59.977 51.528-59.977 51.528-59.977 52.095-63.909 57.547-63.182 62.994-62.458 78.588-61.164 88.351-49.363 88.351-49.363 92.347-45.329 97.404-26.43 102.563-7.152 116.146 45.495 116.146 45.495L130.1 99.698 133.775 114.075C133.775 114.075 134.63 117.507 130.75 117.704 126.869 117.899 117.471 118.367 111.342 117.928 105.206 117.489 96.243 115.672 93.584 105.844 91.088 96.619 75.425 34.779 75.425 34.779L66.271-2.935C66.271-2.935 65.937-4.083 64.726-.735 63.517 2.608 61.638 8.928 59.298 11.46 57.335 13.586 51.761 17.029 45.394 18.496 37.907 20.221 28.487 20.981 18.81 18.016 18.81 18.016 12.093 16.613 5.859 8.177 5.859 8.177 2.367 1.59 1.793 .26 1.219-1.071 .243-1.219 0 0" fill="#7c7e80" fill-rule="evenodd"/>
<path transform="matrix(1,0,0,-1,329.7598,59.0401)" d="M0 0C0 0-27.937-.946-33.6-1.92-33.6-1.92-38.057-2.407-38.16-8.64-38.263-14.874-38.4-173.04-38.4-173.04-38.4-173.04-38.9-182.044-30.24-182.4-21.58-182.755-8.486-182.862 4.8-182.88 18.087-182.898 48.082-183.012 59.04-182.64 69.999-182.268 75.446-182.239 80.16-180.24 80.16-180.24 85.051-178.583 90.72-169.44 90.72-169.44 93.485-164.463 93.84-161.52 94.194-158.577 94.119-155.094 91.92-154.32 89.721-153.545 87.472-153.571 84.24-153.6 81.009-153.629 58.545-154.359 44.4-154.56 30.255-154.761-.01-155.075-4.08-155.04-4.08-155.04-6.582-154.201-6.72-152.16-6.858-150.119-6.72-106.08-6.72-106.08-6.72-106.08-7.065-104.305-3.84-104.16-.615-104.015 55.007-104.512 59.76-104.16 64.513-103.808 70.837-102.945 73.2-100.56 75.563-98.175 81.602-89.675 82.08-85.44 82.558-81.205 82.982-76.471 77.28-76.32 71.578-76.168-5.52-76.08-5.52-76.08-5.52-76.08-6.723-75.955-6.72-74.16-6.716-72.365-6.72-30.96-6.72-30.96-6.72-30.96-6.228-28.475-4.08-28.32-1.932-28.165 11.186-27.62 40.08-28.08 68.975-28.54 83.65-29.271 85.68-28.56 87.71-27.848 91.544-25.753 90-20.16 88.457-14.567 85.059-3.359 77.28-1.2 77.28-1.2 71.065 .015 56.88 .24 42.695 .465 6.371 .333 0 0" fill="#808285" fill-rule="evenodd"/>
<path transform="matrix(1,0,0,-1,498.7197,121.68021)" d="M0 0-.479 53.28C-.479 53.28-.194 61.771-10.08 62.16-19.965 62.549-24.163 62.595-25.92 62.4-27.677 62.206-31.412 61.759-31.439 56.64-31.467 51.521-31.439 25.2-31.439 25.2V-40.56-114.72C-31.439-114.72-31.015-119.293-28.08-119.52-25.146-119.746-11.911-120.088-8.16-119.28-4.408-118.472-.787-116.777-.479-110.88-.172-104.982-.239-78.48-.239-78.48L0-45.36C0-45.36-.033-41.897 4.08-41.76 8.193-41.622 79.44-41.52 79.44-41.52 79.44-41.52 84.899-40.822 85.2-45.84 85.502-50.857 85.315-61.18 85.44-67.2 85.563-73.22 85.203-108.405 85.681-111.359 86.157-114.314 87.324-119.096 92.641-119.52 97.956-119.944 107.922-120.184 110.641-119.76 113.359-119.336 116.417-119.089 116.4-114.24 116.384-109.391 116.4-55.92 116.4-55.92V-13.2 19.92 50.64C116.4 50.64 116.753 57.529 116.16 59.04 115.568 60.551 115.16 61.884 112.32 62.16 109.479 62.437 96.976 62.582 94.08 62.16 91.185 61.739 85.354 60.867 85.44 51.12 85.525 41.374 85.44-7.92 85.44-7.92 85.44-7.92 85.681-13.397 80.641-13.44 75.601-13.482 4.561-13.44 4.561-13.44 4.561-13.44-.265-13.702-.239-9.6-.215-5.498 0 0 0 0" fill="#808285" fill-rule="evenodd"/>
<path transform="matrix(1,0,0,-1,731.5195,87.839908)" d="M0 0C0 0 18.771 3.771 42.479 1.68 66.188-.412 74.521-1.44 77.04-.72 77.04-.72 81.073 2.155 79.681 7.2 78.287 12.245 75.5 21.335 65.761 26.16 65.761 26.16 58.118 29.111 44.4 29.76 30.683 30.408 10.082 31.864-17.279 25.68-17.279 25.68-37.065 21.588-49.68 3.84-49.68 3.84-61.98-17.65-63.6-29.52-65.219-41.39-67.146-65.635-65.76-80.88-64.376-96.125-61.915-109.395-56.88-121.2-56.88-121.2-52.715-132.782-41.521-141.84-41.521-141.84-29.465-150.079-16.8-152.4-4.135-154.722 11.226-156.543 27.841-155.52 44.456-154.497 58.224-154.035 67.438-149.28 67.438-149.28 71.11-147.465 73.2-144.24 75.291-141.015 79.247-134.785 79.681-130.8 80.114-126.815 79.337-123.003 76.801-122.88 74.264-122.757 68.339-123.205 61.921-124.08 55.502-124.956 33.118-127.216 18.479-126.48 3.843-125.744-13.917-123.775-21.6-115.92-21.6-115.92-29.218-110.143-31.439-94.56-33.661-78.977-35.265-57.382-33.359-45.12-31.454-32.858-28.423-20.01-24-14.16-19.576-8.31-15.327-4.511-9.84-2.64-4.354-.769-1.203-.37 0 0" fill="#808285" fill-rule="evenodd"/>
</g>
</g>
</svg>
